<?xml version="1.0" encoding="UTF-8"?>
<svg id="Layer_2" xmlns="http://www.w3.org/2000/svg" version="1.1" viewBox="0 0 245.69 89.72">
  <!-- Generator: Adobe Illustrator 30.0.0, SVG Export Plug-In . SVG Version: 2.1.1 Build 123)  -->
  <defs>
    <style>
      .st0 {
        fill: #fff;
      }
    </style>
  </defs>
  <g id="Layer_1-2">
    <path class="st0" d="M245.69,22.04c0,4.06-3.29,7.35-7.35,7.35h-7.35v7.35c0,4.06-3.29,7.35-7.35,7.35s-7.35-3.29-7.35-7.35v-7.34h6.25c4.67,0,8.45-3.79,8.45-8.45v-6.25h7.35c4.06,0,7.35,3.29,7.35,7.34h0Z"/>
    <path class="st0" d="M230.99,7.35v13.6c0,4.67-3.78,8.45-8.45,8.45h-13.6c-4.06,0-7.35-3.29-7.35-7.35s3.29-7.35,7.35-7.35h7.35v-7.35C216.29,3.29,219.58,0,223.64,0s7.35,3.29,7.35,7.35h0Z"/>
    <path class="st0" d="M231.96,14.7v6.25c0,5.2-4.22,9.42-9.42,9.42h-6.25v-.97h6.25c4.67,0,8.45-3.79,8.45-8.45v-6.25s.97,0,.97,0Z"/>
    <path class="st0" d="M115.7,54.66c0-19.34-15.73-35.07-35.06-35.07s-35.06,15.74-35.06,35.07,15.73,35.06,35.06,35.06c12.06,0,23.13-6.08,29.61-16.27l-10.45-6.64c-4.19,6.6-11.36,10.53-19.16,10.53-10.37,0-19.13-6.99-21.83-16.5h56.9v-6.18h-.01ZM58.8,48.47c2.7-9.52,11.47-16.51,21.83-16.51s19.13,6.99,21.84,16.51h-43.67Z"/>
    <path class="st0" d="M161.28,19.59c-19.34,0-35.06,15.74-35.06,35.07s15.73,35.06,35.06,35.06c8.64,0,16.57-3.15,22.69-8.36v8.36h12.37v-35.06c0-19.34-15.73-35.07-35.06-35.07ZM161.28,77.35c-12.51,0-22.69-10.18-22.69-22.69s10.18-22.7,22.69-22.7,22.69,10.19,22.69,22.7-10.18,22.69-22.69,22.69Z"/>
    <path class="st0" d="M12.38,54.66v-14.44h15.47v-12.38h-15.47V0H0v54.66c0,19.34,15.73,35.06,35.06,35.06v-12.38c-12.51,0-22.69-10.18-22.69-22.69h0Z"/>
  </g>
</svg>