<?xml version="1.0" standalone="no"?>
<!DOCTYPE svg PUBLIC "-//W3C//DTD SVG 1.1//EN" "http://www.w3.org/Graphics/SVG/1.1/DTD/svg11.dtd" >
<svg xmlns="http://www.w3.org/2000/svg" xmlns:xlink="http://www.w3.org/1999/xlink" version="1.1">
<metadata>
Created by FontForge 20201107 at Tue Dec 10 16:43:20 2019
 By 
Copyright Saudi Telecom Company
</metadata>
<defs>
<font id="STCForward-Bold" horiz-adv-x="0" >
  <font-face 
    font-family="STC Forward"
    font-weight="700"
    font-stretch="normal"
    units-per-em="1000"
    panose-1="0 0 8 0 0 0 0 0 0 0"
    ascent="800"
    descent="-200"
    x-height="516"
    cap-height="750"
    bbox="-436 -443 1417 999"
    underline-thickness="50"
    underline-position="-100"
    unicode-range="U+0020-FEFC"
  />
<missing-glyph horiz-adv-x="850" 
d="M53 750h743v-750h-743v750zM683 108v534h-516v-534h516zM421 302l-104 -104l-67 69l102 103l-102 104l67 69l104 -104l103 103l68 -68l-102 -104l102 -103l-68 -68z" />
    <glyph glyph-name="fi" unicode="fi" horiz-adv-x="751" 
d="M30 375v141h80v73q0 77 46 119t137 42h167v-138h-141q-39 0 -39 -39v-57h106v-141h-106v-375h-170v375h-80zM525 596v154h169v-154h-169zM525 375h-82v141h251v-516h-169v375z" />
    <glyph glyph-name="fl" unicode="fl" horiz-adv-x="786" 
d="M30 375v141h80v73q0 77 46 119t137 42h167v-138h-141q-39 0 -39 -39v-57h135v-141h-135v-375h-170v375h-80zM551 42q-43 42 -43 119v589h170v-573q0 -36 34 -36h51v-141h-84q-85 0 -128 42z" />
    <glyph glyph-name="uniFEF5" unicode="&#xfedf;&#xfe82;" horiz-adv-x="670" arabic-form="isolated" 
d="M612 713v-488q0 -119 -47.5 -172t-161.5 -53h-376v172h163v380h141v-380h76q37 0 50.5 9t13.5 42v490h141zM357 625.5q-21 -8.5 -43 -8.5q-26 0 -66 12q-31 9 -47 9q-30 0 -62 -16l-17 72q15 11 37.5 19t45.5 8q14 0 27 -3t25 -7q29 -11 57 -11q29 0 61 16l14 -72
q-11 -10 -32 -18.5z" />
    <glyph glyph-name="uniFEF6" unicode="&#xfee0;&#xfe82;" horiz-adv-x="692" arabic-form="final" 
d="M709 162v-152l-17 -10q-95 0 -130 50q-49 -50 -159 -50h-376v172h163v380h141v-380h76q37 0 50.5 9t13.5 42v490h141v-488q0 -29 -2 -42q10 -7 27.5 -9t54.5 -2zM357 625.5q-21 -8.5 -43 -8.5q-26 0 -66 12q-31 9 -47 9q-30 0 -62 -16l-17 72q15 11 37.5 19t45.5 8
q14 0 27 -3t25 -7q29 -11 57 -11q29 0 61 16l14 -72q-11 -10 -32 -18.5z" />
    <glyph glyph-name="uniFEF7" unicode="&#xfedf;&#xfe84;" horiz-adv-x="670" arabic-form="isolated" 
d="M612 713v-488q0 -119 -47.5 -172t-161.5 -53h-376v172h163v380h141v-380h76q37 0 50.5 9t13.5 42v490h141zM354 698v-77h-201v69h28q-14 16 -14 46q0 44 29.5 68t77.5 24q38 0 70 -13l-13 -68q-28 5 -57 5q-21 0 -33 -7t-12 -21t7.5 -20t27.5 -6h90z" />
    <glyph glyph-name="uniFEF8" unicode="&#xfee0;&#xfe84;" horiz-adv-x="692" arabic-form="final" 
d="M709 162v-152l-17 -10q-95 0 -130 50q-49 -50 -159 -50h-376v172h163v380h141v-380h76q37 0 50.5 9t13.5 42v490h141v-488q0 -29 -2 -42q10 -7 27.5 -9t54.5 -2zM354 698v-77h-201v69h28q-14 16 -14 46q0 44 29.5 68t77.5 24q38 0 70 -13l-13 -68q-28 5 -57 5
q-21 0 -33 -7t-12 -21t7.5 -20t27.5 -6h90z" />
    <glyph glyph-name="uniFEF9" unicode="&#xfedf;&#xfe88;" horiz-adv-x="670" arabic-form="isolated" 
d="M612 713v-488q0 -119 -47.5 -172t-161.5 -53h-376v172h163v380h141v-380h76q37 0 50.5 9t13.5 42v490h141zM341 -173v-77h-201v69h28q-14 16 -14 46q0 44 29.5 68t77.5 24q38 0 70 -13l-13 -68q-28 5 -57 5q-21 0 -33 -7t-12 -21t7.5 -20t27.5 -6h90z" />
    <glyph glyph-name="uniFEFA" unicode="&#xfee0;&#xfe88;" horiz-adv-x="692" arabic-form="final" 
d="M709 162v-152l-17 -10q-95 0 -130 50q-49 -50 -159 -50h-376v172h163v380h141v-380h76q37 0 50.5 9t13.5 42v490h141v-488q0 -29 -2 -42q10 -7 27.5 -9t54.5 -2zM342 -173v-77h-201v69h28q-14 16 -14 46q0 44 29.5 68t77.5 24q38 0 70 -13l-13 -68q-28 5 -57 5
q-21 0 -33 -7t-12 -21t7.5 -20t27.5 -6h90z" />
    <glyph glyph-name="uniFEFB" unicode="&#xfedf;&#xfe8e;" horiz-adv-x="670" arabic-form="isolated" 
d="M612 713v-488q0 -119 -47.5 -172t-161.5 -53h-376v172h163v380h141v-380h76q37 0 50.5 9t13.5 42v490h141z" />
    <glyph glyph-name="uniFEFC" unicode="&#xfee0;&#xfe8e;" horiz-adv-x="692" arabic-form="final" 
d="M709 162v-152l-17 -10q-95 0 -130 50q-49 -50 -159 -50h-376v172h163v380h141v-380h76q37 0 50.5 9t13.5 42v490h141v-488q0 -29 -2 -42q10 -7 27.5 -9t54.5 -2z" />
    <glyph glyph-name="f_b" unicode="fb" horiz-adv-x="1070" 
d="M30 375v141h80v73q0 77 46 119t137 42h167v-138h-141q-39 0 -39 -39v-57h135v-141h-135v-375h-170v375h-80zM924 496q52 -34 80 -95.5t28 -141.5q0 -81 -28 -143t-80 -96t-122 -34q-91 0 -139 59v-45h-165v750h165v-279q53 59 141 59q68 0 120 -34zM837.5 168.5
q27.5 31.5 27.5 90.5q0 57 -27.5 88t-75.5 31q-67 0 -99 -61v-119q14 -28 39 -44.5t59 -16.5q49 0 76.5 31.5z" />
    <glyph glyph-name="f_f" unicode="ff" horiz-adv-x="825" 
d="M30 375v141h80v73q0 77 46 119t137 42h167v-138h-141q-39 0 -39 -39v-57h90v-141h-90v-375h-170v375h-80zM416 375v141h79v73q0 77 46 119t137 42h167v-138h-140q-39 0 -39 -39v-57h135v-141h-135v-375h-171v375h-79z" />
    <glyph glyph-name="f_f_b" unicode="ffb" horiz-adv-x="1456" 
d="M280 516h87v-141h-87v-375h-170v375h-80v141h80v73q0 77 46 119t137 42h167v-138h-141q-39 0 -39 -39v-57zM541 708q46 42 137 42h167v-138h-140q-39 0 -39 -39v-57h135v-141h-135v-375h-171v375h-80v141h80v73q0 77 46 119zM1309.5 496q51.5 -34 79.5 -95.5t28 -141.5
q0 -81 -28 -143t-80 -96t-122 -34q-89 0 -138 58v-44h-165v750h165v-278q53 58 141 58q68 0 119.5 -34zM1223.5 168.5q27.5 31.5 27.5 90.5q0 57 -27.5 88t-75.5 31q-35 0 -60 -16t-39 -44v-121q14 -28 39 -44t59 -16q49 0 76.5 31.5z" />
    <glyph glyph-name="f_f_h" unicode="ffh" horiz-adv-x="1453" 
d="M280 516h91v-141h-91v-375h-170v375h-80v141h80v73q0 77 46 119t137 42h167v-138h-141q-39 0 -39 -39v-57zM541 708q46 42 137 42h167v-138h-140q-39 0 -39 -39v-57h135v-141h-135v-375h-171v375h-80v141h80v73q0 77 46 119zM1353 479q48 -51 48 -138v-341h-171v287
q0 43 -20 67t-62 24q-30 0 -57.5 -15.5t-42.5 -39.5v-323h-170v750h170v-291q32 34 77.5 52.5t97.5 18.5q82 0 130 -51z" />
    <glyph glyph-name="f_f_i" unicode="ffi" horiz-adv-x="1136" 
d="M30 375v141h80v73q0 77 46 119t137 42h167v-138h-141q-39 0 -39 -39v-57h90v-141h-90v-375h-170v375h-80zM416 375v141h79v73q0 77 46 119t137 42h167v-138h-140q-39 0 -39 -39v-57h135v-141h-135v-375h-171v375h-79zM910 596v154h170v-154h-170zM910 375h-63v141h233
v-516h-170v375z" />
    <glyph glyph-name="f_f_j" unicode="ffj" horiz-adv-x="1136" 
d="M30 375v141h80v73q0 77 46 119t137 42h167v-138h-141q-39 0 -39 -39v-57h91v-141h-91v-375h-170v375h-80zM415 375v141h80v73q0 77 46 119t137 42h167v-138h-140q-39 0 -39 -39v-57h87v-141h-87v-375h-171v375h-80zM910 596v154h170v-154h-170zM875 -59q35 0 35 37v397
h-109v141h279v-555q0 -77 -44.5 -119t-133.5 -42h-157v141h130z" />
    <glyph glyph-name="f_f_k" unicode="ffk" horiz-adv-x="1418" 
d="M280 516h93v-141h-93v-375h-170v375h-80v141h80v73q0 77 46 119t137 42h167v-138h-141q-39 0 -39 -39v-57zM541 708q46 42 137 42h167v-138h-140q-39 0 -39 -39v-57h135v-141h-135v-375h-171v375h-80v141h80v73q0 77 46 119zM1216 0l-121 201h-47v-201h-170v750h170v-419
h46l118 185h183l-158 -242l169 -274h-190z" />
    <glyph glyph-name="f_f_l" unicode="ffl" horiz-adv-x="1171" 
d="M30 375v141h80v73q0 77 46 119t137 42h167v-138h-141q-39 0 -39 -39v-57h90v-141h-90v-375h-170v375h-80zM416 375v141h79v73q0 77 46 119t137 42h167v-138h-140q-39 0 -39 -39v-57h135v-141h-135v-375h-171v375h-79zM936 42q-43 42 -43 119v589h171v-573q0 -36 34 -36
h51v-141h-85q-85 0 -128 42z" />
    <glyph glyph-name="f_h" unicode="fh" horiz-adv-x="1067" 
d="M30 375v141h80v73q0 77 46 119t137 42h167v-138h-141q-39 0 -39 -39v-57h135v-141h-135v-375h-170v375h-80zM967 479q48 -51 48 -138v-341h-171v287q0 43 -20 67t-61 24q-30 0 -58 -15.5t-43 -39.5v-323h-170v750h170v-291q32 34 77.5 52.5t97.5 18.5q82 0 130 -51z" />
    <glyph glyph-name="f_idieresis" unicode="f&#xef;" horiz-adv-x="751" 
d="M280 516h90v-141h-90v-375h-170v375h-80v141h80v73q0 77 46 119t137 42h239v-152h-117v14h-96q-39 0 -39 -39v-57zM579 750h117v-152h-117v152zM415 375v141h279v-516h-169v375h-110z" />
    <glyph glyph-name="f_j" unicode="fj" horiz-adv-x="751" 
d="M30 375v141h80v73q0 77 46 119t137 42h167v-138h-141q-39 0 -39 -39v-57h87v-141h-87v-375h-170v375h-80zM525 596v154h169v-154h-169zM489 -59q17 0 26.5 9.5t9.5 27.5v397h-110v141h279v-555q0 -77 -44.5 -119t-133.5 -42h-156v141h129z" />
    <glyph glyph-name="f_k" unicode="fk" horiz-adv-x="1032" 
d="M30 375v141h80v73q0 77 46 119t137 42h167v-138h-141q-39 0 -39 -39v-57h135v-141h-135v-375h-170v375h-80zM830 0l-121 201h-47v-201h-170v750h170v-419h46l118 185h183l-158 -242l169 -274h-190z" />
    <glyph glyph-name="uniFEDFFB51" unicode="&#xfedf;&#xfb51;" horiz-adv-x="670" 
d="M612 713v-488q0 -119 -47.5 -172t-161.5 -53h-376v172h163v380h141v-380h76q37 0 50.5 9t13.5 42v490h141z" />
    <glyph glyph-name="uniFEE0FB51" unicode="&#xfee0;&#xfb51;" horiz-adv-x="692" 
d="M709 162v-152l-17 -10q-95 0 -130 50q-49 -50 -159 -50h-376v172h163v380h141v-380h76q37 0 50.5 9t13.5 42v490h141v-488q0 -29 -2 -42q10 -7 27.5 -9t54.5 -2z" />
    <glyph glyph-name="uni066E.init" unicode="&#x66e;" horiz-adv-x="290" 
d="M-17 162l17 10q56 0 76.5 8.5t20.5 38.5v236h141v-236q0 -114 -54 -166.5t-184 -52.5l-17 10v152z" />
    <glyph glyph-name="uni066E.medi" unicode="&#x66e;" horiz-adv-x="341" 
d="M358 162v-152l-17 -10q-116 0 -157 68q-25 -35 -69.5 -51.5t-114.5 -16.5l-17 10v152l17 10q57 0 78.5 8.5t21.5 38.5v236h141v-233q0 -24 10 -34.5t29 -13t61 -2.5z" />
    <glyph glyph-name="uni066E.fina" unicode="&#x66e;" horiz-adv-x="984" 
d="M1001 162v-152l-17 -10q-64 0 -102.5 17t-57.5 53q-23 -36 -66 -53t-109 -17h-348q-154 0 -213 72t-59 193q0 41 9.5 86t22.5 79h136q-10 -28 -18.5 -69.5t-8.5 -69.5q0 -66 32.5 -92.5t109.5 -26.5h337q49 0 67 9t18 41v233h140v-230q0 -26 11.5 -37t32 -13.5t66.5 -2.5
z" />
    <glyph glyph-name="uni066F.fina" unicode="&#x66f;" horiz-adv-x="891" 
d="M908 162v-152l-17 -10h-85v-8q0 -109 -56 -164t-185 -55h-220q-128 0 -196.5 33.5t-94 100.5t-25.5 181q0 55 11.5 109t25.5 86h138q-13 -38 -22.5 -89t-9.5 -99q0 -57 13.5 -90.5t51 -50.5t108.5 -17h234q48 0 67.5 12t19.5 46v16h-119q-111 0 -160.5 59t-49.5 150
q0 76 34 135t96 91.5t144 32.5q55 0 106.5 -15.5t88.5 -37.5v-254h85zM666 172v117q-33 18 -80 18q-53 0 -79.5 -19t-26.5 -52q0 -30 22.5 -47t68.5 -17h95z" />
    <glyph glyph-name="uni06A1.init" unicode="&#x6a1;" horiz-adv-x="538" 
d="M393 624.5q54 -15.5 93 -37.5v-350q0 -109 -53 -173t-169 -64h-264l-17 10v152l17 10h265q44 0 61.5 12t17.5 44v44q-37 -51 -128 -51q-93 0 -139.5 52.5t-46.5 129.5q0 70 31 123.5t88 83.5t132 30q58 0 112 -15.5zM344 386v72q-31 18 -75 18q-48 0 -72 -16.5t-24 -44.5
q0 -23 20.5 -38t61.5 -15q62 0 89 24z" />
    <glyph glyph-name="uni06A1.medi" unicode="&#x6a1;" horiz-adv-x="562" 
d="M579 167v-162l-17 -5h-562l-17 5v162l17 5h83q-35 45 -35 105q0 112 64.5 172.5t170.5 60.5q105 0 163 -57t58 -162q0 -68 -41 -119h99zM214 320.5q-23 -17.5 -23 -50.5q0 -25 18 -48t71 -56q51 32 66 55t15 49q0 33 -23.5 50.5t-61.5 17.5q-39 0 -62 -17.5z" />
    <glyph glyph-name="uni06A1.fina" unicode="&#x6a1;" horiz-adv-x="1036" 
d="M1053 167v-162l-17 -5h-734q-154 0 -213.5 77t-59.5 204q0 45 10 94.5t24 89.5h141q-11 -32 -20 -79t-9 -79q0 -76 31.5 -105.5t106.5 -29.5h244q-34 44 -34 105q0 112 64.5 172.5t170.5 60.5q104 0 162 -57t58 -162q0 -68 -40 -119h98zM689 321q-23 -17 -23 -51
q0 -25 18 -48t71 -56q50 32 65 55t15 49q0 33 -23 50.5t-61 17.5q-39 0 -62 -17z" />
    <glyph glyph-name="uniFB51" unicode="&#x671;" horiz-adv-x="288" arabic-form="final" 
d="M106 48.5q-47 48.5 -47 159.5v405h141v-385q0 -26 7 -37.5t24.5 -15t56.5 -3.5l17 -10v-152l-17 -10h-23q-112 0 -159 48.5z" />
    <glyph glyph-name="uniFB6B" unicode="&#x6a4;" horiz-adv-x="1036" arabic-form="final" 
d="M1053 167v-162l-17 -5h-734q-154 0 -213.5 77t-59.5 204q0 45 10 94.5t24 89.5h141q-11 -32 -20 -79t-9 -79q0 -76 31.5 -105.5t106.5 -29.5h244q-34 44 -34 105q0 112 64.5 172.5t170.5 60.5q104 0 162 -57t58 -162q0 -68 -40 -119h98zM689 321q-23 -17 -23 -51
q0 -25 18 -48t71 -56q50 32 65 55t15 49q0 33 -23 50.5t-61 17.5q-39 0 -62 -17zM692 875h117v-116h-117v116zM613 720h114v-118h-114v118zM772 720h114v-118h-114v118z" />
    <glyph glyph-name="uniFB6C" unicode="&#x6a4;" horiz-adv-x="538" arabic-form="initial" 
d="M393 624.5q54 -15.5 93 -37.5v-350q0 -109 -53 -173t-169 -64h-264l-17 10v152l17 10h265q44 0 61.5 12t17.5 44v44q-37 -51 -128 -51q-93 0 -139.5 52.5t-46.5 129.5q0 70 31 123.5t88 83.5t132 30q58 0 112 -15.5zM344 386v72q-31 18 -75 18q-48 0 -72 -16.5t-24 -44.5
q0 -23 20.5 -38t61.5 -15q62 0 89 24zM224 990h117v-116h-117v116zM145 835h114v-118h-114v118zM304 835h114v-118h-114v118z" />
    <glyph glyph-name="uniFB6D" unicode="&#x6a4;" horiz-adv-x="562" arabic-form="medial" 
d="M579 167v-162l-17 -5h-562l-17 5v162l17 5h83q-35 45 -35 105q0 112 64.5 172.5t170.5 60.5q105 0 163 -57t58 -162q0 -68 -41 -119h99zM214 320.5q-23 -17.5 -23 -50.5q0 -25 18 -48t71 -56q51 32 66 55t15 49q0 33 -23.5 50.5t-61.5 17.5q-39 0 -62 -17.5zM226 869h117
v-116h-117v116zM147 714h114v-118h-114v118zM306 714h114v-118h-114v118z" />
    <glyph glyph-name="uniFB8F" unicode="&#x6a9;" horiz-adv-x="923" arabic-form="final" 
d="M940 162v-152l-17 -10q-56 0 -89 15.5t-49 48.5q-52 -64 -186 -64h-299q-154 0 -212.5 72t-58.5 193q0 41 9.5 86t22.5 79h136q-10 -28 -18.5 -69.5t-8.5 -69.5q0 -66 32.5 -92.5t109.5 -26.5h290q44 0 64.5 9.5t20.5 40.5v502h141v-507q0 -22 10 -31.5t28 -11.5t57 -2z
M449 303h-130v93h129q16 0 26.5 3.5t10.5 10.5q0 14 -29 23t-115 9l-6 113l203 83l18 -86l-108 -37q57 -8 87.5 -33t30.5 -72q0 -107 -117 -107z" />
    <glyph glyph-name="uniFB90" unicode="&#x6a9;" horiz-adv-x="638" arabic-form="initial" 
d="M539.5 387.5q54.5 -59.5 54.5 -165.5v-49q0 -173 -157 -173h-437l-17 4v164l17 4h451v43q0 42 -24 63.5t-88 21.5h-278l-28 159l393 287l77 -118l-271 -181h115q138 0 192.5 -59.5z" />
    <glyph glyph-name="uniFB91" unicode="&#x6a9;" horiz-adv-x="671" arabic-form="medial" 
d="M688 162v-152l-17 -10q-85 0 -121 39q-39 -39 -113 -39h-437l-17 4v164l17 4h451v43q0 42 -24 63.5t-88 21.5h-278l-28 159l393 287l77 -118l-271 -181h115q138 0 192.5 -59.5t54.5 -165.5v-42q10 -5 27 -6.5t50 -1.5z" />
    <glyph glyph-name="uniFB9F" unicode="&#x6ba;" horiz-adv-x="751" arabic-form="final" 
d="M768 162v-152l-17 -10q-63 0 -99 21q-13 -107 -89.5 -172t-226.5 -65q-167 0 -237 89t-70 227q0 60 11.5 122t25.5 98h138q-32 -108 -32 -199q0 -78 37.5 -121.5t135.5 -43.5q96 0 133 30.5t37 87.5v381h140v-217h1v-21q0 -22 10 -31.5t28 -11.5t57 -2z" />
    <glyph glyph-name="uniFBFD" unicode="&#x6cc;" horiz-adv-x="785" arabic-form="final" 
d="M802 162v-152l-17 -10h-37v-13q0 -235 -352 -235q-147 0 -228 44t-110 119t-29 185q0 59 10 119.5t23 92.5h138q-9 -32 -18.5 -86.5t-9.5 -112.5q0 -74 21 -113t70.5 -54.5t142.5 -15.5q84 0 127.5 7.5t57.5 20.5t14 32v18h-151v164h331zM276 -324h115v-117h-115v117z
M433 -324h114v-117h-114v117z" />
    <glyph glyph-name="uniFBFE" unicode="&#x6cc;" horiz-adv-x="298" arabic-form="initial" 
d="M-17 162l17 10q56 0 76.5 8.5t20.5 38.5v236h141v-236q0 -114 -54 -166.5t-184 -52.5l-17 10v152zM13 -96h115v-117h-115v117zM170 -96h114v-117h-114v117z" />
    <glyph glyph-name="uniFBFF" unicode="&#x6cc;" horiz-adv-x="341" arabic-form="medial" 
d="M358 162v-152l-17 -10q-116 0 -157 68q-25 -35 -69.5 -51.5t-114.5 -16.5l-17 10v152l17 10q57 0 78.5 8.5t21.5 38.5v236h141v-233q0 -24 10 -34.5t29 -13t61 -2.5zM42 -96h115v-117h-115v117zM199 -96h114v-117h-114v117z" />
    <glyph glyph-name="uniFC31" unicode="&#xfc31;" horiz-adv-x="967" arabic-form="isolated" 
d="M822 624.5q54 -15.5 93 -37.5v-350q0 -95 -40 -156.5t-127 -76.5v-17q0 -235 -352 -235q-147 0 -228 44t-110 119t-29 185q0 59 10 119.5t23 92.5h138q-9 -32 -18.5 -86.5t-9.5 -112.5q0 -74 21 -113t70.5 -54.5t142.5 -15.5q84 0 127.5 7.5t57.5 20.5t14 32v18h-151v160
h241q43 0 60.5 12t17.5 44v47q-36 -50 -128 -50q-93 0 -139.5 52.5t-46.5 129.5q0 70 31 123.5t88 83.5t132 30q58 0 112 -15.5zM773 385v73q-31 18 -75 18q-48 0 -71.5 -16.5t-23.5 -44.5q0 -23 20.5 -38t61.5 -15q62 0 88 23zM650 841h116v-117h-116v117z" />
    <glyph glyph-name="uniFC32" unicode="&#xfc32;" horiz-adv-x="967" arabic-form="isolated" 
d="M822 624.5q54 -15.5 93 -37.5v-350q0 -95 -40 -156.5t-127 -76.5v-17q0 -235 -352 -235q-147 0 -228 44t-110 119t-29 185q0 59 10 119.5t23 92.5h138q-9 -32 -18.5 -86.5t-9.5 -112.5q0 -74 21 -113t70.5 -54.5t142.5 -15.5q84 0 127.5 7.5t57.5 20.5t14 32v18h-151v160
h241q43 0 60.5 12t17.5 44v47q-36 -50 -128 -50q-93 0 -139.5 52.5t-46.5 129.5q0 70 31 123.5t88 83.5t132 30q58 0 112 -15.5zM773 385v73q-31 18 -75 18q-48 0 -71.5 -16.5t-23.5 -44.5q0 -23 20.5 -38t61.5 -15q62 0 88 23zM650 841h116v-117h-116v117zM271 -326h115
v-117h-115v117zM428 -326h114v-117h-114v117z" />
    <glyph glyph-name="uniFC35" unicode="&#xfc35;" horiz-adv-x="967" arabic-form="isolated" 
d="M822 624.5q54 -15.5 93 -37.5v-350q0 -95 -40 -156.5t-127 -76.5v-17q0 -235 -352 -235q-147 0 -228 44t-110 119t-29 185q0 59 10 119.5t23 92.5h138q-9 -32 -18.5 -86.5t-9.5 -112.5q0 -74 21 -113t70.5 -54.5t142.5 -15.5q84 0 127.5 7.5t57.5 20.5t14 32v18h-151v160
h241q43 0 60.5 12t17.5 44v47q-36 -50 -128 -50q-93 0 -139.5 52.5t-46.5 129.5q0 70 31 123.5t88 83.5t132 30q58 0 112 -15.5zM773 385v73q-31 18 -75 18q-48 0 -71.5 -16.5t-23.5 -44.5q0 -23 20.5 -38t61.5 -15q62 0 88 23zM576 841h115v-117h-115v117zM733 841h114
v-117h-114v117z" />
    <glyph glyph-name="uniFC36" unicode="&#xfc36;" horiz-adv-x="967" arabic-form="isolated" 
d="M822 624.5q54 -15.5 93 -37.5v-350q0 -95 -40 -156.5t-127 -76.5v-17q0 -235 -352 -235q-147 0 -228 44t-110 119t-29 185q0 59 10 119.5t23 92.5h138q-9 -32 -18.5 -86.5t-9.5 -112.5q0 -74 21 -113t70.5 -54.5t142.5 -15.5q84 0 127.5 7.5t57.5 20.5t14 32v18h-151v160
h241q43 0 60.5 12t17.5 44v47q-36 -50 -128 -50q-93 0 -139.5 52.5t-46.5 129.5q0 70 31 123.5t88 83.5t132 30q58 0 112 -15.5zM773 385v73q-31 18 -75 18q-48 0 -71.5 -16.5t-23.5 -44.5q0 -23 20.5 -38t61.5 -15q62 0 88 23zM271 -326h115v-117h-115v117zM428 -326h114
v-117h-114v117zM576 841h115v-117h-115v117zM733 841h114v-117h-114v117z" />
    <glyph glyph-name="uniFE82" unicode="&#x622;" horiz-adv-x="288" arabic-form="final" 
d="M106 48.5q-47 48.5 -47 159.5v405h141v-385q0 -26 7 -37.5t24.5 -15t56.5 -3.5l17 -10v-152l-17 -10h-23q-112 0 -159 48.5zM230 686.5q-21 -8.5 -43 -8.5q-26 0 -66 12q-31 9 -47 9q-30 0 -62 -16l-17 72q15 11 37.5 19t45.5 8q14 0 27 -3t25 -7q29 -11 57 -11
q29 0 61 16l14 -72q-11 -10 -32 -18.5z" />
    <glyph glyph-name="uniFE84" unicode="&#x623;" horiz-adv-x="288" arabic-form="final" 
d="M106 48.5q-47 48.5 -47 159.5v405h141v-385q0 -26 7 -37.5t24.5 -15t56.5 -3.5l17 -10v-152l-17 -10h-23q-112 0 -159 48.5zM227 759v-77h-201v69h28q-14 16 -14 46q0 44 29.5 68t77.5 24q38 0 70 -13l-13 -68q-28 5 -57 5q-21 0 -33 -7t-12 -21t7.5 -20t27.5 -6h90z" />
    <glyph glyph-name="uniFE86" unicode="&#x624;" horiz-adv-x="573" arabic-form="final" 
d="M590 162v-152l-17 -10h-80v-11q0 -103 -50 -154.5t-164 -51.5h-228v164h242q34 0 47 9t13 35v20h-115q-115 0 -164.5 57.5t-49.5 149.5q0 77 34 136t96 92t144 33q55 0 106.5 -15.5t88.5 -37.5v-254h80zM353 172v117q-7 5 -28 11.5t-52 6.5q-52 0 -79 -20t-27 -53
q0 -29 23 -45.5t72 -16.5h91zM373 625v-77h-201v69h28q-14 16 -14 46q0 44 29.5 68t77.5 24q38 0 70 -13l-13 -68q-28 5 -57 5q-21 0 -33 -7t-12 -21t7.5 -20t27.5 -6h90z" />
    <glyph glyph-name="uniFE88" unicode="&#x625;" horiz-adv-x="288" arabic-form="final" 
d="M106 48.5q-47 48.5 -47 159.5v505h141v-485q0 -26 7 -37.5t24.5 -15t56.5 -3.5l17 -10v-152l-17 -10h-23q-112 0 -159 48.5zM244 -173v-77h-201v69h28q-14 16 -14 46q0 44 29.5 68t77.5 24q38 0 70 -13l-13 -68q-28 5 -57 5q-21 0 -33 -7t-12 -21t7.5 -20t27.5 -6h90z
" />
    <glyph glyph-name="uniFE8A" unicode="&#x626;" horiz-adv-x="785" arabic-form="final" 
d="M802 162v-152l-17 -10h-37v-13q0 -235 -352 -235q-147 0 -228 44t-110 119t-29 185q0 59 10 119.5t23 92.5h138q-9 -32 -18.5 -86.5t-9.5 -112.5q0 -74 21 -113t70.5 -54.5t142.5 -15.5q84 0 127.5 7.5t57.5 20.5t14 32v18h-151v164h331zM227 460v-77h-201v69h28
q-14 16 -14 46q0 44 29.5 68t77.5 24q38 0 70 -13l-13 -68q-28 5 -57 5q-21 0 -33 -7t-12 -21t7.5 -20t27.5 -6h90z" />
    <glyph glyph-name="uniFE8B" unicode="&#x626;" horiz-adv-x="290" arabic-form="initial" 
d="M-17 162l17 10q56 0 76.5 8.5t20.5 38.5v236h141v-236q0 -114 -54 -166.5t-184 -52.5l-17 10v152zM267 601v-77h-201v69h28q-14 16 -14 46q0 44 29.5 68t77.5 24q38 0 70 -13l-13 -68q-28 5 -57 5q-21 0 -33 -7t-12 -21t7.5 -20t27.5 -6h90z" />
    <glyph glyph-name="uniFE8C" unicode="&#x626;" horiz-adv-x="341" arabic-form="medial" 
d="M358 162v-152l-17 -10q-116 0 -157 68q-25 -35 -69.5 -51.5t-114.5 -16.5l-17 10v152l17 10q57 0 78.5 8.5t21.5 38.5v236h141v-233q0 -24 10 -34.5t29 -13t61 -2.5zM270 601v-77h-201v69h28q-14 16 -14 46q0 44 29.5 68t77.5 24q38 0 70 -13l-13 -68q-28 5 -57 5
q-21 0 -33 -7t-12 -21t7.5 -20t27.5 -6h90z" />
    <glyph glyph-name="uniFE8E" unicode="&#x627;" horiz-adv-x="288" arabic-form="final" 
d="M106 48.5q-47 48.5 -47 159.5v505h141v-485q0 -26 7 -37.5t24.5 -15t56.5 -3.5l17 -10v-152l-17 -10h-23q-112 0 -159 48.5z" />
    <glyph glyph-name="uniFE90" unicode="&#x628;" horiz-adv-x="984" arabic-form="final" 
d="M1001 162v-152l-17 -10q-64 0 -102.5 17t-57.5 53q-23 -36 -66 -53t-109 -17h-348q-154 0 -213 72t-59 193q0 41 9.5 86t22.5 79h136q-10 -28 -18.5 -69.5t-8.5 -69.5q0 -66 32.5 -92.5t109.5 -26.5h337q49 0 67 9t18 41v233h140v-230q0 -26 11.5 -37t32 -13.5t66.5 -2.5
zM399 -99h116v-117h-116v117z" />
    <glyph glyph-name="uniFE91" unicode="&#x628;" horiz-adv-x="290" arabic-form="initial" 
d="M-17 162l17 10q56 0 76.5 8.5t20.5 38.5v236h141v-236q0 -114 -54 -166.5t-184 -52.5l-17 10v152zM103 -100h116v-117h-116v117z" />
    <glyph glyph-name="uniFE92" unicode="&#x628;" horiz-adv-x="341" arabic-form="medial" 
d="M358 162v-152l-17 -10q-116 0 -157 68q-25 -35 -69.5 -51.5t-114.5 -16.5l-17 10v152l17 10q57 0 78.5 8.5t21.5 38.5v236h141v-233q0 -24 10 -34.5t29 -13t61 -2.5zM114 -99h116v-117h-116v117z" />
    <glyph glyph-name="uniFE94" unicode="&#x629;" horiz-adv-x="576" arabic-form="final" 
d="M593 168v-164l-17 -4q-80 0 -130 24t-73 84q-38 -68 -138 -68q-104 0 -155 65t-51 162q0 74 33.5 131t94.5 88.5t141 31.5q27 0 57 -7v44h138l-1 -306q0 -34 7 -50t24 -21.5t53 -5.5zM355 234v113q-27 5 -61 5q-60 0 -91 -21t-31 -56q0 -28 23 -45.5t67 -17.5q63 0 93 22
zM132 742h115v-117h-115v117zM289 742h114v-117h-114v117z" />
    <glyph glyph-name="uniFE96" unicode="&#x62a;" horiz-adv-x="984" arabic-form="final" 
d="M1001 162v-152l-17 -10q-64 0 -102.5 17t-57.5 53q-23 -36 -66 -53t-109 -17h-348q-154 0 -213 72t-59 193q0 41 9.5 86t22.5 79h136q-10 -28 -18.5 -69.5t-8.5 -69.5q0 -66 32.5 -92.5t109.5 -26.5h337q49 0 67 9t18 41v233h140v-230q0 -26 11.5 -37t32 -13.5t66.5 -2.5
zM325 578h115v-117h-115v117zM482 578h114v-117h-114v117z" />
    <glyph glyph-name="uniFE97" unicode="&#x62a;" horiz-adv-x="290" arabic-form="initial" 
d="M-17 162l17 10q56 0 76.5 8.5t20.5 38.5v236h141v-236q0 -114 -54 -166.5t-184 -52.5l-17 10v152zM33 656h115v-117h-115v117zM190 656h114v-117h-114v117z" />
    <glyph glyph-name="uniFE98" unicode="&#x62a;" horiz-adv-x="341" arabic-form="medial" 
d="M358 162v-152l-17 -10q-116 0 -157 68q-25 -35 -69.5 -51.5t-114.5 -16.5l-17 10v152l17 10q57 0 78.5 8.5t21.5 38.5v236h141v-233q0 -24 10 -34.5t29 -13t61 -2.5zM37 656h115v-117h-115v117zM194 656h114v-117h-114v117z" />
    <glyph glyph-name="uniFE9A" unicode="&#x62b;" horiz-adv-x="984" arabic-form="final" 
d="M1001 162v-152l-17 -10q-64 0 -102.5 17t-57.5 53q-23 -36 -66 -53t-109 -17h-348q-154 0 -213 72t-59 193q0 41 9.5 86t22.5 79h136q-10 -28 -18.5 -69.5t-8.5 -69.5q0 -66 32.5 -92.5t109.5 -26.5h337q49 0 67 9t18 41v233h140v-230q0 -26 11.5 -37t32 -13.5t66.5 -2.5
zM402 733h117v-116h-117v116zM323 578h114v-118h-114v118zM482 578h114v-118h-114v118z" />
    <glyph glyph-name="uniFE9B" unicode="&#x62b;" horiz-adv-x="290" arabic-form="initial" 
d="M-17 162l17 10q56 0 76.5 8.5t20.5 38.5v236h141v-236q0 -114 -54 -166.5t-184 -52.5l-17 10v152zM111 811h117v-116h-117v116zM32 656h114v-118h-114v118zM191 656h114v-118h-114v118z" />
    <glyph glyph-name="uniFE9C" unicode="&#x62b;" horiz-adv-x="341" arabic-form="medial" 
d="M358 162v-152l-17 -10q-116 0 -157 68q-25 -35 -69.5 -51.5t-114.5 -16.5l-17 10v152l17 10q57 0 78.5 8.5t21.5 38.5v236h141v-233q0 -24 10 -34.5t29 -13t61 -2.5zM115 811h117v-116h-117v116zM36 656h114v-118h-114v118zM195 656h114v-118h-114v118z" />
    <glyph glyph-name="uniFE9E" unicode="&#x62c;" horiz-adv-x="753" arabic-form="final" 
d="M770 162v-152l-17 -10q-99 0 -138 45q-43 -45 -130 -45h-228q-48 0 -66.5 -18.5t-18.5 -49.5q0 -36 26 -57.5t95 -21.5h174v-172h-172q-269 0 -269 248q0 243 233 243h229q24 0 24 20v34q0 81 -145 81q-103 0 -196 -26l-29 148q49 21 108 35.5t140 14.5q108 0 188 -46.5
t80 -176.5v-70q11 -10 31 -12t64 -2zM536 -292v112h112v-112h-112z" />
    <glyph glyph-name="uniFE9F" unicode="&#x62c;" horiz-adv-x="617" arabic-form="initial" 
d="M-17 168l17 4h430v51q0 85 -154 85q-104 0 -205 -33l-27 152q119 52 260 52q106 0 187.5 -48t81.5 -180v-82q0 -169 -153 -169h-420l-17 4v164zM213 -99h116v-117h-116v117z" />
    <glyph glyph-name="uniFEA0" unicode="&#x62c;" horiz-adv-x="657" arabic-form="medial" 
d="M674 162v-152l-17 -10q-88 0 -129 36q-37 -36 -108 -36h-420l-17 4v164l17 4h430v51q0 85 -154 85q-104 0 -205 -33l-27 152q119 52 260 52q106 0 187.5 -48t81.5 -180v-72q12 -5 30 -6t54 -1zM213 -99h116v-117h-116v117z" />
    <glyph glyph-name="uniFEA2" unicode="&#x62d;" horiz-adv-x="727" arabic-form="final" 
d="M744 162v-152l-17 -10q-88 0 -128 35q-44 -35 -119 -35h-223q-48 0 -66.5 -18.5t-18.5 -49.5q0 -36 26 -57.5t95 -21.5h242v-172h-240q-269 0 -269 248q0 243 233 243h224q24 0 24 20v34q0 81 -146 81q-103 0 -196 -26l-29 152q52 20 109.5 33t139.5 13
q107 0 187.5 -46.5t80.5 -176.5v-75v-5q17 -4 74 -4z" />
    <glyph glyph-name="uniFEA3" unicode="&#x62d;" horiz-adv-x="617" arabic-form="initial" 
d="M-17 168l17 4h430v51q0 85 -154 85q-104 0 -205 -33l-27 152q119 52 260 52q106 0 187.5 -48t81.5 -180v-82q0 -169 -153 -169h-420l-17 4v164z" />
    <glyph glyph-name="uniFEA4" unicode="&#x62d;" horiz-adv-x="657" arabic-form="medial" 
d="M674 162v-152l-17 -10q-88 0 -129 36q-37 -36 -108 -36h-420l-17 4v164l17 4h430v51q0 85 -154 85q-104 0 -205 -33l-27 152q119 52 260 52q106 0 187.5 -48t81.5 -180v-72q12 -5 30 -6t54 -1z" />
    <glyph glyph-name="uniFEA6" unicode="&#x62e;" horiz-adv-x="727" arabic-form="final" 
d="M744 162v-152l-17 -10q-88 0 -128 35q-44 -35 -119 -35h-223q-48 0 -66.5 -18.5t-18.5 -49.5q0 -36 26 -57.5t95 -21.5h242v-172h-240q-269 0 -269 248q0 243 233 243h224q24 0 24 20v34q0 81 -146 81q-103 0 -196 -26l-29 152q52 20 109.5 33t139.5 13
q107 0 187.5 -46.5t80.5 -176.5v-75v-5q17 -4 74 -4zM310 680h116v-117h-116v117z" />
    <glyph glyph-name="uniFEA7" unicode="&#x62e;" horiz-adv-x="617" arabic-form="initial" 
d="M-17 168l17 4h430v51q0 85 -154 85q-104 0 -205 -33l-27 152q119 52 260 52q106 0 187.5 -48t81.5 -180v-82q0 -169 -153 -169h-420l-17 4v164zM244 682h116v-117h-116v117z" />
    <glyph glyph-name="uniFEA8" unicode="&#x62e;" horiz-adv-x="657" arabic-form="medial" 
d="M674 162v-152l-17 -10q-88 0 -129 36q-37 -36 -108 -36h-420l-17 4v164l17 4h430v51q0 85 -154 85q-104 0 -205 -33l-27 152q119 52 260 52q106 0 187.5 -48t81.5 -180v-72q12 -5 30 -6t54 -1zM244 682h116v-117h-116v117z" />
    <glyph glyph-name="uniFEAA" unicode="&#x62f;" horiz-adv-x="596" arabic-form="final" 
d="M613 162v-152l-17 -10q-87 0 -122 41q-42 -41 -125 -41h-320v172h351v38q0 27 -20 45.5t-82.5 35.5t-188.5 35l26 163q168 -23 257 -57.5t121 -82t31 -118.5l-1 -48v-5q10 -4 30 -5t43 -1z" />
    <glyph glyph-name="uniFEAC" unicode="&#x630;" horiz-adv-x="596" arabic-form="final" 
d="M613 162v-152l-17 -10q-87 0 -122 41q-42 -41 -125 -41h-320v172h351v38q0 27 -20 45.5t-82.5 35.5t-188.5 35l26 163q168 -23 257 -57.5t121 -82t31 -118.5l-1 -48v-5q10 -4 30 -5t43 -1zM182 692h116v-117h-116v117z" />
    <glyph glyph-name="uniFEAE" unicode="&#x631;" horiz-adv-x="386" arabic-form="final" 
d="M403 162v-152l-17 -10q-61 0 -96 20v-20q0 -99 -44 -158t-155 -59h-101v172h97q36 0 49.5 9.5t13.5 34.5v456h140v-217h1v-21q0 -22 10 -31.5t28 -11.5t57 -2z" />
    <glyph glyph-name="uniFEB0" unicode="&#x632;" horiz-adv-x="386" arabic-form="final" 
d="M403 162v-152l-17 -10q-61 0 -96 20v-20q0 -99 -44 -158t-155 -59h-101v172h97q36 0 49.5 9.5t13.5 34.5v456h140v-217h1v-21q0 -22 10 -31.5t28 -11.5t57 -2zM159 656h116v-117h-116v117z" />
    <glyph glyph-name="uniFEB2" unicode="&#x633;" horiz-adv-x="1324" arabic-form="final" 
d="M1341 162v-152l-17 -10q-136 0 -174 64q-15 -31 -51 -47.5t-91 -16.5q-100 0 -135 55q-16 -25 -49 -40t-84 -15h-92q-20 -96 -95.5 -154t-216.5 -58q-167 0 -237 89t-70 228q0 59 11.5 121.5t25.5 97.5h138q-32 -108 -32 -199q0 -78 37.5 -121.5t135.5 -43.5
q96 0 133 30.5t37 88.5v314h140v-221h101q24 0 34.5 7t10.5 24v190h141v-212q25 -9 67 -9q38 0 55.5 8t17.5 26v248h140v-270q38 -12 102 -12z" />
    <glyph glyph-name="uniFEB3" unicode="&#x633;" horiz-adv-x="861" arabic-form="initial" 
d="M809 454v-249q-1 -102 -59 -153.5t-153 -51.5q-101 0 -138 54q-39 -54 -148 -54t-144 55q-33 -55 -127 -55h-40l-17 10v152l17 10h50q25 0 35.5 7t10.5 24v190h141v-214q32 -7 81 -7q37 0 53.5 7t16.5 24v190h141v-212q27 -9 70 -9q34 0 51 7.5t18 25.5v249h141z" />
    <glyph glyph-name="uniFEB4" unicode="&#x633;" horiz-adv-x="911" arabic-form="medial" 
d="M928 162v-152l-17 -10q-136 0 -174 64q-15 -31 -51 -47.5t-91 -16.5q-100 0 -135 56q-37 -56 -149 -56q-109 0 -144 55q-33 -55 -127 -55h-40l-17 10v152l17 10h50q25 0 35.5 7t10.5 24v190h141v-214q32 -7 81 -7q37 0 53.5 7t16.5 24v190h141v-212q25 -9 67 -9
q38 0 55 8t17 26v248h141v-270q38 -12 102 -12z" />
    <glyph glyph-name="uniFEB6" unicode="&#x634;" horiz-adv-x="1324" arabic-form="final" 
d="M1341 162v-152l-17 -10q-136 0 -174 64q-15 -31 -51 -47.5t-91 -16.5q-100 0 -135 55q-16 -25 -49 -40t-84 -15h-92q-20 -96 -95.5 -154t-216.5 -58q-167 0 -237 89t-70 228q0 59 11.5 121.5t25.5 97.5h138q-32 -108 -32 -199q0 -78 37.5 -121.5t135.5 -43.5
q96 0 133 30.5t37 88.5v314h140v-221h101q24 0 34.5 7t10.5 24v190h141v-212q25 -9 67 -9q38 0 55.5 8t17.5 26v248h140v-270q38 -12 102 -12zM813 763h117v-116h-117v116zM734 608h114v-118h-114v118zM893 608h114v-118h-114v118z" />
    <glyph glyph-name="uniFEB7" unicode="&#x634;" horiz-adv-x="861" arabic-form="initial" 
d="M809 454v-249q-1 -102 -59 -153.5t-153 -51.5q-101 0 -138 54q-39 -54 -148 -54t-144 55q-33 -55 -127 -55h-40l-17 10v152l17 10h50q25 0 35.5 7t10.5 24v190h141v-214q32 -7 81 -7q37 0 53.5 7t16.5 24v190h141v-212q27 -9 70 -9q34 0 51 7.5t18 25.5v249h141zM401 762
h117v-116h-117v116zM322 607h114v-118h-114v118zM481 607h114v-118h-114v118z" />
    <glyph glyph-name="uniFEB8" unicode="&#x634;" horiz-adv-x="911" arabic-form="medial" 
d="M928 162v-152l-17 -10q-136 0 -174 64q-15 -31 -51 -47.5t-91 -16.5q-100 0 -135 56q-37 -56 -149 -56q-109 0 -144 55q-33 -55 -127 -55h-40l-17 10v152l17 10h50q25 0 35.5 7t10.5 24v190h141v-214q32 -7 81 -7q37 0 53.5 7t16.5 24v190h141v-212q25 -9 67 -9
q38 0 55 8t17 26v248h141v-270q38 -12 102 -12zM400 763h117v-116h-117v116zM321 608h114v-118h-114v118zM480 608h114v-118h-114v118z" />
    <glyph glyph-name="uniFEBA" unicode="&#x635;" horiz-adv-x="1236" arabic-form="final" 
d="M1253 162v-152l-17 -10q-51 0 -83.5 13.5t-49.5 41.5q-64 -55 -189 -55h-266q-20 -96 -95.5 -154t-216.5 -58q-167 0 -237 89t-70 228q0 59 11.5 121.5t25.5 97.5h138q-32 -108 -32 -199q0 -78 37.5 -121.5t135.5 -43.5q96 0 133 30.5t37 88.5v365h140v-40l76 23
q89 28 139 40t96 12q95 0 151.5 -60t56.5 -176q0 -35 -6 -67q16 -4 68 -4zM1008.5 185q23.5 13 23.5 49q0 37 -24.5 55t-65.5 18q-42 0 -99.5 -13.5t-167.5 -43.5l-20 -6v-72h276q54 0 77.5 13z" />
    <glyph glyph-name="uniFEBB" unicode="&#x635;" horiz-adv-x="788" arabic-form="initial" 
d="M679.5 419q56.5 -60 56.5 -176q0 -125 -65.5 -184t-193.5 -59h-477l-17 15v141l17 16h79v277h141v-44l65 20q94 29 145.5 41.5t97.5 12.5q95 0 151.5 -60zM571 185q23 13 23 49q0 37 -24 55t-65 18t-95.5 -12.5t-156.5 -40.5l-33 -9v-73h274q54 0 77 13z" />
    <glyph glyph-name="uniFEBC" unicode="&#x635;" horiz-adv-x="793" arabic-form="medial" 
d="M810 162v-152l-17 -10q-50 0 -82 13t-49 39q-62 -52 -185 -52h-477l-17 15v141l17 16h79v277h141v-44l65 20q94 29 145.5 41.5t97.5 12.5q95 0 151.5 -60t56.5 -176q0 -36 -6 -68q15 -3 63 -3zM571 185q23 13 23 49q0 37 -24 55t-65 18t-95.5 -12.5t-156.5 -40.5l-33 -9
v-73h274q54 0 77 13z" />
    <glyph glyph-name="uniFEBE" unicode="&#x636;" horiz-adv-x="1236" arabic-form="final" 
d="M1253 162v-152l-17 -10q-51 0 -83.5 13.5t-49.5 41.5q-64 -55 -189 -55h-266q-20 -96 -95.5 -154t-216.5 -58q-167 0 -237 89t-70 228q0 59 11.5 121.5t25.5 97.5h138q-32 -108 -32 -199q0 -78 37.5 -121.5t135.5 -43.5q96 0 133 30.5t37 88.5v365h140v-40l76 23
q89 28 139 40t96 12q95 0 151.5 -60t56.5 -176q0 -35 -6 -67q16 -4 68 -4zM1008.5 185q23.5 13 23.5 49q0 37 -24.5 55t-65.5 18q-42 0 -99.5 -13.5t-167.5 -43.5l-20 -6v-72h276q54 0 77.5 13zM643 644h116v-117h-116v117z" />
    <glyph glyph-name="uniFEBF" unicode="&#x636;" horiz-adv-x="788" arabic-form="initial" 
d="M679.5 419q56.5 -60 56.5 -176q0 -125 -65.5 -184t-193.5 -59h-477l-17 15v141l17 16h79v277h141v-44l65 20q94 29 145.5 41.5t97.5 12.5q95 0 151.5 -60zM571 185q23 13 23 49q0 37 -24 55t-65 18t-95.5 -12.5t-156.5 -40.5l-33 -9v-73h274q54 0 77 13zM217 644h116
v-117h-116v117z" />
    <glyph glyph-name="uniFEC0" unicode="&#x636;" horiz-adv-x="793" arabic-form="medial" 
d="M810 162v-152l-17 -10q-50 0 -82 13t-49 39q-62 -52 -185 -52h-477l-17 15v141l17 16h79v277h141v-44l65 20q94 29 145.5 41.5t97.5 12.5q95 0 151.5 -60t56.5 -176q0 -36 -6 -68q15 -3 63 -3zM571 185q23 13 23 49q0 37 -24 55t-65 18t-95.5 -12.5t-156.5 -40.5l-33 -9
v-73h274q54 0 77 13zM216 644h116v-117h-116v117z" />
    <glyph glyph-name="uniFEC2" unicode="&#x637;" horiz-adv-x="810" arabic-form="final" 
d="M827 162v-152l-17 -10q-51 0 -83 13.5t-49 40.5q-64 -54 -188 -54h-466v172h85v552h141v-315q98 33 167.5 51.5t121.5 18.5q96 0 153 -60.5t57 -177.5q0 -32 -5 -65q15 -4 66 -4zM584 184.5q23 12.5 23 47.5q0 38 -24 56.5t-65 18.5q-39 0 -94.5 -11.5t-148.5 -36.5
l-25 -6v-81h257q54 0 77 12.5z" />
    <glyph glyph-name="uniFEC3" unicode="&#x637;" horiz-adv-x="773" arabic-form="initial" 
d="M664 418.5q57 -60.5 57 -177.5q0 -124 -65.5 -182.5t-193.5 -58.5h-462l-17 10v152l17 10h81v552h140v-315q97 32 167 51t122 19q97 0 154 -60.5zM555.5 184.5q23.5 12.5 23.5 47.5q0 38 -24.5 56.5t-65.5 18.5q-39 0 -94.5 -11.5t-148.5 -36.5l-25 -6v-81h257
q54 0 77.5 12.5z" />
    <glyph glyph-name="uniFEC4" unicode="&#x637;" horiz-adv-x="778" arabic-form="medial" 
d="M795 162v-152l-17 -10q-50 0 -82 13t-49 39q-62 -52 -185 -52h-462l-17 10v152l17 10h81v552h140v-315q97 32 167 51t122 19q97 0 154 -60.5t57 -177.5q0 -36 -6 -66q16 -3 63 -3zM555.5 184.5q23.5 12.5 23.5 47.5q0 38 -24.5 56.5t-65.5 18.5q-39 0 -94.5 -11.5
t-148.5 -36.5l-25 -6v-81h257q54 0 77.5 12.5z" />
    <glyph glyph-name="uniFEC6" unicode="&#x638;" horiz-adv-x="810" arabic-form="final" 
d="M827 162v-152l-17 -10q-51 0 -83 13.5t-49 40.5q-64 -54 -188 -54h-466v172h85v552h141v-315q98 33 167.5 51.5t121.5 18.5q96 0 153 -60.5t57 -177.5q0 -32 -5 -65q15 -4 66 -4zM584 184.5q23 12.5 23 47.5q0 38 -24 56.5t-65 18.5q-39 0 -94.5 -11.5t-148.5 -36.5
l-25 -6v-81h257q54 0 77 12.5zM424 684h116v-117h-116v117z" />
    <glyph glyph-name="uniFEC7" unicode="&#x638;" horiz-adv-x="773" arabic-form="initial" 
d="M664 418.5q57 -60.5 57 -177.5q0 -124 -65.5 -182.5t-193.5 -58.5h-462l-17 10v152l17 10h81v552h140v-315q97 32 167 51t122 19q97 0 154 -60.5zM555.5 184.5q23.5 12.5 23.5 47.5q0 38 -24.5 56.5t-65.5 18.5q-39 0 -94.5 -11.5t-148.5 -36.5l-25 -6v-81h257
q54 0 77.5 12.5zM389 678h116v-117h-116v117z" />
    <glyph glyph-name="uniFEC8" unicode="&#x638;" horiz-adv-x="778" arabic-form="medial" 
d="M795 162v-152l-17 -10q-50 0 -82 13t-49 39q-62 -52 -185 -52h-462l-17 10v152l17 10h81v552h140v-315q97 32 167 51t122 19q97 0 154 -60.5t57 -177.5q0 -36 -6 -66q16 -3 63 -3zM555.5 184.5q23.5 12.5 23.5 47.5q0 38 -24.5 56.5t-65.5 18.5q-39 0 -94.5 -11.5
t-148.5 -36.5l-25 -6v-81h257q54 0 77.5 12.5zM388 678h116v-117h-116v117z" />
    <glyph glyph-name="uniFECA" unicode="&#x639;" horiz-adv-x="614" arabic-form="final" 
d="M631 168v-164l-17 -4q-125 0 -188.5 9t-101.5 35q-56 -12 -89 -24t-52 -31.5t-19 -51.5q0 -38 30 -61t109 -23h253v-172h-264q-149 0 -211.5 65t-62.5 187q0 86 45 142.5t122 80.5l-117 122v166q38 15 104 26t147 11q154 0 252 -37v-161l-102 -111h145zM199 311l120 -125
l118 126q-54 8 -118 8q-61 0 -120 -9z" />
    <glyph glyph-name="uniFECB" unicode="&#x639;" horiz-adv-x="547" arabic-form="initial" 
d="M507 172v-172h-507l-17 3v165l17 4h61q-19 37 -19 91q0 110 72.5 164.5t187.5 54.5q50 0 97.5 -9t71.5 -20l-27 -159q-67 16 -139 16q-59 0 -88 -17t-29 -49q0 -37 28 -54.5t98 -17.5h193z" />
    <glyph glyph-name="uniFECC" unicode="&#x639;" horiz-adv-x="589" arabic-form="medial" 
d="M606 168v-164l-17 -4q-130 0 -193 13t-101 50q-39 -37 -102 -50t-193 -13l-17 4v164l17 4h137l-94 107v166q39 15 104 26t148 11q153 0 251 -37v-161l-95 -112h138zM175 311l119 -129l119 130q-53 8 -118 8q-61 0 -120 -9z" />
    <glyph glyph-name="uniFECE" unicode="&#x63a;" horiz-adv-x="614" arabic-form="final" 
d="M631 168v-164l-17 -4q-125 0 -188.5 9t-101.5 35q-56 -12 -89 -24t-52 -31.5t-19 -51.5q0 -38 30 -61t109 -23h253v-172h-264q-149 0 -211.5 65t-62.5 187q0 86 45 142.5t122 80.5l-117 122v166q38 15 104 26t147 11q154 0 252 -37v-161l-102 -111h145zM199 311l120 -125
l118 126q-54 8 -118 8q-61 0 -120 -9zM260 683h116v-117h-116v117z" />
    <glyph glyph-name="uniFECF" unicode="&#x63a;" horiz-adv-x="547" arabic-form="initial" 
d="M507 172v-172h-507l-17 3v165l17 4h61q-19 37 -19 91q0 110 72.5 164.5t187.5 54.5q50 0 97.5 -9t71.5 -20l-27 -159q-67 16 -139 16q-59 0 -88 -17t-29 -49q0 -37 28 -54.5t98 -17.5h193zM217 686h116v-117h-116v117z" />
    <glyph glyph-name="uniFED0" unicode="&#x63a;" horiz-adv-x="589" arabic-form="medial" 
d="M606 168v-164l-17 -4q-130 0 -193 13t-101 50q-39 -37 -102 -50t-193 -13l-17 4v164l17 4h137l-94 107v166q39 15 104 26t148 11q153 0 251 -37v-161l-95 -112h138zM175 311l119 -129l119 130q-53 8 -118 8q-61 0 -120 -9zM235 683h116v-117h-116v117z" />
    <glyph glyph-name="uniFED2" unicode="&#x641;" horiz-adv-x="1036" arabic-form="final" 
d="M1053 167v-162l-17 -5h-734q-154 0 -213.5 77t-59.5 204q0 45 10 94.5t24 89.5h141q-11 -32 -20 -79t-9 -79q0 -76 31.5 -105.5t106.5 -29.5h244q-34 44 -34 105q0 112 64.5 172.5t170.5 60.5q104 0 162 -57t58 -162q0 -68 -40 -119h98zM689 321q-23 -17 -23 -51
q0 -25 18 -48t71 -56q50 32 65 55t15 49q0 33 -23 50.5t-61 17.5q-39 0 -62 -17zM689 719h116v-117h-116v117z" />
    <glyph glyph-name="uniFED3" unicode="&#x641;" horiz-adv-x="538" arabic-form="initial" 
d="M393 624.5q54 -15.5 93 -37.5v-350q0 -109 -53 -173t-169 -64h-264l-17 10v152l17 10h265q44 0 61.5 12t17.5 44v44q-37 -51 -128 -51q-93 0 -139.5 52.5t-46.5 129.5q0 70 31 123.5t88 83.5t132 30q58 0 112 -15.5zM344 386v72q-31 18 -75 18q-48 0 -72 -16.5t-24 -44.5
q0 -23 20.5 -38t61.5 -15q62 0 89 24zM221 835h116v-117h-116v117z" />
    <glyph glyph-name="uniFED4" unicode="&#x641;" horiz-adv-x="562" arabic-form="medial" 
d="M579 167v-162l-17 -5h-562l-17 5v162l17 5h83q-35 45 -35 105q0 112 64.5 172.5t170.5 60.5q105 0 163 -57t58 -162q0 -68 -41 -119h99zM214 320.5q-23 -17.5 -23 -50.5q0 -25 18 -48t71 -56q51 32 66 55t15 49q0 33 -23.5 50.5t-61.5 17.5q-39 0 -62 -17.5zM223 714h116
v-117h-116v117z" />
    <glyph glyph-name="uniFED6" unicode="&#x642;" horiz-adv-x="891" arabic-form="final" 
d="M908 162v-152l-17 -10h-85v-8q0 -109 -56 -164t-185 -55h-220q-128 0 -196.5 33.5t-94 100.5t-25.5 181q0 55 11.5 109t25.5 86h138q-13 -38 -22.5 -89t-9.5 -99q0 -57 13.5 -90.5t51 -50.5t108.5 -17h234q48 0 67.5 12t19.5 46v16h-119q-111 0 -160.5 59t-49.5 150
q0 76 34 135t96 91.5t144 32.5q55 0 106.5 -15.5t88.5 -37.5v-254h85zM666 172v117q-33 18 -80 18q-53 0 -79.5 -19t-26.5 -52q0 -30 22.5 -47t68.5 -17h95zM454 679h115v-117h-115v117zM611 679h114v-117h-114v117z" />
    <glyph glyph-name="uniFED7" unicode="&#x642;" horiz-adv-x="538" arabic-form="initial" 
d="M393 624.5q54 -15.5 93 -37.5v-350q0 -109 -53 -173t-169 -64h-264l-17 10v152l17 10h265q44 0 61.5 12t17.5 44v44q-37 -51 -128 -51q-93 0 -139.5 52.5t-46.5 129.5q0 70 31 123.5t88 83.5t132 30q58 0 112 -15.5zM344 386v72q-31 18 -75 18q-48 0 -72 -16.5t-24 -44.5
q0 -23 20.5 -38t61.5 -15q62 0 89 24zM147 836h115v-117h-115v117zM304 836h114v-117h-114v117z" />
    <glyph glyph-name="uniFED8" unicode="&#x642;" horiz-adv-x="562" arabic-form="medial" 
d="M579 167v-162l-17 -5h-562l-17 5v162l17 5h83q-35 45 -35 105q0 112 64.5 172.5t170.5 60.5q105 0 163 -57t58 -162q0 -68 -41 -119h99zM214 320.5q-23 -17.5 -23 -50.5q0 -25 18 -48t71 -56q51 32 66 55t15 49q0 33 -23.5 50.5t-61.5 17.5q-39 0 -62 -17.5zM148 714h115
v-117h-115v117zM305 714h114v-117h-114v117z" />
    <glyph glyph-name="uniFEDA" unicode="&#x643;" horiz-adv-x="923" arabic-form="final" 
d="M940 162v-152l-17 -10q-56 0 -89 15.5t-49 48.5q-52 -64 -186 -64h-299q-154 0 -212.5 72t-58.5 193q0 41 9.5 86t22.5 79h136q-10 -28 -18.5 -69.5t-8.5 -69.5q0 -66 32.5 -92.5t109.5 -26.5h290q44 0 64.5 9.5t20.5 40.5v502h141v-507q0 -22 10 -31.5t28 -11.5t57 -2z
M449 303h-130v93h129q16 0 26.5 3.5t10.5 10.5q0 14 -29 23t-115 9l-6 113l203 83l18 -86l-108 -37q57 -8 87.5 -33t30.5 -72q0 -107 -117 -107z" />
    <glyph glyph-name="uniFEDB" unicode="&#x643;" horiz-adv-x="638" arabic-form="initial" 
d="M539.5 387.5q54.5 -59.5 54.5 -165.5v-49q0 -173 -157 -173h-437l-17 4v164l17 4h451v43q0 42 -24 63.5t-88 21.5h-278l-28 159l393 287l77 -118l-271 -181h115q138 0 192.5 -59.5z" />
    <glyph glyph-name="uniFEDC" unicode="&#x643;" horiz-adv-x="671" arabic-form="medial" 
d="M688 162v-152l-17 -10q-85 0 -121 39q-39 -39 -113 -39h-437l-17 4v164l17 4h451v43q0 42 -24 63.5t-88 21.5h-278l-28 159l393 287l77 -118l-271 -181h115q138 0 192.5 -59.5t54.5 -165.5v-42q10 -5 27 -6.5t50 -1.5z" />
    <glyph glyph-name="uniFEDE" unicode="&#x644;" horiz-adv-x="724" arabic-form="final" 
d="M741 162v-152l-17 -10q-73 0 -110 29q-25 -83 -95.5 -132t-192.5 -49q-162 0 -229.5 89t-67.5 228q0 59 12.5 121.5t27.5 97.5h135q-32 -108 -32 -199q0 -78 35.5 -121.5t127.5 -43.5q86 0 119 30.5t33 88.5v574h141v-475h1v-21q0 -22 10 -31.5t28 -11.5t57 -2z" />
    <glyph glyph-name="uniFEDF" unicode="&#x644;" horiz-adv-x="281" arabic-form="initial" 
d="M-17 162l17 10q46 0 63.5 9t17.5 39v493h141v-491q0 -116 -52.5 -169t-169.5 -53l-17 10v152z" />
    <glyph glyph-name="uniFEE0" unicode="&#x644;" horiz-adv-x="317" arabic-form="medial" 
d="M334 162v-152l-17 -10q-56 0 -89 15.5t-49 48.5q-51 -64 -179 -64l-17 10v152l17 10q46 0 63.5 9t17.5 39v493h141v-496q0 -22 10 -31.5t28 -11.5t57 -2z" />
    <glyph glyph-name="uniFEE2" unicode="&#x645;" horiz-adv-x="809" arabic-form="final" 
d="M826 162v-152l-17 -10q-52 0 -84 14t-49 42q-60 -81 -199 -81q-124 0 -186 80h-57q-39 0 -51 -11t-12 -48v-295h-141v317q0 105 49.5 155.5t165.5 52.5q4 75 38 132.5t93 89t135 31.5q57 0 110.5 -13.5t92.5 -33.5v-215q0 -22 10 -31.5t28 -11.5t57 -2zM574 289
q-33 18 -79 18q-53 0 -80 -23t-27 -62q0 -34 24.5 -54.5t72.5 -20.5q35 0 57 10.5t31 28.5z" />
    <glyph glyph-name="uniFEE3" unicode="&#x645;" horiz-adv-x="579" arabic-form="initial" 
d="M435.5 465.5q53.5 -13.5 92.5 -33.5v-239q0 -84 -55.5 -143.5t-181.5 -59.5q-104 0 -165 56q-21 -24 -51 -35t-75 -11l-17 10v152l17 10q39 0 62 3q-3 21 -3 41q0 78 33 137.5t93 92.5t140 33q57 0 110.5 -13.5zM388 289q-33 18 -80 18q-52 0 -79 -21t-27 -56
q0 -30 24.5 -49t72.5 -19q68 0 88 33z" />
    <glyph glyph-name="uniFEE4" unicode="&#x645;" horiz-adv-x="623" arabic-form="medial" 
d="M640 162v-152l-17 -10q-56 0 -89 15.5t-49 48.5q-60 -74 -194 -74q-104 0 -165 56q-21 -24 -51 -35t-75 -11l-17 10v152l17 10q39 0 62 3q-3 21 -3 41q0 78 33 137.5t93 92.5t140 33q57 0 110.5 -13.5t92.5 -33.5v-215q0 -22 10 -31.5t28 -11.5t57 -2zM388 289
q-33 18 -80 18q-52 0 -79 -21t-27 -56q0 -30 24.5 -49t72.5 -19q68 0 88 33z" />
    <glyph glyph-name="uniFEE6" unicode="&#x646;" horiz-adv-x="751" arabic-form="final" 
d="M768 162v-152l-17 -10q-63 0 -99 21q-13 -107 -89.5 -172t-226.5 -65q-167 0 -237 89t-70 227q0 60 11.5 122t25.5 98h138q-32 -108 -32 -199q0 -78 37.5 -121.5t135.5 -43.5q96 0 133 30.5t37 87.5v381h140v-217h1v-21q0 -22 10 -31.5t28 -11.5t57 -2zM287 550h116v-117
h-116v117z" />
    <glyph glyph-name="uniFEE7" unicode="&#x646;" horiz-adv-x="290" arabic-form="initial" 
d="M-17 162l17 10q56 0 76.5 8.5t20.5 38.5v236h141v-236q0 -114 -54 -166.5t-184 -52.5l-17 10v152zM108 656h116v-117h-116v117z" />
    <glyph glyph-name="uniFEE8" unicode="&#x646;" horiz-adv-x="341" arabic-form="medial" 
d="M358 162v-152l-17 -10q-116 0 -157 68q-25 -35 -69.5 -51.5t-114.5 -16.5l-17 10v152l17 10q57 0 78.5 8.5t21.5 38.5v236h141v-233q0 -24 10 -34.5t29 -13t61 -2.5zM112 656h116v-117h-116v117z" />
    <glyph glyph-name="uniFEEA" unicode="&#x647;" horiz-adv-x="576" arabic-form="final" 
d="M593 168v-164l-17 -4q-80 0 -130 24t-73 84q-38 -68 -138 -68q-104 0 -155 65t-51 162q0 74 33.5 131t94.5 88.5t141 31.5q27 0 57 -7v44h138l-1 -306q0 -34 7 -50t24 -21.5t53 -5.5zM355 234v113q-27 5 -61 5q-60 0 -91 -21t-31 -56q0 -28 23 -45.5t67 -17.5q63 0 93 22
z" />
    <glyph glyph-name="uniFEEB" unicode="&#x647;" horiz-adv-x="757" arabic-form="initial" 
d="M468.5 513.5q112.5 -42.5 174.5 -104.5t62 -158q0 -120 -64.5 -185.5t-224.5 -65.5q-94 0 -173 30q-40 -18 -102 -24t-141 -6l-17 5v162l17 5h60q-23 44 -23 92q0 60 26.5 107t73.5 75l-17 4l38 155q198 -49 310.5 -91.5zM319 351q-16 8 -49 8q-43 0 -69 -22t-26 -60
q0 -45 35 -69t109 -32v175zM536 190.5q29 16.5 29 56.5q0 35 -26.5 59.5t-93.5 49.5v-184q62 2 91 18.5z" />
    <glyph glyph-name="uniFEEC" unicode="&#x647;" horiz-adv-x="605" arabic-form="medial" 
d="M622 168v-164l-17 -4h-49q3 -11 3 -22q0 -93 -60 -152t-186 -59q-120 0 -184.5 58t-68.5 175h-60l-17 4v164l17 4h60v259q63 22 117.5 35t120.5 13q69 0 119 -26.5t76 -73t26 -106.5q0 -63 -26 -101h112zM198 292v-120h65q67 0 93 16.5t26 50.5q0 30 -23 49t-69 19
q-59 0 -92 -15zM398.5 -51q22.5 13 22.5 33q0 46 -91 46l-131 -1q1 -51 30 -71t97 -20q50 0 72.5 13z" />
    <glyph glyph-name="uniFEEE" unicode="&#x648;" horiz-adv-x="573" arabic-form="final" 
d="M590 162v-152l-17 -10h-80v-11q0 -103 -50 -154.5t-164 -51.5h-228v164h242q34 0 47 9t13 35v20h-115q-115 0 -164.5 57.5t-49.5 149.5q0 77 34 136t96 92t144 33q55 0 106.5 -15.5t88.5 -37.5v-254h80zM353 172v117q-7 5 -28 11.5t-52 6.5q-52 0 -79 -20t-27 -53
q0 -29 23 -45.5t72 -16.5h91z" />
    <glyph glyph-name="uniFEF0" unicode="&#x649;" horiz-adv-x="785" arabic-form="final" 
d="M802 162v-152l-17 -10h-37v-13q0 -235 -352 -235q-147 0 -228 44t-110 119t-29 185q0 59 10 119.5t23 92.5h138q-9 -32 -18.5 -86.5t-9.5 -112.5q0 -74 21 -113t70.5 -54.5t142.5 -15.5q84 0 127.5 7.5t57.5 20.5t14 32v18h-151v164h331z" />
    <glyph glyph-name="uniFEF2" unicode="&#x64a;" horiz-adv-x="785" arabic-form="final" 
d="M802 162v-152l-17 -10h-37v-13q0 -235 -352 -235q-147 0 -228 44t-110 119t-29 185q0 59 10 119.5t23 92.5h138q-9 -32 -18.5 -86.5t-9.5 -112.5q0 -74 21 -113t70.5 -54.5t142.5 -15.5q84 0 127.5 7.5t57.5 20.5t14 32v18h-151v164h331zM276 -324h115v-117h-115v117z
M433 -324h114v-117h-114v117z" />
    <glyph glyph-name="uniFEF3" unicode="&#x64a;" horiz-adv-x="298" arabic-form="initial" 
d="M-17 162l17 10q56 0 76.5 8.5t20.5 38.5v236h141v-236q0 -114 -54 -166.5t-184 -52.5l-17 10v152zM13 -96h115v-117h-115v117zM170 -96h114v-117h-114v117z" />
    <glyph glyph-name="uniFEF4" unicode="&#x64a;" horiz-adv-x="341" arabic-form="medial" 
d="M358 162v-152l-17 -10q-116 0 -157 68q-25 -35 -69.5 -51.5t-114.5 -16.5l-17 10v152l17 10q57 0 78.5 8.5t21.5 38.5v236h141v-233q0 -24 10 -34.5t29 -13t61 -2.5zM42 -96h115v-117h-115v117zM199 -96h114v-117h-114v117z" />
    <glyph glyph-name=".notdef" horiz-adv-x="850" 
d="M53 750h743v-750h-743v750zM683 108v534h-516v-534h516zM421 302l-104 -104l-67 69l102 103l-102 104l67 69l104 -104l103 103l68 -68l-102 -104l102 -103l-68 -68z" />
    <glyph glyph-name=".null" 
 />
    <glyph glyph-name="nonmarkingreturn" horiz-adv-x="333" 
 />
    <glyph glyph-name="space" unicode=" " horiz-adv-x="222" 
 />
    <glyph glyph-name="exclam" unicode="!" horiz-adv-x="293" 
d="M89 234l-39 516h193l-39 -516h-115zM62 0v154h170v-154h-170z" />
    <glyph glyph-name="quotedbl" unicode="&#x22;" horiz-adv-x="465" 
d="M76 447l-21 303h152l-21 -303h-110zM279 447l-20 303h152l-21 -303h-111z" />
    <glyph glyph-name="numbersign" unicode="#" horiz-adv-x="890" 
d="M857 488h-166l-66 -193h178v-92h-209l-69 -203h-102l69 203h-217l-69 -203h-103l69 203h-139v92h170l66 193h-180v92h211l58 170h102l-58 -170h217l58 170h103l-58 -170h135v-92zM523 295l65 193h-217l-65 -193h217z" />
    <glyph glyph-name="dollar" unicode="$" horiz-adv-x="658" 
d="M564 59.5q-70 -64.5 -191 -72.5v-98h-70v98q-124 10 -197 80.5t-77 185.5h173q3 -59 41 -92.5t102 -33.5q54 0 87.5 25t33.5 65q0 48 -34.5 70t-119.5 29q-128 11 -194 66.5t-66 153.5q0 65 31 115t87.5 79t131.5 33v97h71v-98q111 -11 174 -72.5t70 -165.5h-171
q-11 101 -119 101q-49 0 -78 -21.5t-29 -57.5q0 -46 34.5 -66.5t120.5 -25.5q259 -17 259 -225q0 -105 -70 -169.5z" />
    <glyph glyph-name="percent" unicode="%" horiz-adv-x="726" 
d="M63.5 518.5q-41.5 40.5 -41.5 102.5t41.5 102.5t107.5 40.5t108 -40.5t42 -102.5t-42 -102.5t-108 -40.5t-107.5 40.5zM557 750h118l-509 -750h-112zM213.5 579q16.5 17 16.5 42t-16.5 41.5t-42.5 16.5t-42.5 -16.5t-16.5 -41.5t16.5 -42t42.5 -17t42.5 17zM446.5 26
q-41.5 40 -41.5 103q0 61 42 101.5t107 40.5q67 0 109 -40.5t42 -101.5q0 -63 -42 -103t-109 -40q-66 0 -107.5 40zM597 86.5q17 16.5 17 42.5q0 24 -17 41t-43 17t-42.5 -17t-16.5 -41q0 -26 16.5 -42.5t42.5 -16.5t43 16.5z" />
    <glyph glyph-name="ampersand" unicode="&#x26;" horiz-adv-x="762" 
d="M649 261q-22 -58 -56 -107l129 -154h-189l-43 50q-94 -64 -218 -64q-112 0 -177.5 51.5t-65.5 142.5q0 67 38 118.5t119 101.5q-34 43 -50.5 82t-16.5 86q0 56 27.5 100.5t76 70t110.5 25.5q64 0 112 -25t74 -67.5t25 -93.5q0 -60 -35.5 -105.5t-105.5 -93.5l94 -111
q29 54 45 123h197v-130h-90zM298 604q-14 -15 -14 -39q0 -41 37 -88q37 23 51 43.5t14 45.5q0 24 -13 38.5t-37 14.5t-38 -15zM396 157l-122 141q-43 -28 -60.5 -50t-17.5 -48q0 -35 24.5 -53.5t68.5 -18.5q60 0 107 29z" />
    <glyph glyph-name="quotesingle" unicode="'" horiz-adv-x="265" 
d="M76 447l-21 303h155l-20 -303h-114z" />
    <glyph glyph-name="parenleft" unicode="(" horiz-adv-x="341" 
d="M112.5 61.5q-52.5 119.5 -52.5 263.5q0 147 52 265.5t120 189.5h124q-66 -74 -115 -194.5t-49 -260.5q0 -138 49 -258.5t115 -194.5h-124q-67 70 -119.5 189.5z" />
    <glyph glyph-name="parenright" unicode=")" horiz-adv-x="341" 
d="M99 66.5q49 120.5 49 258.5q0 140 -49 260.5t-115 194.5h125q68 -70 119.5 -189t51.5 -266q0 -145 -52 -264t-119 -189h-125q66 74 115 194.5z" />
    <glyph glyph-name="asterisk" unicode="*" horiz-adv-x="327" 
d="M307 677l-95 -49l94 -49l-29 -49l-89 56l5 -105h-62l8 105l-90 -56l-29 51l99 46l-97 50l27 48l90 -57l-5 104h62l-8 -104l93 55z" />
    <glyph glyph-name="plus" unicode="+" horiz-adv-x="610" 
d="M519 412v-111h-159v-158h-110v158h-159v111h159v159h110v-159h159z" />
    <glyph glyph-name="comma" unicode="," horiz-adv-x="300" 
d="M17 -143l70 303h172l-120 -303h-122z" />
    <glyph glyph-name="hyphen" unicode="-" horiz-adv-x="448" 
d="M64 212v110h320v-110h-320z" />
    <glyph glyph-name="period" unicode="." horiz-adv-x="253" 
d="M49 0v160h155v-160h-155z" />
    <glyph glyph-name="slash" unicode="/" horiz-adv-x="394" 
d="M45 0l258 750h60l-259 -750h-59z" />
    <glyph glyph-name="zero" unicode="0" horiz-adv-x="607" 
d="M538.5 118q-32.5 -62 -93.5 -97t-142 -35t-141.5 35t-93 97t-32.5 141v232q0 78 33 140t93.5 97.5t140.5 35.5q81 0 142 -35.5t93.5 -97.5t32.5 -140v-232q0 -79 -32.5 -141zM228.5 170.5q25.5 -30.5 74.5 -30.5q50 0 75.5 30t25.5 84v242q0 53 -25.5 83.5t-75.5 30.5
q-48 0 -74 -31t-26 -83v-242q0 -53 25.5 -83.5z" />
    <glyph glyph-name="one" unicode="1" horiz-adv-x="404" 
d="M203 750h146v-750h-170v577l-157 -62v159z" />
    <glyph glyph-name="two" unicode="2" horiz-adv-x="575" 
d="M547 154v-154h-514v120l284 311q27 29 37 51t10 46q0 36 -21 58.5t-61 22.5q-41 0 -63 -25t-22 -60v-11h-163v11q0 69 30 123.5t88 85.5t139 31q76 0 131.5 -30t84 -81.5t28.5 -115.5q0 -53 -21.5 -98.5t-72.5 -101.5l-166 -183h272z" />
    <glyph glyph-name="three" unicode="3" horiz-adv-x="588" 
d="M532.5 331.5q26.5 -49.5 26.5 -105.5q0 -68 -34 -122.5t-95.5 -86t-139.5 -31.5q-77 0 -137.5 31t-94.5 85t-34 120q0 12 4 32h165q-2 -16 -2 -17q0 -44 28 -72.5t72 -28.5t72.5 28t28.5 73q0 43 -28.5 71.5t-71.5 28.5h-51v133h51q34 0 55.5 21.5t21.5 56.5q0 34 -22 56
t-56 22q-33 0 -55 -22t-22 -56q0 -8 1 -12h-154q-1 6 -1 25q0 57 29.5 103.5t82 73t118.5 26.5q68 0 121 -27t82.5 -74.5t29.5 -106.5q0 -42 -16.5 -79t-47.5 -65q47 -31 73.5 -80.5z" />
    <glyph glyph-name="four" unicode="4" horiz-adv-x="639" 
d="M621 322v-135h-92v-187h-171v187h-332v120l332 443h171v-428h92zM204 322h154v208z" />
    <glyph glyph-name="five" unicode="5" horiz-adv-x="590" 
d="M160 16.5q-60 30.5 -94 83t-34 117.5q0 21 4 36h163q-2 -9 -2 -18q0 -44 28.5 -71.5t72.5 -27.5q46 0 74.5 30t28.5 79q0 50 -28.5 79.5t-74.5 29.5q-26 0 -49.5 -11t-36.5 -27h-168l61 434h418v-155h-287l-22 -151q18 18 52.5 30.5t74.5 12.5q66 0 117 -30.5t79.5 -86.5
t28.5 -129q0 -74 -33.5 -132t-95 -90.5t-141.5 -32.5q-76 0 -136 30.5z" />
    <glyph glyph-name="six" unicode="6" horiz-adv-x="594" 
d="M458.5 445q55.5 -34 86 -88t30.5 -117q0 -73 -35.5 -131t-98.5 -90.5t-142 -32.5t-141.5 32t-98 88.5t-35.5 127.5q0 64 35 126l223 390h205l-157 -268q73 -3 128.5 -37zM377.5 165q30.5 28 30.5 74q0 45 -30.5 74.5t-78.5 29.5q-46 0 -77 -30t-31 -74q0 -45 30.5 -73.5
t77.5 -28.5q48 0 78.5 28z" />
    <glyph glyph-name="seven" unicode="7" horiz-adv-x="573" 
d="M25 750h525v-139l-272 -611h-186l277 595h-344v155z" />
    <glyph glyph-name="eight" unicode="8" horiz-adv-x="593" 
d="M537 331q27 -49 27 -105q0 -67 -34 -122t-95 -86.5t-139 -31.5q-77 0 -138 31.5t-95 86.5t-34 122q0 56 26.5 105t73.5 81q-31 28 -47.5 65t-16.5 79q0 59 29 106.5t82 74.5t120 27q68 0 120.5 -27t82 -74.5t29.5 -106.5q0 -43 -16.5 -79.5t-48.5 -64.5q47 -32 74 -81z
M238 604.5q-23 -22.5 -23 -56.5q0 -36 23 -58.5t58 -22.5q37 0 60 22.5t23 58.5q0 35 -23 57t-60 22q-35 0 -58 -22.5zM372.5 163.5q29.5 28.5 29.5 73.5q0 44 -30 73t-76 29q-45 0 -74.5 -29.5t-29.5 -72.5q0 -45 29 -73.5t75 -28.5q47 0 76.5 28.5z" />
    <glyph glyph-name="nine" unicode="9" horiz-adv-x="591" 
d="M438.5 732q62.5 -32 98 -88.5t35.5 -127.5q0 -64 -35 -126l-223 -390h-203l157 268q-74 3 -130 36.5t-86 88t-30 117.5q0 73 35 131t98 90.5t142 32.5t141.5 -32zM375 437q31 30 31 74q0 45 -30.5 73.5t-78.5 28.5t-78.5 -28t-30.5 -74q0 -45 30.5 -74.5t78.5 -29.5
q47 0 78 30z" />
    <glyph glyph-name="colon" unicode=":" horiz-adv-x="270" 
d="M58 356v160h154v-160h-154zM58 0v160h154v-160h-154z" />
    <glyph glyph-name="semicolon" unicode=";" horiz-adv-x="305" 
d="M90 356v160h154v-160h-154zM18 -143l71 303h165l-120 -303h-116z" />
    <glyph glyph-name="less" unicode="&#x3c;" horiz-adv-x="609" 
d="M523 566v-107l-288 -108l288 -109v-111l-437 169v98z" />
    <glyph glyph-name="equal" unicode="=" horiz-adv-x="610" 
d="M91 497h428v-105h-428v105zM91 308h428v-104h-428v104z" />
    <glyph glyph-name="greater" unicode="&#x3e;" horiz-adv-x="609" 
d="M86 566l437 -168v-98l-437 -169v111l288 109l-288 108v107z" />
    <glyph glyph-name="question" unicode="?" horiz-adv-x="577" 
d="M431.5 734.5q56.5 -29.5 85.5 -78.5t29 -104q0 -46 -16.5 -81.5t-41 -61t-67.5 -61.5l-64 -54v-60h-170v118l131 103q23 18 35 37t12 43q0 28 -20 50t-57 22q-38 0 -59.5 -23.5t-21.5 -58.5v-12h-167v11q0 69 30 123.5t88 85.5t139 31q78 0 134.5 -29.5zM187 0v154h170
v-154h-170z" />
    <glyph glyph-name="at" unicode="@" horiz-adv-x="1067" 
d="M783.5 685.5q115.5 -57.5 182 -162t66.5 -238.5q0 -151 -65 -225t-171 -74q-60 0 -101 22t-62 62q-30 -40 -76 -62t-102 -22q-82 0 -130.5 42.5t-48.5 114.5q0 66 43 108t118 49l177 18v17q0 19 -10 29.5t-29 10.5h-253v141h269q92 0 139.5 -42t47.5 -122v-190
q0 -36 17 -54.5t47 -18.5q47 0 76 47t29 149q0 114 -55 200.5t-150.5 133t-214.5 46.5q-115 0 -207.5 -51.5t-146 -145t-53.5 -214.5q0 -115 47.5 -204t133.5 -138t196 -49q61 0 112 17v-80q-58 -14 -112 -14q-134 0 -239 60t-164 166.5t-59 241.5q0 140 65 251.5
t177.5 174.5t249.5 63q141 0 256.5 -57.5zM573 117q29 18 41 48v50l-117 -14q-58 -8 -58 -52q0 -24 17.5 -37t49.5 -13q38 0 67 18z" />
    <glyph glyph-name="A" unicode="A" horiz-adv-x="712" 
d="M514 0l-47 174h-224l-47 -174h-177l220 750h235l220 -750h-180zM277 300h156l-77 283h-3z" />
    <glyph glyph-name="B" unicode="B" horiz-adv-x="636" 
d="M583 339.5q29 -46.5 29 -106.5q0 -70 -32 -123t-91.5 -81.5t-138.5 -28.5h-295v750h309q104 0 164.5 -53t60.5 -143q0 -47 -23 -85t-64 -60q52 -23 81 -69.5zM407 589q-23 20 -66 20h-122v-153h121q41 0 65.5 20.5t24.5 55.5q0 37 -23 57zM417.5 166.5
q31.5 26.5 31.5 72.5q0 45 -30 69.5t-85 24.5h-115v-193h114q53 0 84.5 26.5z" />
    <glyph glyph-name="C" unicode="C" horiz-adv-x="810" 
d="M717 131q-49 -70 -127.5 -107.5t-177.5 -37.5q-111 0 -197.5 49.5t-134.5 138t-48 202.5q0 113 48 201.5t134.5 137.5t197.5 49q98 0 176 -36t127.5 -104t64.5 -162h-177q-21 69 -67.5 103.5t-123.5 34.5q-94 0 -148 -60.5t-54 -164.5t54.5 -165t147.5 -61q78 0 126 38
t67 108h175q-14 -94 -63 -164z" />
    <glyph glyph-name="D" unicode="D" horiz-adv-x="749" 
d="M533.5 703q88.5 -47 135.5 -131.5t47 -194.5q0 -111 -47 -196.5t-135.5 -133t-208.5 -47.5h-270v750h269q121 0 209.5 -47zM485.5 218q54.5 60 54.5 159q0 98 -54.5 158.5t-165.5 60.5h-96v-438h97q110 0 164.5 60z" />
    <glyph glyph-name="E" unicode="E" horiz-adv-x="591" 
d="M229 141h328v-141h-502v750h491v-141h-317v-151h269v-136h-269v-181z" />
    <glyph glyph-name="F" unicode="F" horiz-adv-x="594" 
d="M564 609h-335v-151h288v-139h-288v-319h-174v750h509v-141z" />
    <glyph glyph-name="G" unicode="G" horiz-adv-x="817" 
d="M779 0h-131l-1 98q-41 -54 -102 -83t-137 -29q-110 0 -195.5 50.5t-133 139.5t-47.5 200q0 113 48 201t135 137.5t199 49.5q137 0 233 -67.5t129 -187.5h-187q-19 46 -62.5 73.5t-109.5 27.5q-97 0 -152.5 -63t-55.5 -172q0 -110 55 -174.5t153 -64.5q76 0 128 37.5
t72 103.5h-183v126h345v-403z" />
    <glyph glyph-name="H" unicode="H" horiz-adv-x="698" 
d="M469 750h174v-750h-174v323h-240v-323h-174v750h174v-286h240v286z" />
    <glyph glyph-name="I" unicode="I" horiz-adv-x="280" 
d="M55 750h171v-750h-171v750z" />
    <glyph glyph-name="J" unicode="J" horiz-adv-x="466" 
d="M204 141q47 0 47 49v419h-140v141h315v-558q0 -93 -50 -142.5t-146 -49.5h-198v141h172z" />
    <glyph glyph-name="K" unicode="K" horiz-adv-x="711" 
d="M503 0l-205 323h-69v-323h-174v750h174v-286h68l194 286h197l-237 -349l255 -401h-203z" />
    <glyph glyph-name="L" unicode="L" horiz-adv-x="572" 
d="M229 141h310v-141h-484v750h174v-609z" />
    <glyph glyph-name="M" unicode="M" horiz-adv-x="966" 
d="M55 0v750h255l171 -515h4l172 515h254v-750h-174v519h-3l-182 -516h-138l-182 516h-3v-519h-174z" />
    <glyph glyph-name="N" unicode="N" horiz-adv-x="725" 
d="M55 0v750h169l281 -473h3v473h163v-750h-169l-282 473h-3v-473h-162z" />
    <glyph glyph-name="O" unicode="O" horiz-adv-x="830" 
d="M216 36q-87 50 -135.5 138.5t-48.5 201.5q0 112 48.5 200.5t135.5 138t199 49.5t199.5 -49.5t135.5 -138t48 -200.5q0 -113 -48 -201.5t-135.5 -138.5t-199.5 -50t-199 50zM565.5 210.5q55.5 61.5 55.5 164.5q0 102 -55.5 163.5t-150.5 61.5t-150 -61t-55 -164t55 -164.5
t150 -61.5t150.5 61.5z" />
    <glyph glyph-name="P" unicode="P" horiz-adv-x="624" 
d="M543 690.5q63 -59.5 63 -159.5q0 -101 -62.5 -162t-171.5 -61h-143v-308h-174v750h316q109 0 172 -59.5zM413.5 471q19.5 23 19.5 58t-19 58t-58 23h-127v-162h125q40 0 59.5 23z" />
    <glyph glyph-name="Q" unicode="Q" horiz-adv-x="830" 
d="M772.5 224q-25.5 -70 -73.5 -122l97 -102h-147l-35 35q-89 -49 -199 -49q-112 0 -199 50t-135.5 138.5t-48.5 201.5q0 112 48.5 200.5t135.5 138t199 49.5t199.5 -49.5t135.5 -138t48 -200.5q0 -82 -25.5 -152zM265 210.5q55 -61.5 150 -61.5q38 0 73 11l-148 155h156
l83 -87q42 59 42 147q0 102 -55.5 163.5t-150.5 61.5t-150 -61t-55 -164t55 -164.5z" />
    <glyph glyph-name="R" unicode="R" horiz-adv-x="631" 
d="M573.5 405q-33.5 -52 -95.5 -77l127 -328h-183l-115 308h-78v-308h-174v750h309q76 0 131 -28t83.5 -78.5t28.5 -115.5q0 -71 -33.5 -123zM229 448h119q42 0 62.5 23t20.5 58t-20 58t-62 23h-120v-162z" />
    <glyph glyph-name="S" unicode="S" horiz-adv-x="658" 
d="M178.5 18.5q-69.5 32.5 -108 92.5t-41.5 142h173q3 -59 41 -92.5t102 -33.5q54 0 87.5 25t33.5 65q0 48 -34.5 70t-119.5 29q-128 11 -194 66.5t-66 153.5q0 68 34 120t96 80t143 28q132 0 208.5 -62.5t83.5 -177.5h-171q-11 101 -119 101q-49 0 -78 -21.5t-29 -57.5
q0 -46 34.5 -66.5t120.5 -25.5q259 -17 259 -225q0 -74 -36 -129t-102 -84.5t-155 -29.5q-93 0 -162.5 32.5z" />
    <glyph glyph-name="T" unicode="T" horiz-adv-x="637" 
d="M231 0v609h-204v141h584v-141h-205v-609h-175z" />
    <glyph glyph-name="U" unicode="U" horiz-adv-x="740" 
d="M654.5 137q-39.5 -73 -113 -112t-171.5 -39t-171 39t-113 112t-40 172v441h175v-452q0 -71 40 -114t109 -43q71 0 110.5 43t39.5 114v452h174v-441q0 -99 -39.5 -172z" />
    <glyph glyph-name="V" unicode="V" horiz-adv-x="711" 
d="M237 0l-218 750h183l152 -583h3l151 583h184l-218 -750h-237z" />
    <glyph glyph-name="W" unicode="W" horiz-adv-x="1050" 
d="M858 750h173l-192 -750h-195l-119 471l-119 -471h-195l-192 750h172l120 -522h3l129 486h164l128 -486h3z" />
    <glyph glyph-name="X" unicode="X" horiz-adv-x="685" 
d="M680 0h-195l-142 254l-143 -254h-195l238 393l-225 357h199l126 -225l125 225h199l-225 -356z" />
    <glyph glyph-name="Y" unicode="Y" horiz-adv-x="668" 
d="M652 750l-231 -514v-236h-174v239l-231 511h178l138 -346h3l139 346h178z" />
    <glyph glyph-name="Z" unicode="Z" horiz-adv-x="665" 
d="M30 0v123l395 483v3h-380v141h581v-140l-379 -466v-3h387v-141h-604z" />
    <glyph glyph-name="bracketleft" unicode="[" horiz-adv-x="319" 
d="M291 614h-72v-678h72v-136h-243v950h243v-136z" />
    <glyph glyph-name="backslash" unicode="\" horiz-adv-x="394" 
d="M289 0l-258 750h58l260 -750h-60z" />
    <glyph glyph-name="bracketright" unicode="]" horiz-adv-x="319" 
d="M28 750h243v-950h-243v136h72v678h-72v136z" />
    <glyph glyph-name="asciicircum" unicode="^" horiz-adv-x="570" 
d="M520 204h-138l-99 267l-100 -267h-133l168 420h134z" />
    <glyph glyph-name="underscore" unicode="_" horiz-adv-x="580" 
d="M76 0h428v-110h-428v110z" />
    <glyph glyph-name="grave" unicode="`" horiz-adv-x="361" 
d="M50 758h154l107 -154h-127z" />
    <glyph glyph-name="a" unicode="a" horiz-adv-x="585" 
d="M483.5 474q47.5 -42 47.5 -122v-352h-164v51q-26 -32 -66.5 -48.5t-92.5 -16.5q-81 0 -130 42.5t-49 114.5q0 66 43.5 108t118.5 49l176 18v17q0 40 -38 40h-254v141h269q92 0 139.5 -42zM326.5 117q29.5 18 40.5 48v50l-117 -14q-57 -7 -57 -52q0 -24 17 -37t50 -13
q37 0 66.5 18z" />
    <glyph glyph-name="b" unicode="b" horiz-adv-x="627" 
d="M481 496q52 -34 80 -95.5t28 -141.5q0 -81 -28 -143t-80 -96t-122 -34q-91 0 -139 59v-45h-165v750h165v-279q53 59 141 59q68 0 120 -34zM394.5 168.5q27.5 31.5 27.5 90.5q0 57 -27.5 88t-75.5 31q-67 0 -99 -61v-119q14 -28 39 -44.5t59 -16.5q49 0 76.5 31.5z" />
    <glyph glyph-name="c" unicode="c" horiz-adv-x="601" 
d="M482 42q-68 -56 -171 -56q-82 0 -143.5 34.5t-95 96t-33.5 141.5t33.5 141.5t95 96t143.5 34.5q103 0 171 -57.5t84 -160.5h-158q-14 34 -37 51.5t-60 17.5q-52 0 -81 -33t-29 -90t29 -90t81 -33q37 0 59 15.5t37 48.5h158q-15 -101 -83 -157z" />
    <glyph glyph-name="d" unicode="d" horiz-adv-x="627" 
d="M572 750v-750h-165v44q-49 -58 -138 -58q-70 0 -122 34t-80 95.5t-28 143.5q0 80 28 141.5t79.5 95.5t119.5 34q88 0 141 -58v278h165zM368 153q25 16 39 44v120q-32 61 -99 61q-48 0 -75.5 -31t-27.5 -88q0 -59 27.5 -90.5t76.5 -31.5q34 0 59 16z" />
    <glyph glyph-name="e" unicode="e" horiz-adv-x="617" 
d="M579 223h-381q15 -109 121 -109q34 0 58.5 10.5t36.5 26.5h158q-14 -46 -50 -84t-89.5 -59.5t-118.5 -21.5q-82 0 -144.5 34.5t-96.5 96.5t-34 144q0 78 34 139t96 95.5t143 34.5q85 0 146 -35t92 -96t31 -139q0 -19 -2 -37zM203 324h213q-9 42 -34.5 62t-69.5 20
q-87 0 -109 -82z" />
    <glyph glyph-name="f" unicode="f" horiz-adv-x="439" 
d="M30 375v141h80v73q0 77 46 119t137 42h167v-138h-141q-39 0 -39 -39v-57h135v-141h-135v-375h-170v375h-80z" />
    <glyph glyph-name="g" unicode="g" horiz-adv-x="626" 
d="M572 516v-534q0 -87 -51 -134.5t-152 -47.5h-222v131h207q53 0 53 57v76q-48 -56 -138 -56q-70 0 -122 32.5t-80 91.5t-28 137q0 76 28 135t79.5 92.5t119.5 33.5q87 0 141 -57v43h165zM367.5 168q24.5 16 39.5 42v118q-14 27 -39 42.5t-60 15.5q-48 0 -75.5 -30.5
t-27.5 -86.5t27.5 -86.5t76.5 -30.5q34 0 58.5 16z" />
    <glyph glyph-name="h" unicode="h" horiz-adv-x="630" 
d="M530 479q48 -51 48 -138v-341h-171v287q0 43 -20 67t-61 24q-30 0 -58 -15.5t-43 -39.5v-323h-170v750h170v-291q32 34 77.5 52.5t97.5 18.5q82 0 130 -51z" />
    <glyph glyph-name="i" unicode="i" horiz-adv-x="350" 
d="M124 596v154h170v-154h-170zM124 375h-96v141h266v-516h-170v375z" />
    <glyph glyph-name="j" unicode="j" horiz-adv-x="351" 
d="M125 596v154h170v-154h-170zM90 -59q35 0 35 37v397h-96v141h266v-555q0 -77 -44.5 -119t-133.5 -42h-156v141h129z" />
    <glyph glyph-name="k" unicode="k" horiz-adv-x="595" 
d="M393 0l-121 201h-47v-201h-170v750h170v-419h46l118 185h183l-158 -242l169 -274h-190z" />
    <glyph glyph-name="l" unicode="l" horiz-adv-x="330" 
d="M95 42q-43 42 -43 119v451h-69v138h240v-573q0 -36 34 -36h50v-141h-84q-85 0 -128 42z" />
    <glyph glyph-name="m" unicode="m" horiz-adv-x="877" 
d="M785.5 486q39.5 -44 39.5 -118v-368h-156v300q0 36 -17.5 57t-52.5 21q-22 0 -43 -11.5t-36 -30.5v-336h-156v300q0 36 -17.5 57t-52.5 21q-24 0 -46.5 -13t-36.5 -34v-331h-156v516h156v-56q31 33 72.5 51.5t88.5 18.5q48 0 82 -22t51 -61q30 39 76 61t97 22
q68 0 107.5 -44z" />
    <glyph glyph-name="n" unicode="n" horiz-adv-x="630" 
d="M530 479q48 -51 48 -138v-341h-171v288q0 42 -20 66t-61 24q-30 0 -58 -15.5t-43 -39.5v-323h-170v516h170v-57q32 34 77.5 52.5t97.5 18.5q82 0 130 -51z" />
    <glyph glyph-name="o" unicode="o" horiz-adv-x="621" 
d="M166.5 20.5q-61.5 34.5 -94.5 96t-33 141.5t33 141.5t94.5 96t143.5 34.5t143.5 -34.5t95 -96t33.5 -141.5t-33.5 -141.5t-95 -96t-143.5 -34.5t-143.5 34.5zM391 167q29 33 29 91q0 57 -29 90t-81 33t-80.5 -33t-28.5 -90q0 -58 28.5 -91t80.5 -33t81 33z" />
    <glyph glyph-name="p" unicode="p" horiz-adv-x="627" 
d="M481 496q52 -34 80 -95.5t28 -141.5q0 -81 -28 -143t-80 -96t-122 -34q-91 0 -139 59v-245h-165v716h165v-45q53 59 141 59q68 0 120 -34zM394.5 168.5q27.5 31.5 27.5 90.5q0 57 -27.5 88t-75.5 31q-67 0 -99 -61v-119q14 -28 39 -44.5t59 -16.5q49 0 76.5 31.5z" />
    <glyph glyph-name="q" unicode="q" horiz-adv-x="627" 
d="M572 516v-716h-165v244q-49 -58 -138 -58q-70 0 -122 34t-80 95.5t-28 143.5q0 80 28 141.5t79.5 95.5t119.5 34q88 0 141 -58v44h165zM368 153q25 16 39 44v120q-15 28 -40 44.5t-59 16.5q-48 0 -75.5 -31t-27.5 -88q0 -59 27.5 -90.5t76.5 -31.5q34 0 59 16z" />
    <glyph glyph-name="r" unicode="r" horiz-adv-x="435" 
d="M415 519v-144h-87q-37 0 -63.5 -14t-40.5 -38v-323h-170v516h170v-65q51 68 135 68h56z" />
    <glyph glyph-name="s" unicode="s" horiz-adv-x="557" 
d="M104 32.5q-68 46.5 -72 127.5h164q4 -27 28.5 -41t65.5 -14q39 0 61.5 13.5t22.5 36.5q0 18 -8.5 28t-32.5 16t-71 9q-116 8 -166.5 45t-50.5 108q0 81 61.5 125t175.5 44q108 0 169 -40.5t72 -116.5h-161q-16 39 -82 39q-35 0 -55 -11t-20 -30q0 -15 8 -23.5t31 -13.5
t68 -8q118 -7 169.5 -46t51.5 -117q0 -85 -63.5 -131t-179.5 -46q-118 0 -186 46.5z" />
    <glyph glyph-name="t" unicode="t" horiz-adv-x="428" 
d="M139 42q-46 42 -46 119v214h-81v141h81v167h170v-167h142v-141h-142v-194q0 -40 37 -40h105v-141h-129q-91 0 -137 42z" />
    <glyph glyph-name="u" unicode="u" horiz-adv-x="624" 
d="M569 516v-516h-170v56q-32 -33 -77 -51.5t-96 -18.5q-81 0 -127.5 51t-46.5 138v341h170v-289q0 -42 20 -66t59 -24q29 0 56 15.5t42 39.5v324h170z" />
    <glyph glyph-name="v" unicode="v" horiz-adv-x="540" 
d="M160 0l-146 516h171l83 -374h3l84 374h171l-146 -516h-220z" />
    <glyph glyph-name="w" unicode="w" horiz-adv-x="828" 
d="M650 516h164l-122 -516h-208l-70 294l-70 -294h-208l-122 516h164l71 -349h3l87 327h150l86 -327h3z" />
    <glyph glyph-name="x" unicode="x" horiz-adv-x="567" 
d="M554 0h-179l-93 150l-90 -150h-179l173 262l-166 254h178l83 -139l83 139h178l-166 -254z" />
    <glyph glyph-name="y" unicode="y" horiz-adv-x="554" 
d="M540 516l-206 -576q-26 -74 -65 -107t-112 -33h-112v141h92q25 0 38 9.5t21 32.5l11 32l-193 501h173l92 -302h3l89 302h169z" />
    <glyph glyph-name="z" unicode="z" horiz-adv-x="527" 
d="M31 0v100l252 272v3h-239v141h443v-119l-233 -253v-3h243v-141h-466z" />
    <glyph glyph-name="braceleft" unicode="{" horiz-adv-x="361" 
d="M134.5 -165q-53.5 35 -53.5 113q0 34 10 102t10 99q0 32 -16.5 52t-46.5 20h-11v112h11q30 0 46.5 18t16.5 49q0 30 -10 94t-10 98q0 83 54 120.5t138 37.5h60l1 -117q-40 0 -69 -19t-29 -65q0 -25 3 -51.5t4 -33.5q7 -49 7 -83q0 -48 -20.5 -73.5t-51.5 -29.5v-2
q31 -5 51.5 -32t20.5 -77q0 -37 -7 -86q-1 -8 -4 -36t-3 -54q0 -41 28.5 -57t69.5 -16l-1 -118h-60q-85 0 -138.5 35z" />
    <glyph glyph-name="bar" unicode="|" horiz-adv-x="389" 
d="M133 750h123v-950h-123v950z" />
    <glyph glyph-name="braceright" unicode="}" horiz-adv-x="361" 
d="M27 -82q41 0 70 16t29 57q0 32 -8 90q-1 8 -4 35t-3 51q0 50 20.5 77t52.5 32v2q-32 4 -52.5 29.5t-20.5 73.5q0 22 3 48t4 35q8 54 8 85q0 46 -29 65t-70 19l1 117h61q84 0 137.5 -37.5t53.5 -120.5q0 -34 -10 -98t-10 -94q0 -31 16.5 -49t46.5 -18h11v-112h-11
q-30 0 -46.5 -20t-16.5 -52q0 -31 10 -99t10 -102q0 -78 -53 -113t-138 -35h-61z" />
    <glyph glyph-name="asciitilde" unicode="~" horiz-adv-x="520" 
d="M439 298q-31 -38 -92 -38q-28 0 -49 9.5t-49 27.5q-19 13 -30.5 19t-24.5 6q-35 0 -35 -48h-109q0 85 29.5 123.5t93.5 38.5q26 0 46 -9.5t46 -26.5q3 -2 16 -10t24 -12t21 -4q35 0 35 48h109q0 -86 -31 -124z" />
    <glyph glyph-name="exclamdown" unicode="&#xa1;" horiz-adv-x="293" 
d="M62 361v155h170v-155h-170zM50 -200l39 482h115l39 -482h-193z" />
    <glyph glyph-name="cent" unicode="&#xa2;" horiz-adv-x="601" 
d="M370 150.5q22 15.5 37 48.5h158q-13 -93 -71.5 -148t-148.5 -63v-102h-70v102q-109 11 -172.5 84.5t-63.5 185.5t63.5 185.5t172.5 84.5v102h70v-102q90 -9 148.5 -65.5t72.5 -150.5h-158q-14 34 -37 51.5t-60 17.5q-52 0 -81 -33t-29 -90t29 -90t81 -33q37 0 59 15.5z
" />
    <glyph glyph-name="sterling" unicode="&#xa3;" horiz-adv-x="489" 
d="M467 152v-152h-458v152h56v160h-56v138h56v71q0 112 59.5 170.5t171.5 58.5h132v-154h-82q-93 0 -93 -100v-46h122v-138h-122v-160h214z" />
    <glyph glyph-name="currency" unicode="&#xa4;" horiz-adv-x="571" 
d="M455 62l-59 59q-51 -33 -111 -33t-111 33l-59 -58l-63 63l59 59q-33 51 -33 109q0 61 33 112l-59 59l65 64l59 -59q51 33 110 33q58 0 110 -32l58 58l65 -63l-59 -59q33 -51 33 -111t-33 -110l60 -60zM361 220q32 32 32 77q0 46 -30 76q-31 30 -74 30q-47 0 -80 -32
q-32 -34 -32 -77q0 -45 31 -75q32 -31 76 -31q45 0 77 32z" />
    <glyph glyph-name="yen" unicode="&#xa5;" horiz-adv-x="668" 
d="M652 750l-208 -463h128v-49h-150l-1 -2v-65h151v-50h-151v-121h-174v121h-151v50h151v67h-151v49h129l-209 463h178l138 -346h3l139 346h178z" />
    <glyph glyph-name="brokenbar" unicode="&#xa6;" horiz-adv-x="389" 
d="M133 750h123l-8 -408h-107zM141 208h107l8 -408h-123z" />
    <glyph glyph-name="section" unicode="&#xa7;" horiz-adv-x="570" 
d="M523.5 25q10.5 -26 10.5 -62q0 -85 -63.5 -131t-179.5 -46q-117 0 -185.5 46.5t-72.5 127.5h164q4 -27 28.5 -41t65.5 -14q39 0 61.5 13.5t22.5 37.5q0 16 -8.5 25t-32 14.5t-71.5 10.5q-106 10 -152.5 49t-46.5 113q0 55 31 90q-48 36 -49 103q0 81 62 125t176 44
q108 0 169 -40.5t72 -116.5h-162q-15 39 -82 39q-35 0 -55 -11t-20 -30q0 -14 8.5 -22t30.5 -12.5t68 -8.5q108 -10 155.5 -51t47.5 -120q0 -50 -26 -87q23 -19 33.5 -45zM233 140q20 -11 80 -16q15 -1 43 -5q13 17 13 35q0 24 -21.5 37t-84.5 19l-29 3q-21 -13 -21 -38
q0 -24 20 -35z" />
    <glyph glyph-name="dieresis" unicode="&#xa8;" horiz-adv-x="471" 
d="M50 750h136v-153h-136v153zM285 750h136v-153h-136v153z" />
    <glyph glyph-name="copyright" unicode="&#xa9;" horiz-adv-x="892" 
d="M785 177.5q-52 -88.5 -142 -140t-197 -51.5t-197 51.5t-142.5 140t-52.5 195.5t52.5 196.5t142.5 142t197 52.5t197 -52.5t142 -142t52 -196.5t-52 -195.5zM208 230q36 -64 98.5 -100t139.5 -36q76 0 138.5 36t98.5 100t36 143t-36 143.5t-98.5 101.5t-138.5 37t-139 -37
t-99 -101.5t-36 -143.5t36 -143zM580.5 213q-54.5 -48 -130.5 -48q-58 0 -105 27t-73.5 74.5t-26.5 106.5q0 60 26.5 107t73.5 73.5t105 26.5q75 0 130 -47t67 -121h-104q-10 31 -34 48t-58 17q-45 0 -73 -30t-28 -75q0 -44 28.5 -74t72.5 -30q34 0 58.5 18t33.5 50h104
q-12 -75 -66.5 -123z" />
    <glyph glyph-name="ordfeminine" unicode="&#xaa;" horiz-adv-x="355" 
d="M186 490.5q-22 -12.5 -48 -12.5q-33 0 -60.5 18.5t-43.5 51.5t-16 73q0 62 34.5 102.5t85.5 40.5q26 0 48 -12t36 -34v39h93v-272h-93v41q-14 -23 -36 -35.5zM126.5 580q15.5 -16 38.5 -16q19 0 34.5 10.5t22.5 25.5v42q-7 16 -22.5 26t-34.5 10q-23 0 -38.5 -16
t-15.5 -41t15.5 -41zM52 326v84h259v-84h-259z" />
    <glyph glyph-name="guillemotleft" unicode="&#xab;" horiz-adv-x="615" 
d="M257 246v7l168 200h168l-170 -203l170 -204h-168zM22 246v7l168 200h168l-170 -203l170 -204h-168z" />
    <glyph glyph-name="registered" unicode="&#xae;" horiz-adv-x="656" 
d="M466.5 727.5q62.5 -36.5 99 -99t36.5 -136.5t-36.5 -136.5t-99 -99t-138.5 -36.5q-75 0 -138 36.5t-99.5 99t-36.5 136.5t36.5 136.5t99.5 99t138 36.5q76 0 138.5 -36.5zM423.5 329.5q42.5 24.5 66.5 67.5t24 95t-24 95.5t-67 68.5t-95 25t-94.5 -25t-66.5 -68.5
t-24 -95.5t24 -94.5t66.5 -67.5t94.5 -25q53 0 95.5 24.5zM393 465l39 -85h-63l-28 72h-37v-72h-59v231h98q40 0 62.5 -22.5t22.5 -56.5q0 -44 -35 -67zM304 501h31q18 0 27 8t9 23t-9 23t-26 8h-32v-62z" />
    <glyph glyph-name="macron" unicode="&#xaf;" horiz-adv-x="476" 
d="M50 724h376v-125h-376v125z" />
    <glyph glyph-name="degree" unicode="&#xb0;" horiz-adv-x="340" 
d="M106.5 511q-31.5 15 -52.5 45t-21 74t21 74.5t52.5 45t63.5 14.5t63.5 -14.5t52 -45t20.5 -74.5t-20.5 -74t-52 -45t-63.5 -15t-63.5 15zM213 584.5q18 16.5 18 45.5t-18 46t-43 17t-43 -17t-18 -46t18 -45.5t43 -16.5t43 16.5z" />
    <glyph glyph-name="plusminus" unicode="&#xb1;" horiz-adv-x="610" 
d="M357 510h136v-94h-136v-137h-103v137h-137v94h137v145h103v-145zM117 135v96h376v-96h-376z" />
    <glyph glyph-name="two.sups" unicode="&#xb2;" horiz-adv-x="266" 
d="M245 529v-80h-217v57l116 125q11 11 11 26q0 10 -6 15.5t-16 5.5q-25 0 -25 -23v-4h-80v4q0 45 27.5 73t77.5 28q51 0 79.5 -26.5t28.5 -68.5q0 -20 -9.5 -37.5t-28.5 -37.5l-53 -57h95z" />
    <glyph glyph-name="three.sups" unicode="&#xb3;" horiz-adv-x="272" 
d="M243 578q10 -19 10 -39q0 -41 -32.5 -68.5t-84.5 -27.5q-51 0 -82 26t-31 65q0 9 1 14h87v-5q0 -10 7.5 -16t18.5 -6q12 0 19.5 6.5t7.5 18.5q0 13 -7.5 20t-20.5 7h-10v67h10q25 0 25 24q0 11 -7 17.5t-18 6.5t-17 -6.5t-6 -17.5v-6h-79v14q0 37 27.5 60.5t74.5 23.5
t75.5 -25t28.5 -64q0 -34 -25 -57q18 -13 28 -32z" />
    <glyph glyph-name="acute" unicode="&#xb4;" horiz-adv-x="361" 
d="M156 758h155l-135 -154h-126z" />
    <glyph glyph-name="paragraph" unicode="&#xb6;" horiz-adv-x="756" 
d="M697 670h-89v-870h-107v870h-75v-870h-106v490h-19q-74 0 -132 28t-90.5 79t-32.5 119q0 107 66.5 170.5t202.5 63.5h382v-80z" />
    <glyph glyph-name="periodcentered" unicode="&#xb7;" horiz-adv-x="253" 
d="M49 220v160h155v-160h-155z" />
    <glyph glyph-name="cedilla" unicode="&#xb8;" horiz-adv-x="296" 
d="M89 -98q23 0 33 9.5t10 31.5v82h114v-99q0 -61 -33 -93.5t-94 -32.5h-69v102h39z" />
    <glyph glyph-name="one.sups" unicode="&#xb9;" horiz-adv-x="207" 
d="M101 750h78v-301h-89v209l-70 -36v84z" />
    <glyph glyph-name="ordmasculine" unicode="&#xba;" horiz-adv-x="361" 
d="M68.5 518.5q-41.5 40.5 -41.5 102.5t41.5 102.5t107.5 40.5q67 0 108.5 -40.5t41.5 -102.5t-41.5 -102.5t-108.5 -40.5q-66 0 -107.5 40.5zM219 579q17 17 17 42t-17 41.5t-43 16.5t-42.5 -16.5t-16.5 -41.5t16.5 -42t42.5 -17t43 17zM50 410h251v-84h-251v84z" />
    <glyph glyph-name="guillemotright" unicode="&#xbb;" horiz-adv-x="615" 
d="M257 46l170 204l-170 203h168l168 -200v-7l-168 -200h-168zM22 46l170 204l-170 203h168l168 -200v-7l-168 -200h-168z" />
    <glyph glyph-name="onequarter" unicode="&#xbc;" horiz-adv-x="585" 
d="M134 750h78v-301h-89v209l-70 -36v84zM500 750h76l-491 -750h-76zM560 138v-66h-32v-72h-92v72h-131v59l131 170h92v-163h32zM383 138h53v70z" />
    <glyph glyph-name="onehalf" unicode="&#xbd;" horiz-adv-x="591" 
d="M134 750h78v-301h-89v209l-70 -36v84zM500 750h76l-491 -750h-76zM570 80v-80h-217v57l116 125q11 11 11 26q0 10 -6 15.5t-16 5.5q-25 0 -25 -23v-4h-80v4q0 45 27.5 73t77.5 28q51 0 79.5 -26.5t28.5 -68.5q0 -20 -9.5 -37.5t-28.5 -37.5l-53 -57h95z" />
    <glyph glyph-name="threequarters" unicode="&#xbe;" horiz-adv-x="617" 
d="M243 578q10 -19 10 -39q0 -41 -32.5 -68.5t-84.5 -27.5q-51 0 -82 26t-31 65q0 9 1 14h87v-5q0 -10 7.5 -16t18.5 -6q12 0 19.5 6.5t7.5 18.5q0 13 -7.5 20t-20.5 7h-10v67h10q25 0 25 24q0 11 -7 17.5t-18 6.5t-17 -6.5t-6 -17.5v-6h-79v14q0 37 27.5 60.5t74.5 23.5
t75.5 -25t28.5 -64q0 -34 -25 -57q18 -13 28 -32zM532 750h76l-491 -750h-76zM592 138v-66h-32v-72h-92v72h-131v59l131 170h92v-163h32zM415 138h53v70z" />
    <glyph glyph-name="questiondown" unicode="&#xbf;" horiz-adv-x="577" 
d="M390 516v-141h-170v141h170zM538 37v-12q0 -68 -30.5 -122.5t-88.5 -85.5t-139 -31q-78 0 -134 30t-85 78.5t-29 103.5q0 47 16 81t39.5 57.5t68.5 59.5l64 51v48h170v-108l-130 -94q-23 -16 -35 -34.5t-12 -42.5q0 -29 20 -51t56 -22q38 0 60 23.5t22 58.5v12h167z" />
    <glyph glyph-name="Agrave" unicode="&#xc0;" horiz-adv-x="712" 
d="M514 0l-47 174h-224l-47 -174h-177l220 750h235l220 -750h-180zM277 300h156l-77 283h-3zM172 864v75l309 -42v-75z" />
    <glyph glyph-name="Aacute" unicode="&#xc1;" horiz-adv-x="712" 
d="M514 0l-47 174h-224l-47 -174h-177l220 750h235l220 -750h-180zM277 300h156l-77 283h-3zM231 897l309 42v-75l-309 -42v75z" />
    <glyph glyph-name="Acircumflex" unicode="&#xc2;" horiz-adv-x="712" 
d="M514 0l-47 174h-224l-47 -174h-177l220 750h235l220 -750h-180zM277 300h156l-77 283h-3zM491 900v-74l-132 39l-136 -39v74l134 41h3z" />
    <glyph glyph-name="Atilde" unicode="&#xc3;" horiz-adv-x="712" 
d="M514 0l-47 174h-224l-47 -174h-177l220 750h235l220 -750h-180zM277 300h156l-77 283h-3zM198 914h318v-73h-318v73z" />
    <glyph glyph-name="Adieresis" unicode="&#xc4;" horiz-adv-x="712" 
d="M514 0l-47 174h-224l-47 -174h-177l220 750h235l220 -750h-180zM277 300h156l-77 283h-3zM162 914h151v-73h-151v73zM400 914h151v-73h-151v73z" />
    <glyph glyph-name="Aring" unicode="&#xc5;" horiz-adv-x="712" 
d="M514 0l-47 174h-224l-47 -174h-177l220 750h235l220 -750h-180zM277 300h156l-77 283h-3zM279 835.5q-27 17.5 -27 48.5q0 33 27.5 50t76.5 17q48 0 76 -17.5t28 -49.5q0 -31 -28 -48.5t-76 -17.5q-50 0 -77 17.5zM411 884q0 14 -14 19.5t-41 5.5q-26 0 -40 -5.5
t-14 -19.5q0 -23 54 -23q55 0 55 23z" />
    <glyph glyph-name="AE" unicode="&#xc6;" horiz-adv-x="937" 
d="M613 141h290v-141h-465v174h-174l-68 -174h-177l311 750h563v-141h-280v-151h232v-136h-232v-181zM314 300h124v309h-3z" />
    <glyph glyph-name="Ccedilla" unicode="&#xc7;" horiz-adv-x="810" 
d="M538 187q48 38 67 108h175q-18 -120 -92 -199t-189 -102v-68q0 -61 -33 -93.5t-94 -32.5h-69v102h39q23 0 33 9.5t10 31.5v44q-104 6 -184 56.5t-124.5 137t-44.5 195.5q0 113 48 201.5t134.5 137.5t197.5 49q98 0 176 -36t127.5 -104t64.5 -162h-177q-21 69 -67.5 103.5
t-123.5 34.5q-94 0 -148 -60.5t-54 -164.5t54.5 -165t147.5 -61q78 0 126 38z" />
    <glyph glyph-name="Egrave" unicode="&#xc8;" horiz-adv-x="591" 
d="M229 141h328v-141h-502v750h491v-141h-317v-151h269v-136h-269v-181zM141 864v75l309 -42v-75z" />
    <glyph glyph-name="Eacute" unicode="&#xc9;" horiz-adv-x="591" 
d="M229 141h328v-141h-502v750h491v-141h-317v-151h269v-136h-269v-181zM161 897l309 42v-75l-309 -42v75z" />
    <glyph glyph-name="Ecircumflex" unicode="&#xca;" horiz-adv-x="591" 
d="M229 141h328v-141h-502v750h491v-141h-317v-151h269v-136h-269v-181zM441 900v-74l-132 39l-136 -39v74l134 41h3z" />
    <glyph glyph-name="Edieresis" unicode="&#xcb;" horiz-adv-x="591" 
d="M229 141h328v-141h-502v750h491v-141h-317v-151h269v-136h-269v-181zM101 914h151v-73h-151v73zM339 914h151v-73h-151v73z" />
    <glyph glyph-name="Igrave" unicode="&#xcc;" horiz-adv-x="280" 
d="M-1 836v69l257 -42v-69zM55 750h171v-750h-171v750z" />
    <glyph glyph-name="Iacute" unicode="&#xcd;" horiz-adv-x="280" 
d="M26 864l255 42v-70l-255 -42v70zM55 750h171v-750h-171v750z" />
    <glyph glyph-name="Icircumflex" unicode="&#xce;" horiz-adv-x="280" 
d="M55 750h171v-750h-171v750zM274 900v-74l-132 39l-136 -39v74l134 41h3z" />
    <glyph glyph-name="Idieresis" unicode="&#xcf;" horiz-adv-x="280" 
d="M-17 881h121v-68h-121v68zM177 881h121v-68h-121v68zM55 750h171v-750h-171v750z" />
    <glyph glyph-name="Eth" unicode="&#xd0;" horiz-adv-x="749" 
d="M533.5 703q88.5 -47 135.5 -131.5t47 -194.5q0 -111 -47 -196.5t-135.5 -133t-208.5 -47.5h-270v355h-53v54h53v341h269q121 0 209.5 -47zM485.5 218q54.5 60 54.5 159q0 98 -54.5 158.5t-165.5 60.5h-96v-187h130v-54h-130v-197h97q110 0 164.5 60z" />
    <glyph glyph-name="Ntilde" unicode="&#xd1;" horiz-adv-x="725" 
d="M55 0v750h169l281 -473h3v473h163v-750h-169l-282 473h-3v-473h-162zM204 914h318v-73h-318v73z" />
    <glyph glyph-name="Ograve" unicode="&#xd2;" horiz-adv-x="830" 
d="M216 36q-87 50 -135.5 138.5t-48.5 201.5q0 112 48.5 200.5t135.5 138t199 49.5t199.5 -49.5t135.5 -138t48 -200.5q0 -113 -48 -201.5t-135.5 -138.5t-199.5 -50t-199 50zM565.5 210.5q55.5 61.5 55.5 164.5q0 102 -55.5 163.5t-150.5 61.5t-150 -61t-55 -164t55 -164.5
t150 -61.5t150.5 61.5zM260 864v75l309 -42v-75z" />
    <glyph glyph-name="Oacute" unicode="&#xd3;" horiz-adv-x="830" 
d="M216 36q-87 50 -135.5 138.5t-48.5 201.5q0 112 48.5 200.5t135.5 138t199 49.5t199.5 -49.5t135.5 -138t48 -200.5q0 -113 -48 -201.5t-135.5 -138.5t-199.5 -50t-199 50zM565.5 210.5q55.5 61.5 55.5 164.5q0 102 -55.5 163.5t-150.5 61.5t-150 -61t-55 -164t55 -164.5
t150 -61.5t150.5 61.5zM260 897l309 42v-75l-309 -42v75z" />
    <glyph glyph-name="Ocircumflex" unicode="&#xd4;" horiz-adv-x="830" 
d="M216 36q-87 50 -135.5 138.5t-48.5 201.5q0 112 48.5 200.5t135.5 138t199 49.5t199.5 -49.5t135.5 -138t48 -200.5q0 -113 -48 -201.5t-135.5 -138.5t-199.5 -50t-199 50zM565.5 210.5q55.5 61.5 55.5 164.5q0 102 -55.5 163.5t-150.5 61.5t-150 -61t-55 -164t55 -164.5
t150 -61.5t150.5 61.5zM549 900v-74l-132 39l-136 -39v74l134 41h3z" />
    <glyph glyph-name="Otilde" unicode="&#xd5;" horiz-adv-x="830" 
d="M216 36q-87 50 -135.5 138.5t-48.5 201.5q0 112 48.5 200.5t135.5 138t199 49.5t199.5 -49.5t135.5 -138t48 -200.5q0 -113 -48 -201.5t-135.5 -138.5t-199.5 -50t-199 50zM565.5 210.5q55.5 61.5 55.5 164.5q0 102 -55.5 163.5t-150.5 61.5t-150 -61t-55 -164t55 -164.5
t150 -61.5t150.5 61.5zM256 914h318v-73h-318v73z" />
    <glyph glyph-name="Odieresis" unicode="&#xd6;" horiz-adv-x="830" 
d="M216 36q-87 50 -135.5 138.5t-48.5 201.5q0 112 48.5 200.5t135.5 138t199 49.5t199.5 -49.5t135.5 -138t48 -200.5q0 -113 -48 -201.5t-135.5 -138.5t-199.5 -50t-199 50zM565.5 210.5q55.5 61.5 55.5 164.5q0 102 -55.5 163.5t-150.5 61.5t-150 -61t-55 -164t55 -164.5
t150 -61.5t150.5 61.5zM220 914h151v-73h-151v73zM458 914h151v-73h-151v73z" />
    <glyph glyph-name="multiply" unicode="&#xd7;" horiz-adv-x="610" 
d="M495 470l-113 -113l113 -113l-77 -77l-113 113l-113 -114l-77 78l113 113l-113 113l77 78l113 -114l113 113z" />
    <glyph glyph-name="Oslash" unicode="&#xd8;" horiz-adv-x="830" 
d="M704 642q45 -52 69.5 -119.5t24.5 -146.5q0 -113 -48 -201.5t-135.5 -138.5t-199.5 -50q-67 0 -126.5 18.5t-106.5 53.5l-52 -58h-101l97 109q-46 52 -70 120t-24 147q0 112 48.5 200.5t135.5 138t199 49.5q135 0 234 -72l52 58h100zM244 240l291 325q-49 35 -120 35
q-95 0 -150 -61t-55 -164q0 -79 34 -135zM587 510l-292 -326q51 -35 120 -35q95 0 150.5 61.5t55.5 164.5q0 79 -34 135z" />
    <glyph glyph-name="Ugrave" unicode="&#xd9;" horiz-adv-x="740" 
d="M654.5 137q-39.5 -73 -113 -112t-171.5 -39t-171 39t-113 112t-40 172v441h175v-452q0 -71 40 -114t109 -43q71 0 110.5 43t39.5 114v452h174v-441q0 -99 -39.5 -172zM194 864v75l309 -42v-75z" />
    <glyph glyph-name="Uacute" unicode="&#xda;" horiz-adv-x="740" 
d="M654.5 137q-39.5 -73 -113 -112t-171.5 -39t-171 39t-113 112t-40 172v441h175v-452q0 -71 40 -114t109 -43q71 0 110.5 43t39.5 114v452h174v-441q0 -99 -39.5 -172zM236 897l309 42v-75l-309 -42v75z" />
    <glyph glyph-name="Ucircumflex" unicode="&#xdb;" horiz-adv-x="740" 
d="M654.5 137q-39.5 -73 -113 -112t-171.5 -39t-171 39t-113 112t-40 172v441h175v-452q0 -71 40 -114t109 -43q71 0 110.5 43t39.5 114v452h174v-441q0 -99 -39.5 -172zM504 900v-74l-132 39l-136 -39v74l134 41h3z" />
    <glyph glyph-name="Udieresis" unicode="&#xdc;" horiz-adv-x="740" 
d="M654.5 137q-39.5 -73 -113 -112t-171.5 -39t-171 39t-113 112t-40 172v441h175v-452q0 -71 40 -114t109 -43q71 0 110.5 43t39.5 114v452h174v-441q0 -99 -39.5 -172zM176 914h151v-73h-151v73zM414 914h151v-73h-151v73z" />
    <glyph glyph-name="Yacute" unicode="&#xdd;" horiz-adv-x="668" 
d="M652 750l-231 -514v-236h-174v239l-231 511h178l138 -346h3l139 346h178zM202 897l309 42v-75l-309 -42v75z" />
    <glyph glyph-name="Thorn" unicode="&#xde;" horiz-adv-x="658" 
d="M508.5 610.5q64.5 -32.5 98.5 -92t34 -138.5t-34 -139t-98 -92.5t-151 -32.5h-129v-116h-174v750h174v-107h128q87 0 151.5 -32.5zM430.5 291q32.5 35 32.5 89q0 52 -32 87t-96 35h-106v-246h105q64 0 96.5 35z" />
    <glyph glyph-name="germandbls" unicode="&#xdf;" horiz-adv-x="759" 
d="M700.5 340.5q35.5 -51.5 35.5 -119.5q0 -111 -67.5 -173t-185.5 -62q-103 0 -165 55.5t-66 150.5h158q11 -68 76 -68q39 0 59.5 25t20.5 73q0 47 -25.5 77.5t-82.5 30.5h-145v142h108q49 0 71.5 21t22.5 53q0 36 -23 56t-69 20h-90q-55 0 -84 -31t-29 -84v-544
q0 -78 -47 -120.5t-140 -42.5h-71v129h49q38 0 38 38v530q0 124 70.5 195.5t203.5 71.5h115q71 0 126.5 -25t86 -70t30.5 -102q0 -49 -21 -88.5t-59 -62.5q64 -24 99.5 -75.5z" />
    <glyph glyph-name="agrave" unicode="&#xe0;" horiz-adv-x="585" 
d="M483.5 474q47.5 -42 47.5 -122v-352h-164v51q-26 -32 -66.5 -48.5t-92.5 -16.5q-81 0 -130 42.5t-49 114.5q0 66 43.5 108t118.5 49l176 18v17q0 40 -38 40h-254v141h269q92 0 139.5 -42zM326.5 117q29.5 18 40.5 48v50l-117 -14q-57 -7 -57 -52q0 -24 17 -37t50 -13
q37 0 66.5 18zM108 758h154l107 -154h-127z" />
    <glyph glyph-name="aacute" unicode="&#xe1;" horiz-adv-x="585" 
d="M483.5 474q47.5 -42 47.5 -122v-352h-164v51q-26 -32 -66.5 -48.5t-92.5 -16.5q-81 0 -130 42.5t-49 114.5q0 66 43.5 108t118.5 49l176 18v17q0 40 -38 40h-254v141h269q92 0 139.5 -42zM326.5 117q29.5 18 40.5 48v50l-117 -14q-57 -7 -57 -52q0 -24 17 -37t50 -13
q37 0 66.5 18zM318 758h155l-135 -154h-126z" />
    <glyph glyph-name="acircumflex" unicode="&#xe2;" horiz-adv-x="585" 
d="M483.5 474q47.5 -42 47.5 -122v-352h-164v51q-26 -32 -66.5 -48.5t-92.5 -16.5q-81 0 -130 42.5t-49 114.5q0 66 43.5 108t118.5 49l176 18v17q0 40 -38 40h-254v141h269q92 0 139.5 -42zM326.5 117q29.5 18 40.5 48v50l-117 -14q-57 -7 -57 -52q0 -24 17 -37t50 -13
q37 0 66.5 18zM469 604h-131l-48 61l-49 -61h-126l116 154h122z" />
    <glyph glyph-name="atilde" unicode="&#xe3;" horiz-adv-x="585" 
d="M483.5 474q47.5 -42 47.5 -122v-352h-164v51q-26 -32 -66.5 -48.5t-92.5 -16.5q-81 0 -130 42.5t-49 114.5q0 66 43.5 108t118.5 49l176 18v17q0 40 -38 40h-254v141h269q92 0 139.5 -42zM326.5 117q29.5 18 40.5 48v50l-117 -14q-57 -7 -57 -52q0 -24 17 -37t50 -13
q37 0 66.5 18zM104 724h376v-125h-376v125z" />
    <glyph glyph-name="adieresis" unicode="&#xe4;" horiz-adv-x="585" 
d="M483.5 474q47.5 -42 47.5 -122v-352h-164v51q-26 -32 -66.5 -48.5t-92.5 -16.5q-81 0 -130 42.5t-49 114.5q0 66 43.5 108t118.5 49l176 18v17q0 40 -38 40h-254v141h269q92 0 139.5 -42zM326.5 117q29.5 18 40.5 48v50l-117 -14q-57 -7 -57 -52q0 -24 17 -37t50 -13
q37 0 66.5 18zM107 750h136v-153h-136v153zM342 750h136v-153h-136v153z" />
    <glyph glyph-name="aring" unicode="&#xe5;" horiz-adv-x="585" 
d="M483.5 474q47.5 -42 47.5 -122v-352h-164v51q-26 -32 -66.5 -48.5t-92.5 -16.5q-81 0 -130 42.5t-49 114.5q0 66 43.5 108t118.5 49l176 18v17q0 40 -38 40h-254v141h269q92 0 139.5 -42zM326.5 117q29.5 18 40.5 48v50l-117 -14q-57 -7 -57 -52q0 -24 17 -37t50 -13
q37 0 66.5 18zM221.5 613q-29.5 29 -29.5 71q0 41 29.5 70t70.5 29q42 0 71.5 -29t29.5 -70q0 -42 -29.5 -71t-71.5 -29q-41 0 -70.5 29zM317.5 659q10.5 10 10.5 25q0 14 -10.5 23.5t-25.5 9.5q-14 0 -24.5 -9.5t-10.5 -23.5q0 -15 10.5 -25t24.5 -10q15 0 25.5 10z" />
    <glyph glyph-name="ae" unicode="&#xe6;" horiz-adv-x="952" 
d="M914 223h-381q7 -54 38 -81.5t83 -27.5q34 0 58.5 10.5t36.5 26.5h158q-14 -46 -49.5 -83.5t-88 -59.5t-114.5 -22q-66 0 -117.5 27t-84.5 77q-83 -104 -238 -104q-85 0 -135.5 42.5t-50.5 114.5q0 66 43.5 108t118.5 49l176 18v17q0 40 -38 40h-254v141h269
q99 0 146 -48q69 62 163 62q82 0 141.5 -35t90.5 -96.5t31 -138.5q0 -19 -2 -37zM538 324h213q-9 42 -34.5 62t-69.5 20q-87 0 -109 -82zM326 117.5q30 18.5 41 47.5v50l-117 -14q-57 -7 -57 -52q0 -24 17 -37t48 -13q38 0 68 18.5z" />
    <glyph glyph-name="ccedilla" unicode="&#xe7;" horiz-adv-x="601" 
d="M370 150.5q22 15.5 37 48.5h158q-12 -82 -59.5 -134.5t-122.5 -70.5v-68q0 -61 -33 -93.5t-94 -32.5h-69v102h39q23 0 33 9.5t10 31.5v45q-106 13 -168 86t-62 184q0 80 33.5 141.5t95 96t143.5 34.5q103 0 171 -57.5t84 -160.5h-158q-14 34 -37 51.5t-60 17.5
q-52 0 -81 -33t-29 -90t29 -90t81 -33q37 0 59 15.5z" />
    <glyph glyph-name="egrave" unicode="&#xe8;" horiz-adv-x="617" 
d="M579 223h-381q15 -109 121 -109q34 0 58.5 10.5t36.5 26.5h158q-14 -46 -50 -84t-89.5 -59.5t-118.5 -21.5q-82 0 -144.5 34.5t-96.5 96.5t-34 144q0 78 34 139t96 95.5t143 34.5q85 0 146 -35t92 -96t31 -139q0 -19 -2 -37zM203 324h213q-9 42 -34.5 62t-69.5 20
q-87 0 -109 -82zM127 758h154l107 -154h-127z" />
    <glyph glyph-name="eacute" unicode="&#xe9;" horiz-adv-x="617" 
d="M579 223h-381q15 -109 121 -109q34 0 58.5 10.5t36.5 26.5h158q-14 -46 -50 -84t-89.5 -59.5t-118.5 -21.5q-82 0 -144.5 34.5t-96.5 96.5t-34 144q0 78 34 139t96 95.5t143 34.5q85 0 146 -35t92 -96t31 -139q0 -19 -2 -37zM203 324h213q-9 42 -34.5 62t-69.5 20
q-87 0 -109 -82zM337 758h155l-135 -154h-126z" />
    <glyph glyph-name="ecircumflex" unicode="&#xea;" horiz-adv-x="617" 
d="M579 223h-381q15 -109 121 -109q34 0 58.5 10.5t36.5 26.5h158q-14 -46 -50 -84t-89.5 -59.5t-118.5 -21.5q-82 0 -144.5 34.5t-96.5 96.5t-34 144q0 78 34 139t96 95.5t143 34.5q85 0 146 -35t92 -96t31 -139q0 -19 -2 -37zM203 324h213q-9 42 -34.5 62t-69.5 20
q-87 0 -109 -82zM488 604h-131l-48 61l-49 -61h-126l116 154h122z" />
    <glyph glyph-name="edieresis" unicode="&#xeb;" horiz-adv-x="617" 
d="M579 223h-381q15 -109 121 -109q34 0 58.5 10.5t36.5 26.5h158q-14 -46 -50 -84t-89.5 -59.5t-118.5 -21.5q-82 0 -144.5 34.5t-96.5 96.5t-34 144q0 78 34 139t96 95.5t143 34.5q85 0 146 -35t92 -96t31 -139q0 -19 -2 -37zM203 324h213q-9 42 -34.5 62t-69.5 20
q-87 0 -109 -82zM126 750h136v-153h-136v153zM361 750h136v-153h-136v153z" />
    <glyph glyph-name="igrave" unicode="&#xec;" horiz-adv-x="350" 
d="M124 375h-96v141h266v-516h-170v375zM-29 758h154l107 -154h-127z" />
    <glyph glyph-name="iacute" unicode="&#xed;" horiz-adv-x="350" 
d="M124 375h-96v141h266v-516h-170v375zM181 758h155l-135 -154h-126z" />
    <glyph glyph-name="icircumflex" unicode="&#xee;" horiz-adv-x="350" 
d="M124 375h-96v141h266v-516h-170v375zM332 604h-131l-48 61l-49 -61h-126l116 154h122z" />
    <glyph glyph-name="idieresis" unicode="&#xef;" horiz-adv-x="350" 
d="M14 750h118v-152h-118v152zM178 750h118v-152h-118v152zM124 375h-96v141h266v-516h-170v375z" />
    <glyph glyph-name="eth" unicode="&#xf0;" horiz-adv-x="616" 
d="M540.5 457q41.5 -91 41.5 -191q0 -81 -33.5 -144.5t-95 -99.5t-143.5 -36t-143.5 34.5t-94.5 96t-33 141.5t33 141.5t94.5 96t143.5 34.5q37 0 68 -12q-23 29 -72 80l-182 -35v72l116 22q-70 57 -138 93h185q40 -23 88 -67l140 27v-72l-81 -16q65 -74 106.5 -165z
M391 167q29 33 29 91q0 57 -29 90t-81 33t-80.5 -33t-28.5 -90q0 -58 28.5 -91t80.5 -33t81 33z" />
    <glyph glyph-name="ntilde" unicode="&#xf1;" horiz-adv-x="630" 
d="M530 479q48 -51 48 -138v-341h-171v288q0 42 -20 66t-61 24q-30 0 -58 -15.5t-43 -39.5v-323h-170v516h170v-57q32 34 77.5 52.5t97.5 18.5q82 0 130 -51zM131 724h376v-125h-376v125z" />
    <glyph glyph-name="ograve" unicode="&#xf2;" horiz-adv-x="621" 
d="M166.5 20.5q-61.5 34.5 -94.5 96t-33 141.5t33 141.5t94.5 96t143.5 34.5t143.5 -34.5t95 -96t33.5 -141.5t-33.5 -141.5t-95 -96t-143.5 -34.5t-143.5 34.5zM391 167q29 33 29 91q0 57 -29 90t-81 33t-80.5 -33t-28.5 -90q0 -58 28.5 -91t80.5 -33t81 33zM126 758h154
l107 -154h-127z" />
    <glyph glyph-name="oacute" unicode="&#xf3;" horiz-adv-x="621" 
d="M166.5 20.5q-61.5 34.5 -94.5 96t-33 141.5t33 141.5t94.5 96t143.5 34.5t143.5 -34.5t95 -96t33.5 -141.5t-33.5 -141.5t-95 -96t-143.5 -34.5t-143.5 34.5zM391 167q29 33 29 91q0 57 -29 90t-81 33t-80.5 -33t-28.5 -90q0 -58 28.5 -91t80.5 -33t81 33zM336 758h155
l-135 -154h-126z" />
    <glyph glyph-name="ocircumflex" unicode="&#xf4;" horiz-adv-x="621" 
d="M166.5 20.5q-61.5 34.5 -94.5 96t-33 141.5t33 141.5t94.5 96t143.5 34.5t143.5 -34.5t95 -96t33.5 -141.5t-33.5 -141.5t-95 -96t-143.5 -34.5t-143.5 34.5zM391 167q29 33 29 91q0 57 -29 90t-81 33t-80.5 -33t-28.5 -90q0 -58 28.5 -91t80.5 -33t81 33zM487 604h-131
l-48 61l-49 -61h-126l116 154h122z" />
    <glyph glyph-name="otilde" unicode="&#xf5;" horiz-adv-x="621" 
d="M166.5 20.5q-61.5 34.5 -94.5 96t-33 141.5t33 141.5t94.5 96t143.5 34.5t143.5 -34.5t95 -96t33.5 -141.5t-33.5 -141.5t-95 -96t-143.5 -34.5t-143.5 34.5zM391 167q29 33 29 91q0 57 -29 90t-81 33t-80.5 -33t-28.5 -90q0 -58 28.5 -91t80.5 -33t81 33zM122 724h376
v-125h-376v125z" />
    <glyph glyph-name="odieresis" unicode="&#xf6;" horiz-adv-x="621" 
d="M166.5 20.5q-61.5 34.5 -94.5 96t-33 141.5t33 141.5t94.5 96t143.5 34.5t143.5 -34.5t95 -96t33.5 -141.5t-33.5 -141.5t-95 -96t-143.5 -34.5t-143.5 34.5zM391 167q29 33 29 91q0 57 -29 90t-81 33t-80.5 -33t-28.5 -90q0 -58 28.5 -91t80.5 -33t81 33zM125 750h136
v-153h-136v153zM360 750h136v-153h-136v153z" />
    <glyph glyph-name="divide" unicode="&#xf7;" horiz-adv-x="610" 
d="M228 474v160h155v-160h-155zM91 407h428v-100h-428v100zM228 80v159h155v-159h-155z" />
    <glyph glyph-name="oslash" unicode="&#xf8;" horiz-adv-x="621" 
d="M519 443q63 -72 63 -185q0 -80 -33.5 -141.5t-95 -96t-143.5 -34.5q-103 0 -174 55l-39 -41h-65l70 73q-63 72 -63 185q0 80 33 141.5t94.5 96t143.5 34.5q103 0 174 -55l39 41h66zM214 191l162 171q-27 19 -66 19q-52 0 -80.5 -33t-28.5 -90q0 -40 13 -67zM406 325
l-162 -171q26 -20 66 -20q52 0 81 33t29 91q0 37 -14 67z" />
    <glyph glyph-name="ugrave" unicode="&#xf9;" horiz-adv-x="624" 
d="M569 516v-516h-170v56q-32 -33 -77 -51.5t-96 -18.5q-81 0 -127.5 51t-46.5 138v341h170v-289q0 -42 20 -66t59 -24q29 0 56 15.5t42 39.5v324h170zM126 758h154l107 -154h-127z" />
    <glyph glyph-name="uacute" unicode="&#xfa;" horiz-adv-x="624" 
d="M569 516v-516h-170v56q-32 -33 -77 -51.5t-96 -18.5q-81 0 -127.5 51t-46.5 138v341h170v-289q0 -42 20 -66t59 -24q29 0 56 15.5t42 39.5v324h170zM336 758h155l-135 -154h-126z" />
    <glyph glyph-name="ucircumflex" unicode="&#xfb;" horiz-adv-x="624" 
d="M569 516v-516h-170v56q-32 -33 -77 -51.5t-96 -18.5q-81 0 -127.5 51t-46.5 138v341h170v-289q0 -42 20 -66t59 -24q29 0 56 15.5t42 39.5v324h170zM487 604h-131l-48 61l-49 -61h-126l116 154h122z" />
    <glyph glyph-name="udieresis" unicode="&#xfc;" horiz-adv-x="624" 
d="M569 516v-516h-170v56q-32 -33 -77 -51.5t-96 -18.5q-81 0 -127.5 51t-46.5 138v341h170v-289q0 -42 20 -66t59 -24q29 0 56 15.5t42 39.5v324h170zM125 750h136v-153h-136v153zM360 750h136v-153h-136v153z" />
    <glyph glyph-name="yacute" unicode="&#xfd;" horiz-adv-x="554" 
d="M540 516l-206 -576q-26 -74 -65 -107t-112 -33h-112v141h92q25 0 38 9.5t21 32.5l11 32l-193 501h173l92 -302h3l89 302h169zM302 758h155l-135 -154h-126z" />
    <glyph glyph-name="thorn" unicode="&#xfe;" horiz-adv-x="627" 
d="M481 496q52 -34 80 -95.5t28 -141.5q0 -81 -28 -143t-80 -96t-122 -34q-91 0 -139 59v-245h-165v950h165v-279q53 59 141 59q68 0 120 -34zM394.5 168.5q27.5 31.5 27.5 90.5q0 57 -27.5 88t-75.5 31q-67 0 -99 -61v-119q14 -28 39 -44.5t59 -16.5q49 0 76.5 31.5z" />
    <glyph glyph-name="ydieresis" unicode="&#xff;" horiz-adv-x="554" 
d="M540 516l-206 -576q-26 -74 -65 -107t-112 -33h-112v141h92q25 0 38 9.5t21 32.5l11 32l-193 501h173l92 -302h3l89 302h169zM91 750h136v-153h-136v153zM326 750h136v-153h-136v153z" />
    <glyph glyph-name="Amacron" unicode="&#x100;" horiz-adv-x="712" 
d="M514 0l-47 174h-224l-47 -174h-177l220 750h235l220 -750h-180zM277 300h156l-77 283h-3zM198 914h318v-73h-318v73z" />
    <glyph glyph-name="amacron" unicode="&#x101;" horiz-adv-x="585" 
d="M483.5 474q47.5 -42 47.5 -122v-352h-164v51q-26 -32 -66.5 -48.5t-92.5 -16.5q-81 0 -130 42.5t-49 114.5q0 66 43.5 108t118.5 49l176 18v17q0 40 -38 40h-254v141h269q92 0 139.5 -42zM326.5 117q29.5 18 40.5 48v50l-117 -14q-57 -7 -57 -52q0 -24 17 -37t50 -13
q37 0 66.5 18zM104 724h376v-125h-376v125z" />
    <glyph glyph-name="Abreve" unicode="&#x102;" horiz-adv-x="712" 
d="M514 0l-47 174h-224l-47 -174h-177l220 750h235l220 -750h-180zM277 300h156l-77 283h-3zM242 854q-19 21 -19 58v29h56v-12q0 -13 5.5 -19t18.5 -6h107q13 0 19 6t6 19v12h56v-29q0 -36 -20.5 -57.5t-56.5 -21.5h-115q-38 0 -57 21z" />
    <glyph glyph-name="abreve" unicode="&#x103;" horiz-adv-x="585" 
d="M483.5 474q47.5 -42 47.5 -122v-352h-164v51q-26 -32 -66.5 -48.5t-92.5 -16.5q-81 0 -130 42.5t-49 114.5q0 66 43.5 108t118.5 49l176 18v17q0 40 -38 40h-254v141h269q92 0 139.5 -42zM326.5 117q29.5 18 40.5 48v50l-117 -14q-57 -7 -57 -52q0 -24 17 -37t50 -13
q37 0 66.5 18zM153 626q-32 29 -32 83v39h117v-23q0 -37 36 -37h35q37 0 37 37v23h117v-39q0 -54 -33 -83t-95 -29h-87q-63 0 -95 29z" />
    <glyph glyph-name="Aogonek" unicode="&#x104;" horiz-adv-x="712" 
d="M536 -142q17 0 37 4t30 8v-70q-12 -5 -37 -9.5t-49 -4.5q-49 0 -77.5 20t-28.5 56q0 67 107 121l-52 191h-223l-47 -174h-177l220 750h235l220 -750q-56 -9 -103 -28t-74 -42t-27 -43q0 -29 46 -29zM277 300h155l-76 283h-3z" />
    <glyph glyph-name="aogonek" unicode="&#x105;" horiz-adv-x="585" 
d="M442 -102q24 0 39 5v-97q-12 -6 -35 -9.5t-45 -3.5q-51 0 -78.5 21.5t-27.5 58.5q0 39 29.5 71.5t76.5 55.5h-34v51q-26 -32 -66.5 -48.5t-92.5 -16.5q-81 0 -130 42.5t-49 114.5q0 66 43.5 108t118.5 49l176 18v17q0 40 -38 40h-254v141h269q92 0 139.5 -42t47.5 -122
v-352h1q-50 -20 -85 -42.5t-35 -41.5q0 -18 30 -18zM326.5 117q29.5 18 40.5 48v50l-117 -14q-57 -7 -57 -52q0 -24 17 -37t50 -13q37 0 66.5 18z" />
    <glyph glyph-name="Cacute" unicode="&#x106;" horiz-adv-x="810" 
d="M717 131q-49 -70 -127.5 -107.5t-177.5 -37.5q-111 0 -197.5 49.5t-134.5 138t-48 202.5q0 113 48 201.5t134.5 137.5t197.5 49q98 0 176 -36t127.5 -104t64.5 -162h-177q-21 69 -67.5 103.5t-123.5 34.5q-94 0 -148 -60.5t-54 -164.5t54.5 -165t147.5 -61q78 0 126 38
t67 108h175q-14 -94 -63 -164zM257 897l309 42v-75l-309 -42v75z" />
    <glyph glyph-name="cacute" unicode="&#x107;" horiz-adv-x="601" 
d="M482 42q-68 -56 -171 -56q-82 0 -143.5 34.5t-95 96t-33.5 141.5t33.5 141.5t95 96t143.5 34.5q103 0 171 -57.5t84 -160.5h-158q-14 34 -37 51.5t-60 17.5q-52 0 -81 -33t-29 -90t29 -90t81 -33q37 0 59 15.5t37 48.5h158q-15 -101 -83 -157zM336 758h155l-135 -154
h-126z" />
    <glyph glyph-name="Ccircumflex" unicode="&#x108;" horiz-adv-x="810" 
d="M717 131q-49 -70 -127.5 -107.5t-177.5 -37.5q-111 0 -197.5 49.5t-134.5 138t-48 202.5q0 113 48 201.5t134.5 137.5t197.5 49q98 0 176 -36t127.5 -104t64.5 -162h-177q-21 69 -67.5 103.5t-123.5 34.5q-94 0 -148 -60.5t-54 -164.5t54.5 -165t147.5 -61q78 0 126 38
t67 108h175q-14 -94 -63 -164zM546 900v-74l-132 39l-136 -39v74l134 41h3z" />
    <glyph glyph-name="ccircumflex" unicode="&#x109;" horiz-adv-x="601" 
d="M482 42q-68 -56 -171 -56q-82 0 -143.5 34.5t-95 96t-33.5 141.5t33.5 141.5t95 96t143.5 34.5q103 0 171 -57.5t84 -160.5h-158q-14 34 -37 51.5t-60 17.5q-52 0 -81 -33t-29 -90t29 -90t81 -33q37 0 59 15.5t37 48.5h158q-15 -101 -83 -157zM487 604h-131l-48 61
l-49 -61h-126l116 154h122z" />
    <glyph glyph-name="Cdotaccent" unicode="&#x10a;" horiz-adv-x="810" 
d="M717 131q-49 -70 -127.5 -107.5t-177.5 -37.5q-111 0 -197.5 49.5t-134.5 138t-48 202.5q0 113 48 201.5t134.5 137.5t197.5 49q98 0 176 -36t127.5 -104t64.5 -162h-177q-21 69 -67.5 103.5t-123.5 34.5q-94 0 -148 -60.5t-54 -164.5t54.5 -165t147.5 -61q78 0 126 38
t67 108h175q-14 -94 -63 -164zM332 914h160v-73h-160v73z" />
    <glyph glyph-name="cdotaccent" unicode="&#x10b;" horiz-adv-x="601" 
d="M482 42q-68 -56 -171 -56q-82 0 -143.5 34.5t-95 96t-33.5 141.5t33.5 141.5t95 96t143.5 34.5q103 0 171 -57.5t84 -160.5h-158q-14 34 -37 51.5t-60 17.5q-52 0 -81 -33t-29 -90t29 -90t81 -33q37 0 59 15.5t37 48.5h158q-15 -101 -83 -157zM243 750h136v-154h-136v154
z" />
    <glyph glyph-name="Ccaron" unicode="&#x10c;" horiz-adv-x="810" 
d="M717 131q-49 -70 -127.5 -107.5t-177.5 -37.5q-111 0 -197.5 49.5t-134.5 138t-48 202.5q0 113 48 201.5t134.5 137.5t197.5 49q98 0 176 -36t127.5 -104t64.5 -162h-177q-21 69 -67.5 103.5t-123.5 34.5q-94 0 -148 -60.5t-54 -164.5t54.5 -165t147.5 -61q78 0 126 38
t67 108h175q-14 -94 -63 -164zM414 899l132 39v-74l-131 -41h-3l-134 41v74z" />
    <glyph glyph-name="ccaron" unicode="&#x10d;" horiz-adv-x="601" 
d="M482 42q-68 -56 -171 -56q-82 0 -143.5 34.5t-95 96t-33.5 141.5t33.5 141.5t95 96t143.5 34.5q103 0 171 -57.5t84 -160.5h-158q-14 34 -37 51.5t-60 17.5q-52 0 -81 -33t-29 -90t29 -90t81 -33q37 0 59 15.5t37 48.5h158q-15 -101 -83 -157zM356 758h131l-116 -154
h-122l-116 154h126l49 -61z" />
    <glyph glyph-name="Dcaron" unicode="&#x10e;" horiz-adv-x="749" 
d="M533.5 703q88.5 -47 135.5 -131.5t47 -194.5q0 -111 -47 -196.5t-135.5 -133t-208.5 -47.5h-270v750h269q121 0 209.5 -47zM485.5 218q54.5 60 54.5 159q0 98 -54.5 158.5t-165.5 60.5h-96v-438h97q110 0 164.5 60zM317 899l132 39v-74l-131 -41h-3l-134 41v74z" />
    <glyph glyph-name="dcaron" unicode="&#x10f;" horiz-adv-x="818" 
d="M407 750h165v-750h-165v44q-49 -58 -138 -58q-70 0 -122 34t-80 95.5t-28 143.5q0 80 28 141.5t79.5 95.5t119.5 34q88 0 141 -58v278zM646 750h172l-90 -194h-123zM368 153q25 16 39 44v120q-32 61 -99 61q-48 0 -75.5 -31t-27.5 -88q0 -59 27.5 -90.5t76.5 -31.5
q34 0 59 16z" />
    <glyph glyph-name="Dcroat" unicode="&#x110;" horiz-adv-x="749" 
d="M533.5 703q88.5 -47 135.5 -131.5t47 -194.5q0 -111 -47 -196.5t-135.5 -133t-208.5 -47.5h-270v355h-53v54h53v341h269q121 0 209.5 -47zM485.5 218q54.5 60 54.5 159q0 98 -54.5 158.5t-165.5 60.5h-96v-187h130v-54h-130v-197h97q110 0 164.5 60z" />
    <glyph glyph-name="dcroat" unicode="&#x111;" horiz-adv-x="627" 
d="M630 586h-58v-586h-165v44q-49 -58 -138 -58q-70 0 -122 34t-80 95.5t-28 143.5q0 80 28 141.5t79.5 95.5t119.5 34q88 0 141 -58v114h-131v88h131v76h165v-76h58v-88zM368 153q25 16 39 44v120q-32 61 -99 61q-48 0 -75.5 -31t-27.5 -88q0 -59 27.5 -90.5t76.5 -31.5
q34 0 59 16z" />
    <glyph glyph-name="Emacron" unicode="&#x112;" horiz-adv-x="591" 
d="M229 141h328v-141h-502v750h491v-141h-317v-151h269v-136h-269v-181zM137 914h318v-73h-318v73z" />
    <glyph glyph-name="emacron" unicode="&#x113;" horiz-adv-x="617" 
d="M579 223h-381q15 -109 121 -109q34 0 58.5 10.5t36.5 26.5h158q-14 -46 -50 -84t-89.5 -59.5t-118.5 -21.5q-82 0 -144.5 34.5t-96.5 96.5t-34 144q0 78 34 139t96 95.5t143 34.5q85 0 146 -35t92 -96t31 -139q0 -19 -2 -37zM203 324h213q-9 42 -34.5 62t-69.5 20
q-87 0 -109 -82zM123 724h376v-125h-376v125z" />
    <glyph glyph-name="Ebreve" unicode="&#x114;" horiz-adv-x="591" 
d="M229 141h328v-141h-502v750h491v-141h-317v-151h269v-136h-269v-181zM181 854q-19 21 -19 58v29h56v-12q0 -13 5.5 -19t18.5 -6h107q13 0 19 6t6 19v12h56v-29q0 -36 -20.5 -57.5t-56.5 -21.5h-115q-38 0 -57 21z" />
    <glyph glyph-name="ebreve" unicode="&#x115;" horiz-adv-x="617" 
d="M579 223h-381q15 -109 121 -109q34 0 58.5 10.5t36.5 26.5h158q-14 -46 -50 -84t-89.5 -59.5t-118.5 -21.5q-82 0 -144.5 34.5t-96.5 96.5t-34 144q0 78 34 139t96 95.5t143 34.5q85 0 146 -35t92 -96t31 -139q0 -19 -2 -37zM203 324h213q-9 42 -34.5 62t-69.5 20
q-87 0 -109 -82zM173 626q-32 29 -32 83v39h117v-23q0 -37 36 -37h35q37 0 37 37v23h117v-39q0 -54 -33 -83t-95 -29h-87q-63 0 -95 29z" />
    <glyph glyph-name="Edotaccent" unicode="&#x116;" horiz-adv-x="591" 
d="M229 141h328v-141h-502v750h491v-141h-317v-151h269v-136h-269v-181zM216 914h160v-73h-160v73z" />
    <glyph glyph-name="edotaccent" unicode="&#x117;" horiz-adv-x="617" 
d="M579 223h-381q15 -109 121 -109q34 0 58.5 10.5t36.5 26.5h158q-14 -46 -50 -84t-89.5 -59.5t-118.5 -21.5q-82 0 -144.5 34.5t-96.5 96.5t-34 144q0 78 34 139t96 95.5t143 34.5q85 0 146 -35t92 -96t31 -139q0 -19 -2 -37zM203 324h213q-9 42 -34.5 62t-69.5 20
q-87 0 -109 -82zM244 750h136v-154h-136v154z" />
    <glyph glyph-name="Eogonek" unicode="&#x118;" horiz-adv-x="591" 
d="M472 -42.5q-35 -22.5 -35 -41.5q0 -18 30 -18q24 0 39 5v-97q-12 -6 -35 -9.5t-45 -3.5q-51 0 -78.5 21.5t-27.5 58.5q0 39 29.5 71.5t76.5 55.5h-371v750h491v-141h-317v-151h269v-136h-269v-181h328v-141q-50 -20 -85 -42.5z" />
    <glyph glyph-name="eogonek" unicode="&#x119;" horiz-adv-x="617" 
d="M579 223h-381q15 -109 121 -109q34 0 58.5 10.5t36.5 26.5h158q-15 -52 -57.5 -92t-103.5 -59h1q-50 -20 -85 -42.5t-35 -41.5q0 -18 30 -18q24 0 39 5v-97q-12 -6 -35 -9.5t-45 -3.5q-51 0 -78.5 21.5t-27.5 58.5q0 35 24 64.5t63 52.5q-102 15 -162.5 88t-60.5 183
q0 78 34 139t96 95.5t143 34.5q85 0 146 -35t92 -96t31 -139q0 -19 -2 -37zM203 324h213q-9 42 -34.5 62t-69.5 20q-87 0 -109 -82z" />
    <glyph glyph-name="Ecaron" unicode="&#x11a;" horiz-adv-x="591" 
d="M229 141h328v-141h-502v750h491v-141h-317v-151h269v-136h-269v-181zM311 899l132 39v-74l-131 -41h-3l-134 41v74z" />
    <glyph glyph-name="ecaron" unicode="&#x11b;" horiz-adv-x="617" 
d="M579 223h-381q15 -109 121 -109q34 0 58.5 10.5t36.5 26.5h158q-14 -46 -50 -84t-89.5 -59.5t-118.5 -21.5q-82 0 -144.5 34.5t-96.5 96.5t-34 144q0 78 34 139t96 95.5t143 34.5q85 0 146 -35t92 -96t31 -139q0 -19 -2 -37zM203 324h213q-9 42 -34.5 62t-69.5 20
q-87 0 -109 -82zM357 758h131l-116 -154h-122l-116 154h126l49 -61z" />
    <glyph glyph-name="Gcircumflex" unicode="&#x11c;" horiz-adv-x="817" 
d="M779 0h-131l-1 98q-41 -54 -102 -83t-137 -29q-110 0 -195.5 50.5t-133 139.5t-47.5 200q0 113 48 201t135 137.5t199 49.5q137 0 233 -67.5t129 -187.5h-187q-19 46 -62.5 73.5t-109.5 27.5q-97 0 -152.5 -63t-55.5 -172q0 -110 55 -174.5t153 -64.5q76 0 128 37.5
t72 103.5h-183v126h345v-403zM543 900v-74l-132 39l-136 -39v74l134 41h3z" />
    <glyph glyph-name="gcircumflex" unicode="&#x11d;" horiz-adv-x="626" 
d="M572 516v-534q0 -87 -51 -134.5t-152 -47.5h-222v131h207q53 0 53 57v76q-48 -56 -138 -56q-70 0 -122 32.5t-80 91.5t-28 137q0 76 28 135t79.5 92.5t119.5 33.5q87 0 141 -57v43h165zM367.5 168q24.5 16 39.5 42v118q-14 27 -39 42.5t-60 15.5q-48 0 -75.5 -30.5
t-27.5 -86.5t27.5 -86.5t76.5 -30.5q34 0 58.5 16zM516 604h-131l-48 61l-49 -61h-126l116 154h122z" />
    <glyph glyph-name="Gbreve" unicode="&#x11e;" horiz-adv-x="817" 
d="M779 0h-131l-1 98q-41 -54 -102 -83t-137 -29q-110 0 -195.5 50.5t-133 139.5t-47.5 200q0 113 48 201t135 137.5t199 49.5q137 0 233 -67.5t129 -187.5h-187q-19 46 -62.5 73.5t-109.5 27.5q-97 0 -152.5 -63t-55.5 -172q0 -110 55 -174.5t153 -64.5q76 0 128 37.5
t72 103.5h-183v126h345v-403zM294 854q-19 21 -19 58v29h56v-12q0 -13 5.5 -19t18.5 -6h107q13 0 19 6t6 19v12h56v-29q0 -36 -20.5 -57.5t-56.5 -21.5h-115q-38 0 -57 21z" />
    <glyph glyph-name="gbreve" unicode="&#x11f;" horiz-adv-x="626" 
d="M572 516v-534q0 -87 -51 -134.5t-152 -47.5h-222v131h207q53 0 53 57v76q-48 -56 -138 -56q-70 0 -122 32.5t-80 91.5t-28 137q0 76 28 135t79.5 92.5t119.5 33.5q87 0 141 -57v43h165zM367.5 168q24.5 16 39.5 42v118q-14 27 -39 42.5t-60 15.5q-48 0 -75.5 -30.5
t-27.5 -86.5t27.5 -86.5t76.5 -30.5q34 0 58.5 16zM201 626q-32 29 -32 83v39h117v-23q0 -37 36 -37h35q37 0 37 37v23h117v-39q0 -54 -33 -83t-95 -29h-87q-63 0 -95 29z" />
    <glyph glyph-name="Gdotaccent" unicode="&#x120;" horiz-adv-x="817" 
d="M779 0h-131l-1 98q-41 -54 -102 -83t-137 -29q-110 0 -195.5 50.5t-133 139.5t-47.5 200q0 113 48 201t135 137.5t199 49.5q137 0 233 -67.5t129 -187.5h-187q-19 46 -62.5 73.5t-109.5 27.5q-97 0 -152.5 -63t-55.5 -172q0 -110 55 -174.5t153 -64.5q76 0 128 37.5
t72 103.5h-183v126h345v-403zM329 914h160v-73h-160v73z" />
    <glyph glyph-name="gdotaccent" unicode="&#x121;" horiz-adv-x="626" 
d="M572 516v-534q0 -87 -51 -134.5t-152 -47.5h-222v131h207q53 0 53 57v76q-48 -56 -138 -56q-70 0 -122 32.5t-80 91.5t-28 137q0 76 28 135t79.5 92.5t119.5 33.5q87 0 141 -57v43h165zM367.5 168q24.5 16 39.5 42v118q-14 27 -39 42.5t-60 15.5q-48 0 -75.5 -30.5
t-27.5 -86.5t27.5 -86.5t76.5 -30.5q34 0 58.5 16zM272 750h136v-154h-136v154z" />
    <glyph glyph-name="uni0122" unicode="&#x122;" horiz-adv-x="817" 
d="M779 0h-131l-1 98q-41 -54 -102 -83t-137 -29q-110 0 -195.5 50.5t-133 139.5t-47.5 200q0 113 48 201t135 137.5t199 49.5q137 0 233 -67.5t129 -187.5h-187q-19 46 -62.5 73.5t-109.5 27.5q-97 0 -152.5 -63t-55.5 -172q0 -110 55 -174.5t153 -64.5q76 0 128 37.5
t72 103.5h-183v126h345v-403zM365 -65h124l-70 -131h-90z" />
    <glyph glyph-name="uni0123" unicode="&#x123;" horiz-adv-x="626" 
d="M572 516v-534q0 -87 -51 -134.5t-152 -47.5h-222v131h207q53 0 53 57v76q-48 -56 -138 -56q-70 0 -122 32.5t-80 91.5t-28 137q0 76 28 135t79.5 92.5t119.5 33.5q87 0 141 -57v43h165zM367.5 168q24.5 16 39.5 42v118q-14 27 -39 42.5t-60 15.5q-48 0 -75.5 -30.5
t-27.5 -86.5t27.5 -86.5t76.5 -30.5q34 0 58.5 16zM323 750h121l-41 -146h-159z" />
    <glyph glyph-name="Hcircumflex" unicode="&#x124;" horiz-adv-x="698" 
d="M469 750h174v-750h-174v323h-240v-323h-174v750h174v-286h240v286zM483 900v-74l-132 39l-136 -39v74l134 41h3z" />
    <glyph glyph-name="hcircumflex" unicode="&#x125;" horiz-adv-x="630" 
d="M530 479q48 -51 48 -138v-341h-171v287q0 43 -20 67t-61 24q-30 0 -58 -15.5t-43 -39.5v-323h-170v750h170v-291q32 34 77.5 52.5t97.5 18.5q82 0 130 -51zM274 874v-74l-132 39l-136 -39v74l134 41h3z" />
    <glyph glyph-name="Hbar" unicode="&#x126;" horiz-adv-x="698" 
d="M692 634v-66h-49v-568h-174v323h-240v-323h-174v568h-50v66h50v116h174v-116h240v116h174v-116h49zM469 464v104h-240v-104h240z" />
    <glyph glyph-name="hbar" unicode="&#x127;" horiz-adv-x="630" 
d="M530 479q48 -51 48 -138v-341h-171v287q0 43 -20 67t-61 24q-30 0 -58 -15.5t-43 -39.5v-323h-170v586h-53v88h53v76h170v-76h132v-88h-132v-127q32 34 77.5 52.5t97.5 18.5q82 0 130 -51z" />
    <glyph glyph-name="Itilde" unicode="&#x128;" horiz-adv-x="280" 
d="M55 750h171v-750h-171v750zM-19 914h318v-73h-318v73z" />
    <glyph glyph-name="itilde" unicode="&#x129;" horiz-adv-x="350" 
d="M124 375h-96v141h266v-516h-170v375zM-16 724h376v-125h-376v125z" />
    <glyph glyph-name="Imacron" unicode="&#x12a;" horiz-adv-x="280" 
d="M-17 881h315v-68h-315v68zM55 750h171v-750h-171v750z" />
    <glyph glyph-name="imacron" unicode="&#x12b;" horiz-adv-x="350" 
d="M8 732h294v-110h-294v110zM124 375h-96v141h266v-516h-170v375z" />
    <glyph glyph-name="Ibreve" unicode="&#x12c;" horiz-adv-x="280" 
d="M55 750h171v-750h-171v750zM25 854q-19 21 -19 58v29h56v-12q0 -13 5.5 -19t18.5 -6h107q13 0 19 6t6 19v12h56v-29q0 -36 -20.5 -57.5t-56.5 -21.5h-115q-38 0 -57 21z" />
    <glyph glyph-name="ibreve" unicode="&#x12d;" horiz-adv-x="350" 
d="M124 375h-96v141h266v-516h-170v375zM16 626q-32 29 -32 83v39h117v-23q0 -37 36 -37h35q37 0 37 37v23h117v-39q0 -54 -33 -83t-95 -29h-87q-63 0 -95 29z" />
    <glyph glyph-name="Iogonek" unicode="&#x12e;" horiz-adv-x="280" 
d="M91 -107q0 -25 38 -25q21 0 35 5v-75q-23 -12 -70 -12q-42 0 -67 19.5t-25 53.5q0 46 53 92v799h171v-750q-135 -65 -135 -107z" />
    <glyph glyph-name="iogonek" unicode="&#x12f;" horiz-adv-x="350" 
d="M124 750h170v-154h-170v154zM28 516h266v-516q-50 -20 -85 -43t-35 -41t30 -18q24 0 39 5v-97q-12 -6 -35 -9.5t-44 -3.5q-52 0 -79.5 21.5t-27.5 58.5q0 58 67 104v398h-96v141z" />
    <glyph glyph-name="Idotaccent" unicode="&#x130;" horiz-adv-x="280" 
d="M28 881h224v-68h-224v68zM55 750h171v-750h-171v750z" />
    <glyph glyph-name="dotlessi" unicode="&#x131;" horiz-adv-x="350" 
d="M124 375h-96v141h266v-516h-170v375z" />
    <glyph glyph-name="IJ" unicode="&#x132;" horiz-adv-x="746" 
d="M55 750h171v-750h-171v750zM484 141q47 0 47 49v419h-140v141h315v-558q0 -93 -50 -142.5t-146 -49.5h-198v141h172z" />
    <glyph glyph-name="ij" unicode="&#x133;" horiz-adv-x="701" 
d="M124 596v154h170v-154h-170zM124 375h-96v141h266v-516h-170v375zM475 596v154h170v-154h-170zM440 -59q35 0 35 37v397h-96v141h266v-555q0 -77 -44.5 -119t-133.5 -42h-156v141h129z" />
    <glyph glyph-name="Jcircumflex" unicode="&#x134;" horiz-adv-x="466" 
d="M204 141q47 0 47 49v419h-140v141h315v-558q0 -93 -50 -142.5t-146 -49.5h-198v141h172zM403 900v-74l-132 39l-136 -39v74l134 41h3z" />
    <glyph glyph-name="jcircumflex" unicode="&#x135;" horiz-adv-x="351" 
d="M90 -59q35 0 35 37v397h-96v141h266v-555q0 -77 -44.5 -119t-133.5 -42h-156v141h129zM335 604h-131l-48 61l-49 -61h-126l116 154h122z" />
    <glyph glyph-name="uni0136" unicode="&#x136;" horiz-adv-x="711" 
d="M503 0l-205 323h-69v-323h-174v750h174v-286h68l194 286h197l-237 -349l255 -401h-203zM304 -65h124l-70 -131h-90z" />
    <glyph glyph-name="uni0137" unicode="&#x137;" horiz-adv-x="595" 
d="M393 0l-121 201h-47v-201h-170v750h170v-419h46l118 185h183l-158 -242l169 -274h-190zM253 -65h124l-70 -131h-90z" />
    <glyph glyph-name="Lacute" unicode="&#x139;" horiz-adv-x="572" 
d="M377 906v-70l-289 -42v70zM229 141h310v-141h-484v750h174v-609z" />
    <glyph glyph-name="lacute" unicode="&#x13a;" horiz-adv-x="330" 
d="M53 870l223 43v-80l-223 -39v76zM95 42q-43 42 -43 119v451h-69v138h240v-573q0 -36 34 -36h50v-141h-84q-85 0 -128 42z" />
    <glyph glyph-name="uni013B" unicode="&#x13b;" horiz-adv-x="572" 
d="M229 141h310v-141h-484v750h174v-609zM247 -65h124l-70 -131h-90z" />
    <glyph glyph-name="uni013C" unicode="&#x13c;" horiz-adv-x="330" 
d="M95 42q-43 42 -43 119v451h-69v138h240v-573q0 -36 34 -36h50v-141h-84q-85 0 -128 42zM145 -65h124l-70 -131h-90z" />
    <glyph glyph-name="Lcaron" unicode="&#x13d;" horiz-adv-x="572" 
d="M229 141h310v-141h-484v750h174v-609zM513 750l-90 -195h-120l47 195h163z" />
    <glyph glyph-name="lcaron" unicode="&#x13e;" horiz-adv-x="482" 
d="M95 42q-43 42 -43 119v451h-69v138h240v-573q0 -36 34 -36h50v-141h-84q-85 0 -128 42zM268 552l41 198h173l-96 -198h-118z" />
    <glyph glyph-name="Ldot" unicode="&#x13f;" horiz-adv-x="572" 
d="M229 141h310v-141h-484v750h174v-609zM483 489v-160h-134v160h134z" />
    <glyph glyph-name="ldot" unicode="&#x140;" horiz-adv-x="424" 
d="M95 42q-43 42 -43 119v451h-69v138h240v-573q0 -36 34 -36h50v-141h-84q-85 0 -128 42zM283 253v165h137v-165h-137z" />
    <glyph glyph-name="Lslash" unicode="&#x141;" horiz-adv-x="572" 
d="M229 141h310v-141h-484v295l-50 -14v138l50 14v317h174v-269l122 34v-138l-122 -34v-202z" />
    <glyph glyph-name="lslash" unicode="&#x142;" horiz-adv-x="330" 
d="M307 141v-141h-84q-85 0 -128 42t-43 119v127l-42 -15v114l42 15v210h-69v138h240v-286l61 22v-114l-61 -22v-173q0 -36 34 -36h50z" />
    <glyph glyph-name="Nacute" unicode="&#x143;" horiz-adv-x="725" 
d="M55 0v750h169l281 -473h3v473h163v-750h-169l-282 473h-3v-473h-162zM208 897l309 42v-75l-309 -42v75z" />
    <glyph glyph-name="nacute" unicode="&#x144;" horiz-adv-x="630" 
d="M530 479q48 -51 48 -138v-341h-171v288q0 42 -20 66t-61 24q-30 0 -58 -15.5t-43 -39.5v-323h-170v516h170v-57q32 34 77.5 52.5t97.5 18.5q82 0 130 -51zM337 758h155l-135 -154h-126z" />
    <glyph glyph-name="uni0145" unicode="&#x145;" horiz-adv-x="725" 
d="M55 0v750h169l281 -473h3v473h163v-750h-169l-282 473h-3v-473h-162zM319 -65h124l-70 -131h-90z" />
    <glyph glyph-name="uni0146" unicode="&#x146;" horiz-adv-x="630" 
d="M530 479q48 -51 48 -138v-341h-171v288q0 42 -20 66t-61 24q-30 0 -58 -15.5t-43 -39.5v-323h-170v516h170v-57q32 34 77.5 52.5t97.5 18.5q82 0 130 -51zM269 -65h124l-70 -131h-90z" />
    <glyph glyph-name="Ncaron" unicode="&#x147;" horiz-adv-x="725" 
d="M55 0v750h169l281 -473h3v473h163v-750h-169l-282 473h-3v-473h-162zM365 899l132 39v-74l-131 -41h-3l-134 41v74z" />
    <glyph glyph-name="ncaron" unicode="&#x148;" horiz-adv-x="630" 
d="M530 479q48 -51 48 -138v-341h-171v288q0 42 -20 66t-61 24q-30 0 -58 -15.5t-43 -39.5v-323h-170v516h170v-57q32 34 77.5 52.5t97.5 18.5q82 0 130 -51zM364 758h131l-116 -154h-122l-116 154h126l49 -61z" />
    <glyph glyph-name="Eng" unicode="&#x14a;" horiz-adv-x="711" 
d="M671 750v-758q0 -93 -50.5 -142.5t-145.5 -49.5h-136v141h109q48 0 48 49v19l-276 464h-3v-473h-162v750h169l281 -473h3v473h163z" />
    <glyph glyph-name="eng" unicode="&#x14b;" horiz-adv-x="634" 
d="M530 479q48 -51 48 -138v-380q0 -77 -44.5 -119t-133.5 -42h-108v141h80q35 0 35 37v310q0 42 -20 66t-61 24q-30 0 -58 -15.5t-43 -39.5v-323h-170v516h170v-57q32 34 77.5 52.5t97.5 18.5q82 0 130 -51z" />
    <glyph glyph-name="Omacron" unicode="&#x14c;" horiz-adv-x="830" 
d="M216 36q-87 50 -135.5 138.5t-48.5 201.5q0 112 48.5 200.5t135.5 138t199 49.5t199.5 -49.5t135.5 -138t48 -200.5q0 -113 -48 -201.5t-135.5 -138.5t-199.5 -50t-199 50zM565.5 210.5q55.5 61.5 55.5 164.5q0 102 -55.5 163.5t-150.5 61.5t-150 -61t-55 -164t55 -164.5
t150 -61.5t150.5 61.5zM256 914h318v-73h-318v73z" />
    <glyph glyph-name="omacron" unicode="&#x14d;" horiz-adv-x="621" 
d="M166.5 20.5q-61.5 34.5 -94.5 96t-33 141.5t33 141.5t94.5 96t143.5 34.5t143.5 -34.5t95 -96t33.5 -141.5t-33.5 -141.5t-95 -96t-143.5 -34.5t-143.5 34.5zM391 167q29 33 29 91q0 57 -29 90t-81 33t-80.5 -33t-28.5 -90q0 -58 28.5 -91t80.5 -33t81 33zM122 724h376
v-125h-376v125z" />
    <glyph glyph-name="Obreve" unicode="&#x14e;" horiz-adv-x="830" 
d="M216 36q-87 50 -135.5 138.5t-48.5 201.5q0 112 48.5 200.5t135.5 138t199 49.5t199.5 -49.5t135.5 -138t48 -200.5q0 -113 -48 -201.5t-135.5 -138.5t-199.5 -50t-199 50zM565.5 210.5q55.5 61.5 55.5 164.5q0 102 -55.5 163.5t-150.5 61.5t-150 -61t-55 -164t55 -164.5
t150 -61.5t150.5 61.5zM300 854q-19 21 -19 58v29h56v-12q0 -13 5.5 -19t18.5 -6h107q13 0 19 6t6 19v12h56v-29q0 -36 -20.5 -57.5t-56.5 -21.5h-115q-38 0 -57 21z" />
    <glyph glyph-name="obreve" unicode="&#x14f;" horiz-adv-x="621" 
d="M166.5 20.5q-61.5 34.5 -94.5 96t-33 141.5t33 141.5t94.5 96t143.5 34.5t143.5 -34.5t95 -96t33.5 -141.5t-33.5 -141.5t-95 -96t-143.5 -34.5t-143.5 34.5zM391 167q29 33 29 91q0 57 -29 90t-81 33t-80.5 -33t-28.5 -90q0 -58 28.5 -91t80.5 -33t81 33zM171 626
q-32 29 -32 83v39h117v-23q0 -37 36 -37h35q37 0 37 37v23h117v-39q0 -54 -33 -83t-95 -29h-87q-63 0 -95 29z" />
    <glyph glyph-name="Ohungarumlaut" unicode="&#x150;" horiz-adv-x="830" 
d="M216 36q-87 50 -135.5 138.5t-48.5 201.5q0 112 48.5 200.5t135.5 138t199 49.5t199.5 -49.5t135.5 -138t48 -200.5q0 -113 -48 -201.5t-135.5 -138.5t-199.5 -50t-199 50zM565.5 210.5q55.5 61.5 55.5 164.5q0 102 -55.5 163.5t-150.5 61.5t-150 -61t-55 -164t55 -164.5
t150 -61.5t150.5 61.5zM375 911h111l-129 -67h-110zM571 911h112l-130 -67h-109z" />
    <glyph glyph-name="ohungarumlaut" unicode="&#x151;" horiz-adv-x="621" 
d="M166.5 20.5q-61.5 34.5 -94.5 96t-33 141.5t33 141.5t94.5 96t143.5 34.5t143.5 -34.5t95 -96t33.5 -141.5t-33.5 -141.5t-95 -96t-143.5 -34.5t-143.5 34.5zM391 167q29 33 29 91q0 57 -29 90t-81 33t-80.5 -33t-28.5 -90q0 -58 28.5 -91t80.5 -33t81 33zM271 758h120
l-98 -154h-115zM434 758h120l-103 -154h-115z" />
    <glyph glyph-name="OE" unicode="&#x152;" horiz-adv-x="1271" 
d="M1237 141v-141h-502v155q-50 -79 -132.5 -124t-187.5 -45q-112 0 -199 50t-135.5 138.5t-48.5 201.5q0 112 48.5 200.5t135.5 138t199 49.5q105 0 187.5 -44.5t132.5 -123.5v154h492v-141h-317v-151h269v-136h-269v-181h327zM566 211q56 62 56 164t-56 163.5t-151 61.5
t-150 -61t-55 -164t55 -164.5t150 -61.5t151 62z" />
    <glyph glyph-name="oe" unicode="&#x153;" horiz-adv-x="1012" 
d="M973 223h-380q15 -109 121 -109q34 0 57.5 10.5t36.5 26.5h159q-22 -72 -91.5 -118.5t-166.5 -46.5q-63 0 -114.5 23t-85.5 66q-34 -43 -85 -66t-114 -23q-82 0 -143.5 34.5t-94.5 96t-33 141.5t33 141.5t94.5 96t143.5 34.5q63 0 114 -23t84 -66q34 43 85 66t113 23
q85 0 146 -35t92 -96t31 -139q0 -28 -2 -37zM598 324h212q-9 42 -34 62t-69 20q-87 0 -109 -82zM391 167q29 33 29 91q0 57 -29 90t-81 33t-80.5 -33t-28.5 -90q0 -58 28.5 -91t80.5 -33t81 33z" />
    <glyph glyph-name="Racute" unicode="&#x154;" horiz-adv-x="631" 
d="M573.5 405q-33.5 -52 -95.5 -77l127 -328h-183l-115 308h-78v-308h-174v750h309q76 0 131 -28t83.5 -78.5t28.5 -115.5q0 -71 -33.5 -123zM229 448h119q42 0 62.5 23t20.5 58t-20 58t-62 23h-120v-162zM161 897l309 42v-75l-309 -42v75z" />
    <glyph glyph-name="racute" unicode="&#x155;" horiz-adv-x="435" 
d="M415 519v-144h-87q-37 0 -63.5 -14t-40.5 -38v-323h-170v516h170v-65q51 68 135 68h56zM261 758h155l-135 -154h-126z" />
    <glyph glyph-name="uni0156" unicode="&#x156;" horiz-adv-x="631" 
d="M573.5 405q-33.5 -52 -95.5 -77l127 -328h-183l-115 308h-78v-308h-174v750h309q76 0 131 -28t83.5 -78.5t28.5 -115.5q0 -71 -33.5 -123zM229 448h119q42 0 62.5 23t20.5 58t-20 58t-62 23h-120v-162zM267 -65h124l-70 -131h-90z" />
    <glyph glyph-name="uni0157" unicode="&#x157;" horiz-adv-x="435" 
d="M415 519v-144h-87q-37 0 -63.5 -14t-40.5 -38v-323h-170v516h170v-65q51 68 135 68h56zM80 -65h124l-70 -131h-90z" />
    <glyph glyph-name="Rcaron" unicode="&#x158;" horiz-adv-x="631" 
d="M573.5 405q-33.5 -52 -95.5 -77l127 -328h-183l-115 308h-78v-308h-174v750h309q76 0 131 -28t83.5 -78.5t28.5 -115.5q0 -71 -33.5 -123zM229 448h119q42 0 62.5 23t20.5 58t-20 58t-62 23h-120v-162zM318 899l132 39v-74l-131 -41h-3l-134 41v74z" />
    <glyph glyph-name="rcaron" unicode="&#x159;" horiz-adv-x="435" 
d="M415 519v-144h-87q-37 0 -63.5 -14t-40.5 -38v-323h-170v516h170v-65q51 68 135 68h56zM280 758h131l-116 -154h-122l-116 154h126l49 -61z" />
    <glyph glyph-name="Sacute" unicode="&#x15a;" horiz-adv-x="658" 
d="M178.5 18.5q-69.5 32.5 -108 92.5t-41.5 142h173q3 -59 41 -92.5t102 -33.5q54 0 87.5 25t33.5 65q0 48 -34.5 70t-119.5 29q-128 11 -194 66.5t-66 153.5q0 68 34 120t96 80t143 28q132 0 208.5 -62.5t83.5 -177.5h-171q-11 101 -119 101q-49 0 -78 -21.5t-29 -57.5
q0 -46 34.5 -66.5t120.5 -25.5q259 -17 259 -225q0 -74 -36 -129t-102 -84.5t-155 -29.5q-93 0 -162.5 32.5zM180 897l309 42v-75l-309 -42v75z" />
    <glyph glyph-name="sacute" unicode="&#x15b;" horiz-adv-x="557" 
d="M104 32.5q-68 46.5 -72 127.5h164q4 -27 28.5 -41t65.5 -14q39 0 61.5 13.5t22.5 36.5q0 18 -8.5 28t-32.5 16t-71 9q-116 8 -166.5 45t-50.5 108q0 81 61.5 125t175.5 44q108 0 169 -40.5t72 -116.5h-161q-16 39 -82 39q-35 0 -55 -11t-20 -30q0 -15 8 -23.5t31 -13.5
t68 -8q118 -7 169.5 -46t51.5 -117q0 -85 -63.5 -131t-179.5 -46q-118 0 -186 46.5zM307 758h155l-135 -154h-126z" />
    <glyph glyph-name="Scircumflex" unicode="&#x15c;" horiz-adv-x="658" 
d="M178.5 18.5q-69.5 32.5 -108 92.5t-41.5 142h173q3 -59 41 -92.5t102 -33.5q54 0 87.5 25t33.5 65q0 48 -34.5 70t-119.5 29q-128 11 -194 66.5t-66 153.5q0 68 34 120t96 80t143 28q132 0 208.5 -62.5t83.5 -177.5h-171q-11 101 -119 101q-49 0 -78 -21.5t-29 -57.5
q0 -46 34.5 -66.5t120.5 -25.5q259 -17 259 -225q0 -74 -36 -129t-102 -84.5t-155 -29.5q-93 0 -162.5 32.5zM464 900v-74l-132 39l-136 -39v74l134 41h3z" />
    <glyph glyph-name="scircumflex" unicode="&#x15d;" horiz-adv-x="557" 
d="M104 32.5q-68 46.5 -72 127.5h164q4 -27 28.5 -41t65.5 -14q39 0 61.5 13.5t22.5 36.5q0 18 -8.5 28t-32.5 16t-71 9q-116 8 -166.5 45t-50.5 108q0 81 61.5 125t175.5 44q108 0 169 -40.5t72 -116.5h-161q-16 39 -82 39q-35 0 -55 -11t-20 -30q0 -15 8 -23.5t31 -13.5
t68 -8q118 -7 169.5 -46t51.5 -117q0 -85 -63.5 -131t-179.5 -46q-118 0 -186 46.5zM458 604h-131l-48 61l-49 -61h-126l116 154h122z" />
    <glyph glyph-name="Scedilla" unicode="&#x15e;" horiz-adv-x="658" 
d="M574 70q-60 -63 -165 -79v-65q0 -61 -33 -93.5t-94 -32.5h-69v102h39q23 0 33 9.5t10 31.5v45q-121 12 -191.5 82t-74.5 183h173q3 -59 41 -92.5t102 -33.5q54 0 87.5 25t33.5 65q0 48 -34.5 70t-119.5 29q-128 11 -194 66.5t-66 153.5q0 68 34 120t96 80t143 28
q132 0 208.5 -62.5t83.5 -177.5h-171q-11 101 -119 101q-49 0 -78 -21.5t-29 -57.5q0 -46 34.5 -66.5t120.5 -25.5q259 -17 259 -225q0 -96 -60 -159z" />
    <glyph glyph-name="scedilla" unicode="&#x15f;" horiz-adv-x="557" 
d="M491 50q-42 -44 -122 -58v-66q0 -61 -33 -93.5t-94 -32.5h-69v102h39q22 0 32.5 10t10.5 31v44q-102 7 -160.5 52.5t-62.5 120.5h164q4 -27 28.5 -41t65.5 -14q39 0 61.5 13.5t22.5 36.5q0 18 -8.5 28t-32.5 16t-71 9q-116 8 -166.5 45t-50.5 108q0 81 61.5 125t175.5 44
q108 0 169 -40.5t72 -116.5h-161q-16 39 -82 39q-35 0 -55 -11t-20 -30q0 -15 8 -23.5t31 -13.5t68 -8q118 -7 169.5 -46t51.5 -117q0 -69 -42 -113z" />
    <glyph glyph-name="Scaron" unicode="&#x160;" horiz-adv-x="658" 
d="M178.5 18.5q-69.5 32.5 -108 92.5t-41.5 142h173q3 -59 41 -92.5t102 -33.5q54 0 87.5 25t33.5 65q0 48 -34.5 70t-119.5 29q-128 11 -194 66.5t-66 153.5q0 68 34 120t96 80t143 28q132 0 208.5 -62.5t83.5 -177.5h-171q-11 101 -119 101q-49 0 -78 -21.5t-29 -57.5
q0 -46 34.5 -66.5t120.5 -25.5q259 -17 259 -225q0 -74 -36 -129t-102 -84.5t-155 -29.5q-93 0 -162.5 32.5zM332 899l132 39v-74l-131 -41h-3l-134 41v74z" />
    <glyph glyph-name="scaron" unicode="&#x161;" horiz-adv-x="557" 
d="M104 32.5q-68 46.5 -72 127.5h164q4 -27 28.5 -41t65.5 -14q39 0 61.5 13.5t22.5 36.5q0 18 -8.5 28t-32.5 16t-71 9q-116 8 -166.5 45t-50.5 108q0 81 61.5 125t175.5 44q108 0 169 -40.5t72 -116.5h-161q-16 39 -82 39q-35 0 -55 -11t-20 -30q0 -15 8 -23.5t31 -13.5
t68 -8q118 -7 169.5 -46t51.5 -117q0 -85 -63.5 -131t-179.5 -46q-118 0 -186 46.5zM327 758h131l-116 -154h-122l-116 154h126l49 -61z" />
    <glyph glyph-name="uni0162" unicode="&#x162;" horiz-adv-x="637" 
d="M611 750v-141h-205v-609h-30v-74q0 -61 -33 -93.5t-94 -32.5h-69v102h39q23 0 33 9.5t10 31.5v57h-31v609h-204v141h584z" />
    <glyph glyph-name="uni0163" unicode="&#x163;" horiz-adv-x="428" 
d="M263 375v-194q0 -40 37 -40h105v-141h-84v-74q0 -61 -33 -93.5t-94 -32.5h-69v102h39q23 0 33 9.5t10 31.5v65q-57 14 -85.5 53.5t-28.5 99.5v214h-81v141h81v167h170v-167h142v-141h-142z" />
    <glyph glyph-name="Tcaron" unicode="&#x164;" horiz-adv-x="637" 
d="M231 0v609h-204v141h584v-141h-205v-609h-175zM321 899l132 39v-74l-131 -41h-3l-134 41v74z" />
    <glyph glyph-name="tcaron" unicode="&#x165;" horiz-adv-x="529" 
d="M323 585l33 165h173l-84 -165h-122zM139 42q-46 42 -46 119v214h-81v141h81v167h170v-167h142v-141h-142v-194q0 -40 37 -40h105v-141h-129q-91 0 -137 42z" />
    <glyph glyph-name="Tbar" unicode="&#x166;" horiz-adv-x="637" 
d="M611 609h-205v-206h92v-70h-92v-333h-175v333h-92v70h92v206h-204v141h584v-141z" />
    <glyph glyph-name="tbar" unicode="&#x167;" horiz-adv-x="428" 
d="M263 375v-74h67v-88h-67v-32q0 -40 37 -40h105v-141h-129q-91 0 -137 42t-46 119v52h-61v88h61v74h-81v141h81v167h170v-167h142v-141h-142z" />
    <glyph glyph-name="Utilde" unicode="&#x168;" horiz-adv-x="740" 
d="M654.5 137q-39.5 -73 -113 -112t-171.5 -39t-171 39t-113 112t-40 172v441h175v-452q0 -71 40 -114t109 -43q71 0 110.5 43t39.5 114v452h174v-441q0 -99 -39.5 -172zM211 914h318v-73h-318v73z" />
    <glyph glyph-name="utilde" unicode="&#x169;" horiz-adv-x="624" 
d="M569 516v-516h-170v56q-32 -33 -77 -51.5t-96 -18.5q-81 0 -127.5 51t-46.5 138v341h170v-289q0 -42 20 -66t59 -24q29 0 56 15.5t42 39.5v324h170zM122 724h376v-125h-376v125z" />
    <glyph glyph-name="Umacron" unicode="&#x16a;" horiz-adv-x="740" 
d="M654.5 137q-39.5 -73 -113 -112t-171.5 -39t-171 39t-113 112t-40 172v441h175v-452q0 -71 40 -114t109 -43q71 0 110.5 43t39.5 114v452h174v-441q0 -99 -39.5 -172zM211 914h318v-73h-318v73z" />
    <glyph glyph-name="umacron" unicode="&#x16b;" horiz-adv-x="624" 
d="M569 516v-516h-170v56q-32 -33 -77 -51.5t-96 -18.5q-81 0 -127.5 51t-46.5 138v341h170v-289q0 -42 20 -66t59 -24q29 0 56 15.5t42 39.5v324h170zM122 724h376v-125h-376v125z" />
    <glyph glyph-name="Ubreve" unicode="&#x16c;" horiz-adv-x="740" 
d="M654.5 137q-39.5 -73 -113 -112t-171.5 -39t-171 39t-113 112t-40 172v441h175v-452q0 -71 40 -114t109 -43q71 0 110.5 43t39.5 114v452h174v-441q0 -99 -39.5 -172zM255 854q-19 21 -19 58v29h56v-12q0 -13 5.5 -19t18.5 -6h107q13 0 19 6t6 19v12h56v-29
q0 -36 -20.5 -57.5t-56.5 -21.5h-115q-38 0 -57 21z" />
    <glyph glyph-name="ubreve" unicode="&#x16d;" horiz-adv-x="624" 
d="M569 516v-516h-170v56q-32 -33 -77 -51.5t-96 -18.5q-81 0 -127.5 51t-46.5 138v341h170v-289q0 -42 20 -66t59 -24q29 0 56 15.5t42 39.5v324h170zM171 626q-32 29 -32 83v39h117v-23q0 -37 36 -37h35q37 0 37 37v23h117v-39q0 -54 -33 -83t-95 -29h-87q-63 0 -95 29z
" />
    <glyph glyph-name="Uring" unicode="&#x16e;" horiz-adv-x="740" 
d="M654.5 137q-39.5 -73 -113 -112t-171.5 -39t-171 39t-113 112t-40 172v441h175v-452q0 -71 40 -114t109 -43q71 0 110.5 43t39.5 114v452h174v-441q0 -99 -39.5 -172zM293 835.5q-27 17.5 -27 48.5q0 33 27.5 50t76.5 17q48 0 76 -17.5t28 -49.5q0 -31 -28 -48.5
t-76 -17.5q-50 0 -77 17.5zM425 884q0 14 -14 19.5t-41 5.5q-26 0 -40 -5.5t-14 -19.5q0 -23 54 -23q55 0 55 23z" />
    <glyph glyph-name="uring" unicode="&#x16f;" horiz-adv-x="624" 
d="M569 516v-516h-170v56q-32 -33 -77 -51.5t-96 -18.5q-81 0 -127.5 51t-46.5 138v341h170v-289q0 -42 20 -66t59 -24q29 0 56 15.5t42 39.5v324h170zM239.5 613q-29.5 29 -29.5 71q0 41 29.5 70t70.5 29q42 0 71.5 -29t29.5 -70q0 -42 -29.5 -71t-71.5 -29q-41 0 -70.5 29
zM335.5 659q10.5 10 10.5 25q0 14 -10.5 23.5t-25.5 9.5q-14 0 -24.5 -9.5t-10.5 -23.5q0 -15 10.5 -25t24.5 -10q15 0 25.5 10z" />
    <glyph glyph-name="Uhungarumlaut" unicode="&#x170;" horiz-adv-x="740" 
d="M654.5 137q-39.5 -73 -113 -112t-171.5 -39t-171 39t-113 112t-40 172v441h175v-452q0 -71 40 -114t109 -43q71 0 110.5 43t39.5 114v452h174v-441q0 -99 -39.5 -172zM330 911h111l-129 -67h-110zM526 911h112l-130 -67h-109z" />
    <glyph glyph-name="uhungarumlaut" unicode="&#x171;" horiz-adv-x="624" 
d="M569 516v-516h-170v56q-32 -33 -77 -51.5t-96 -18.5q-81 0 -127.5 51t-46.5 138v341h170v-289q0 -42 20 -66t59 -24q29 0 56 15.5t42 39.5v324h170zM271 758h120l-98 -154h-115zM434 758h120l-103 -154h-115z" />
    <glyph glyph-name="Uogonek" unicode="&#x172;" horiz-adv-x="740" 
d="M694 750v-441q0 -134 -70.5 -218t-194.5 -101q-41 -25 -63 -50.5t-22 -46.5q0 -25 38 -25q21 0 36 5v-75q-23 -12 -70 -12q-43 0 -67.5 19.5t-24.5 53.5q0 35 23 68t60 60q-89 6 -155 46.5t-102 111.5t-36 164v441h175v-452q0 -71 40 -114t109 -43q71 0 110.5 43
t39.5 114v452h174z" />
    <glyph glyph-name="uogonek" unicode="&#x173;" horiz-adv-x="624" 
d="M484 -42.5q-35 -22.5 -35 -41.5q0 -18 30 -18q24 0 39 5v-97q-12 -6 -35 -9.5t-45 -3.5q-51 0 -78.5 21.5t-27.5 58.5q0 39 29.5 71.5t76.5 55.5h-39v56q-32 -33 -77 -51.5t-96 -18.5q-81 0 -127.5 51t-46.5 138v341h170v-289q0 -42 20 -66t59 -24q29 0 56 15.5t42 39.5
v324h170v-516q-50 -20 -85 -42.5z" />
    <glyph glyph-name="Wcircumflex" unicode="&#x174;" horiz-adv-x="1050" 
d="M858 750h173l-192 -750h-195l-119 471l-119 -471h-195l-192 750h172l120 -522h3l129 486h164l128 -486h3zM659 900v-74l-132 39l-136 -39v74l134 41h3z" />
    <glyph glyph-name="wcircumflex" unicode="&#x175;" horiz-adv-x="828" 
d="M650 516h164l-122 -516h-208l-70 294l-70 -294h-208l-122 516h164l71 -349h3l87 327h150l86 -327h3zM591 604h-131l-48 61l-49 -61h-126l116 154h122z" />
    <glyph glyph-name="Ycircumflex" unicode="&#x176;" horiz-adv-x="668" 
d="M652 750l-231 -514v-236h-174v239l-231 511h178l138 -346h3l139 346h178zM468 900v-74l-132 39l-136 -39v74l134 41h3z" />
    <glyph glyph-name="ycircumflex" unicode="&#x177;" horiz-adv-x="554" 
d="M540 516l-206 -576q-26 -74 -65 -107t-112 -33h-112v141h92q25 0 38 9.5t21 32.5l11 32l-193 501h173l92 -302h3l89 302h169zM453 604h-131l-48 61l-49 -61h-126l116 154h122z" />
    <glyph glyph-name="Ydieresis" unicode="&#x178;" horiz-adv-x="668" 
d="M652 750l-231 -514v-236h-174v239l-231 511h178l138 -346h3l139 346h178zM140 914h151v-73h-151v73zM378 914h151v-73h-151v73z" />
    <glyph glyph-name="Zacute" unicode="&#x179;" horiz-adv-x="665" 
d="M30 0v123l395 483v3h-380v141h581v-140l-379 -466v-3h387v-141h-604zM207 897l309 42v-75l-309 -42v75z" />
    <glyph glyph-name="zacute" unicode="&#x17a;" horiz-adv-x="527" 
d="M31 0v100l252 272v3h-239v141h443v-119l-233 -253v-3h243v-141h-466zM289 758h155l-135 -154h-126z" />
    <glyph glyph-name="Zdotaccent" unicode="&#x17b;" horiz-adv-x="665" 
d="M30 0v123l395 483v3h-380v141h581v-140l-379 -466v-3h387v-141h-604zM253 914h160v-73h-160v73z" />
    <glyph glyph-name="zdotaccent" unicode="&#x17c;" horiz-adv-x="527" 
d="M31 0v100l252 272v3h-239v141h443v-119l-233 -253v-3h243v-141h-466zM196 750h136v-154h-136v154z" />
    <glyph glyph-name="Zcaron" unicode="&#x17d;" horiz-adv-x="665" 
d="M30 0v123l395 483v3h-380v141h581v-140l-379 -466v-3h387v-141h-604zM335 899l132 39v-74l-131 -41h-3l-134 41v74z" />
    <glyph glyph-name="zcaron" unicode="&#x17e;" horiz-adv-x="527" 
d="M31 0v100l252 272v3h-239v141h443v-119l-233 -253v-3h243v-141h-466zM309 758h131l-116 -154h-122l-116 154h126l49 -61z" />
    <glyph glyph-name="florin" unicode="&#x192;" horiz-adv-x="368" 
d="M8 -71h50q38 0 38 38v417h-82v132h82v71q0 78 47 120.5t140 42.5h70v-129h-48q-39 0 -39 -38v-67h87v-132h-87v-421q0 -78 -47 -120.5t-140 -42.5h-71v129z" />
    <glyph glyph-name="Aringacute" unicode="&#x1fa;" horiz-adv-x="712" 
d="M279 835.5q-27 17.5 -27 48.5q0 30 23 47t65 20l31 48h59l-41 -50q34 -5 52.5 -21.5t18.5 -43.5q0 -31 -28 -48.5t-76 -17.5q-50 0 -77 17.5zM316 903.5q-14 -5.5 -14 -19.5q0 -23 54 -23q55 0 55 23q0 14 -14.5 19.5t-40.5 5.5t-40 -5.5zM514 0l-47 174h-224l-47 -174
h-177l220 750h235l220 -750h-180zM277 300h156l-77 283h-3z" />
    <glyph glyph-name="aringacute" unicode="&#x1fb;" horiz-adv-x="585" 
d="M221.5 613q-29.5 29 -29.5 71q0 31 18 56.5t48 36.5l60 105h155l-112 -126q15 -14 23.5 -32.5t8.5 -39.5q0 -42 -29.5 -71t-70.5 -29q-42 0 -71.5 29zM317.5 659q10.5 10 10.5 25q0 14 -10.5 23.5t-24.5 9.5q-15 0 -25.5 -9.5t-10.5 -23.5q0 -15 10.5 -25t25.5 -10
q14 0 24.5 10zM483.5 474q47.5 -42 47.5 -122v-352h-164v51q-26 -32 -66.5 -48.5t-92.5 -16.5q-81 0 -130 42.5t-49 114.5q0 66 43.5 108t118.5 49l176 18v17q0 40 -38 40h-254v141h269q92 0 139.5 -42zM326.5 117q29.5 18 40.5 48v50l-117 -14q-57 -7 -57 -52q0 -24 17 -37
t50 -13q37 0 66.5 18z" />
    <glyph glyph-name="AEacute" unicode="&#x1fc;" horiz-adv-x="937" 
d="M613 141h290v-141h-465v174h-174l-68 -174h-177l311 750h563v-141h-280v-151h232v-136h-232v-181zM314 300h124v309h-3zM445 897l309 42v-75l-309 -42v75z" />
    <glyph glyph-name="aeacute" unicode="&#x1fd;" horiz-adv-x="952" 
d="M914 223h-381q7 -54 38 -81.5t83 -27.5q34 0 58.5 10.5t36.5 26.5h158q-14 -46 -49.5 -83.5t-88 -59.5t-114.5 -22q-66 0 -117.5 27t-84.5 77q-83 -104 -238 -104q-85 0 -135.5 42.5t-50.5 114.5q0 66 43.5 108t118.5 49l176 18v17q0 40 -38 40h-254v141h269
q99 0 146 -48q69 62 163 62q82 0 141.5 -35t90.5 -96.5t31 -138.5q0 -19 -2 -37zM538 324h213q-9 42 -34.5 62t-69.5 20q-87 0 -109 -82zM326 117.5q30 18.5 41 47.5v50l-117 -14q-57 -7 -57 -52q0 -24 17 -37t48 -13q38 0 68 18.5zM515 758h155l-135 -154h-126z" />
    <glyph glyph-name="Oslashacute" unicode="&#x1fe;" horiz-adv-x="830" 
d="M704 642q45 -52 69.5 -119.5t24.5 -146.5q0 -113 -48 -201.5t-135.5 -138.5t-199.5 -50q-67 0 -126.5 18.5t-106.5 53.5l-52 -58h-101l97 109q-46 52 -70 120t-24 147q0 112 48.5 200.5t135.5 138t199 49.5q135 0 234 -72l52 58h100zM244 240l291 325q-49 35 -120 35
q-95 0 -150 -61t-55 -164q0 -79 34 -135zM587 510l-292 -326q51 -35 120 -35q95 0 150.5 61.5t55.5 164.5q0 79 -34 135zM260 897l309 42v-75l-309 -42v75z" />
    <glyph glyph-name="oslashacute" unicode="&#x1ff;" horiz-adv-x="621" 
d="M519 443q63 -72 63 -185q0 -80 -33.5 -141.5t-95 -96t-143.5 -34.5q-103 0 -174 55l-39 -41h-65l70 73q-63 72 -63 185q0 80 33 141.5t94.5 96t143.5 34.5q103 0 174 -55l39 41h66zM214 191l162 171q-27 19 -66 19q-52 0 -80.5 -33t-28.5 -90q0 -40 13 -67zM406 325
l-162 -171q26 -20 66 -20q52 0 81 33t29 91q0 37 -14 67zM337 758h155l-135 -154h-126z" />
    <glyph glyph-name="uni0218" unicode="&#x218;" horiz-adv-x="658" 
d="M178.5 18.5q-69.5 32.5 -108 92.5t-41.5 142h173q3 -59 41 -92.5t102 -33.5q54 0 87.5 25t33.5 65q0 48 -34.5 70t-119.5 29q-128 11 -194 66.5t-66 153.5q0 68 34 120t96 80t143 28q132 0 208.5 -62.5t83.5 -177.5h-171q-11 101 -119 101q-49 0 -78 -21.5t-29 -57.5
q0 -46 34.5 -66.5t120.5 -25.5q259 -17 259 -225q0 -74 -36 -129t-102 -84.5t-155 -29.5q-93 0 -162.5 32.5zM295 -65h124l-70 -131h-90z" />
    <glyph glyph-name="uni0219" unicode="&#x219;" horiz-adv-x="557" 
d="M104 32.5q-68 46.5 -72 127.5h164q4 -27 28.5 -41t65.5 -14q39 0 61.5 13.5t22.5 36.5q0 18 -8.5 28t-32.5 16t-71 9q-116 8 -166.5 45t-50.5 108q0 81 61.5 125t175.5 44q108 0 169 -40.5t72 -116.5h-161q-16 39 -82 39q-35 0 -55 -11t-20 -30q0 -15 8 -23.5t31 -13.5
t68 -8q118 -7 169.5 -46t51.5 -117q0 -85 -63.5 -131t-179.5 -46q-118 0 -186 46.5zM245 -65h124l-70 -131h-90z" />
    <glyph glyph-name="uni021A" unicode="&#x21a;" horiz-adv-x="637" 
d="M231 0v609h-204v141h584v-141h-205v-609h-175zM260 -65h124l-70 -131h-90z" />
    <glyph glyph-name="uni021B" unicode="&#x21b;" horiz-adv-x="428" 
d="M139 42q-46 42 -46 119v214h-81v141h81v167h170v-167h142v-141h-142v-194q0 -40 37 -40h105v-141h-129q-91 0 -137 42zM218 -65h124l-70 -131h-90z" />
    <glyph glyph-name="circumflex" unicode="&#x2c6;" horiz-adv-x="454" 
d="M404 604h-131l-48 61l-49 -61h-126l116 154h122z" />
    <glyph glyph-name="caron" unicode="&#x2c7;" horiz-adv-x="454" 
d="M273 758h131l-116 -154h-122l-116 154h126l49 -61z" />
    <glyph glyph-name="breve" unicode="&#x2d8;" horiz-adv-x="442" 
d="M82 626q-32 29 -32 83v39h117v-23q0 -37 36 -37h35q37 0 37 37v23h117v-39q0 -54 -33 -83t-95 -29h-87q-63 0 -95 29z" />
    <glyph glyph-name="dotaccent" unicode="&#x2d9;" horiz-adv-x="236" 
d="M50 750h136v-154h-136v154z" />
    <glyph glyph-name="ring" unicode="&#x2da;" horiz-adv-x="301" 
d="M79.5 613q-29.5 29 -29.5 71q0 41 29.5 70t70.5 29q42 0 71.5 -29t29.5 -70q0 -42 -29.5 -71t-71.5 -29q-41 0 -70.5 29zM175.5 659q10.5 10 10.5 25q0 14 -10.5 23.5t-25.5 9.5q-14 0 -24.5 -9.5t-10.5 -23.5q0 -15 10.5 -25t24.5 -10q15 0 25.5 10z" />
    <glyph glyph-name="ogonek" unicode="&#x2db;" horiz-adv-x="337" 
d="M77.5 -185.5q-27.5 21.5 -27.5 58.5q0 49 45.5 87.5t109.5 59.5l82 -20q-50 -20 -85 -42.5t-35 -41.5q0 -18 30 -18q24 0 39 5v-97q-12 -6 -35 -9.5t-45 -3.5q-51 0 -78.5 21.5z" />
    <glyph glyph-name="tilde" unicode="&#x2dc;" horiz-adv-x="413" 
d="M50 724h376v-125h-376v125z" />
    <glyph glyph-name="hungarumlaut" unicode="&#x2dd;" horiz-adv-x="476" 
d="M143 758h120l-98 -154h-115zM306 758h120l-103 -154h-115z" />
    <glyph glyph-name="gravecomb" unicode="&#x300;" 
d="M-261 758h154l107 -154h-127z" />
    <glyph glyph-name="acutecomb" unicode="&#x301;" 
d="M-155 758h155l-135 -154h-126z" />
    <glyph glyph-name="uni0302" unicode="&#x302;" 
d="M0 604h-131l-48 61l-49 -61h-126l116 154h122z" />
    <glyph glyph-name="tildecomb" unicode="&#x303;" 
d="M-376 724h376v-125h-376v125z" />
    <glyph glyph-name="uni0304" unicode="&#x304;" 
d="M-376 724h376v-125h-376v125z" />
    <glyph glyph-name="uni0306" unicode="&#x306;" 
d="M-310 626q-32 29 -32 83v39h117v-23q0 -37 36 -37h35q37 0 37 37v23h117v-39q0 -54 -33 -83t-95 -29h-87q-63 0 -95 29z" />
    <glyph glyph-name="uni0307" unicode="&#x307;" 
d="M-136 750h136v-154h-136v154z" />
    <glyph glyph-name="uni0308" unicode="&#x308;" 
d="M-371 750h136v-153h-136v153zM-136 750h136v-153h-136v153z" />
    <glyph glyph-name="uni030A" unicode="&#x30a;" 
d="M-171.5 613q-29.5 29 -29.5 71q0 41 29.5 70t70.5 29q42 0 71.5 -29t29.5 -70q0 -42 -29.5 -71t-71.5 -29q-41 0 -70.5 29zM-75.5 659q10.5 10 10.5 25q0 14 -10.5 23.5t-25.5 9.5q-14 0 -24.5 -9.5t-10.5 -23.5q0 -15 10.5 -25t24.5 -10q15 0 25.5 10z" />
    <glyph glyph-name="uni030B" unicode="&#x30b;" 
d="M-283 758h120l-98 -154h-115zM-120 758h120l-103 -154h-115z" />
    <glyph glyph-name="uni030C" unicode="&#x30c;" 
d="M-131 758h131l-116 -154h-122l-116 154h126l49 -61z" />
    <glyph glyph-name="uni0326" unicode="&#x326;" 
d="M-124 -65h124l-70 -131h-90z" />
    <glyph glyph-name="uni0327" unicode="&#x327;" 
d="M-157 -98q23 0 33 9.5t10 31.5v82h114v-99q0 -61 -33 -93.5t-94 -32.5h-69v102h39z" />
    <glyph glyph-name="uni0328" unicode="&#x328;" 
d="M-209.5 -185.5q-27.5 21.5 -27.5 58.5q0 49 45.5 87.5t109.5 59.5l82 -20q-50 -20 -85 -42.5t-35 -41.5q0 -18 30 -18q24 0 39 5v-97q-12 -6 -35 -9.5t-45 -3.5q-51 0 -78.5 21.5z" />
    <glyph glyph-name="pi" unicode="&#x3c0;" horiz-adv-x="688" 
d="M576 386v-240q0 -36 37 -36q19 0 28 5v-114q-30 -15 -81 -15q-77 0 -115.5 33t-38.5 103v264h-132v-386h-170v386h-80v130h639v-130h-87z" />
    <glyph glyph-name="uni060C" unicode="&#x60c;" horiz-adv-x="306" 
d="M196 -15h-172l120 303h123z" />
    <glyph glyph-name="uni060C" horiz-adv-x="306" 
d="M196 -15h-172l120 303h123z" />
    <glyph glyph-name="uni061B" unicode="&#x61b;" horiz-adv-x="300" 
d="M265 570l-70 -303h-165l120 303h115zM194 146v-160h-154v160h154z" />
    <glyph glyph-name="uni061B" horiz-adv-x="300" 
d="M265 570l-70 -303h-165l120 303h115zM194 146v-160h-154v160h154z" />
    <glyph glyph-name="uni061F" unicode="&#x61f;" horiz-adv-x="575" 
d="M368 513v12q0 35 -21.5 58.5t-59.5 23.5q-37 0 -56.5 -22t-19.5 -50q0 -24 12 -43t35 -37l130 -103v-118h-170v60l-64 54q-42 35 -67 61t-41 61.5t-16 81.5q0 55 29 104t85.5 78.5t133.5 29.5q81 0 139 -31t88.5 -85.5t30.5 -123.5v-11h-168zM218 0v154h170v-154h-170z
" />
    <glyph glyph-name="uni061F" horiz-adv-x="575" 
d="M368 513v12q0 35 -21.5 58.5t-59.5 23.5q-37 0 -56.5 -22t-19.5 -50q0 -24 12 -43t35 -37l130 -103v-118h-170v60l-64 54q-42 35 -67 61t-41 61.5t-16 81.5q0 55 29 104t85.5 78.5t133.5 29.5q81 0 139 -31t88.5 -85.5t30.5 -123.5v-11h-168zM218 0v154h170v-154h-170z
" />
    <glyph glyph-name="uni0621" unicode="&#x621;" horiz-adv-x="518" 
d="M471 164v-164h-447v164h58q-15 32 -15 74q0 90 57 141.5t171 51.5q41 0 77.5 -7.5t62.5 -17.5l-22 -155q-64 13 -120 13q-43 0 -65.5 -14.5t-22.5 -37.5t14.5 -35.5t50.5 -12.5h201z" />
    <glyph glyph-name="uni0621" horiz-adv-x="518" 
d="M471 164v-164h-447v164h58q-15 32 -15 74q0 90 57 141.5t171 51.5q41 0 77.5 -7.5t62.5 -17.5l-22 -155q-64 13 -120 13q-43 0 -65.5 -14.5t-22.5 -37.5t14.5 -35.5t50.5 -12.5h201z" />
    <glyph glyph-name="uni0622" unicode="&#x622;" horiz-adv-x="258" 
d="M59 613h141v-613h-141v613zM233 686.5q-21 -8.5 -43 -8.5q-26 0 -66 12q-31 9 -47 9q-30 0 -62 -16l-17 72q15 11 37.5 19t45.5 8q14 0 27 -3t25 -7q29 -11 57 -11q29 0 61 16l14 -72q-11 -10 -32 -18.5z" />
    <glyph glyph-name="uni0622" horiz-adv-x="258" 
d="M59 613h141v-613h-141v613zM233 686.5q-21 -8.5 -43 -8.5q-26 0 -66 12q-31 9 -47 9q-30 0 -62 -16l-17 72q15 11 37.5 19t45.5 8q14 0 27 -3t25 -7q29 -11 57 -11q29 0 61 16l14 -72q-11 -10 -32 -18.5z" />
    <glyph glyph-name="uni0623" unicode="&#x623;" horiz-adv-x="258" 
d="M59 613h141v-613h-141v613zM229 759v-77h-201v69h28q-14 16 -14 46q0 44 29.5 68t77.5 24q38 0 70 -13l-13 -68q-28 5 -57 5q-21 0 -33 -7t-12 -21t7.5 -20t27.5 -6h90z" />
    <glyph glyph-name="uni0623" horiz-adv-x="258" 
d="M59 613h141v-613h-141v613zM229 759v-77h-201v69h28q-14 16 -14 46q0 44 29.5 68t77.5 24q38 0 70 -13l-13 -68q-28 5 -57 5q-21 0 -33 -7t-12 -21t7.5 -20t27.5 -6h90z" />
    <glyph glyph-name="uni0624" unicode="&#x624;" horiz-adv-x="540" 
d="M404.5 463.5q51.5 -15.5 88.5 -37.5v-437q0 -103 -50 -154.5t-164 -51.5h-228v164h242q34 0 47 9t13 35v75q-18 -26 -48 -40.5t-80 -14.5q-101 0 -151 59.5t-50 147.5q0 77 34 136t96 92t144 33q55 0 106.5 -15.5zM353 199v90q-33 18 -80 18q-53 0 -79.5 -19.5
t-26.5 -53.5q0 -28 23 -45t68 -17q68 0 95 27zM376 625v-77h-201v69h28q-14 16 -14 46q0 44 29.5 68t77.5 24q38 0 70 -13l-13 -68q-28 5 -57 5q-21 0 -33 -7t-12 -21t7.5 -20t27.5 -6h90z" />
    <glyph glyph-name="uni0624" horiz-adv-x="540" 
d="M404.5 463.5q51.5 -15.5 88.5 -37.5v-437q0 -103 -50 -154.5t-164 -51.5h-228v164h242q34 0 47 9t13 35v75q-18 -26 -48 -40.5t-80 -14.5q-101 0 -151 59.5t-50 147.5q0 77 34 136t96 92t144 33q55 0 106.5 -15.5zM353 199v90q-33 18 -80 18q-53 0 -79.5 -19.5
t-26.5 -53.5q0 -28 23 -45t68 -17q68 0 95 27zM376 625v-77h-201v69h28q-14 16 -14 46q0 44 29.5 68t77.5 24q38 0 70 -13l-13 -68q-28 5 -57 5q-21 0 -33 -7t-12 -21t7.5 -20t27.5 -6h90z" />
    <glyph glyph-name="uni0625" unicode="&#x625;" horiz-adv-x="250" 
d="M59 713h141v-613h-141v613zM227 -73v-77h-201v69h28q-14 16 -14 46q0 44 29.5 68t77.5 24q38 0 70 -13l-13 -68q-28 5 -57 5q-21 0 -33 -7t-12 -21t7.5 -20t27.5 -6h90z" />
    <glyph glyph-name="uni0625" horiz-adv-x="250" 
d="M59 713h141v-613h-141v613zM227 -73v-77h-201v69h28q-14 16 -14 46q0 44 29.5 68t77.5 24q38 0 70 -13l-13 -68q-28 5 -57 5q-21 0 -33 -7t-12 -21t7.5 -20t27.5 -6h90z" />
    <glyph glyph-name="uni0626" unicode="&#x626;" horiz-adv-x="876" 
d="M176 -179.5q-85 43.5 -116 117.5t-31 182q0 60 10 122t23 95h138q-9 -31 -18.5 -87.5t-9.5 -116.5q0 -72 23 -111.5t77 -56t154 -16.5q148 0 201.5 16.5t53.5 45.5q0 23 -10 32.5t-36 13.5l-106 16q-74 11 -114 33.5t-57.5 66t-17.5 120.5q0 74 33 129t93 84t139 29
q45 0 95.5 -12.5t83.5 -34.5l-39 -149q-32 11 -64.5 18t-78.5 7q-62 0 -90.5 -15.5t-28.5 -49.5q0 -33 16 -45t63 -18l105 -13q62 -7 96 -30t47.5 -63t13.5 -105q0 -80 -37.5 -134.5t-127.5 -84t-243 -29.5q-155 0 -240 43.5zM226 482v-77h-201v69h28q-14 16 -14 46
q0 44 29.5 68t77.5 24q38 0 70 -13l-13 -68q-28 5 -57 5q-21 0 -33 -7t-12 -21t7.5 -20t27.5 -6h90z" />
    <glyph glyph-name="uni0626" horiz-adv-x="876" 
d="M176 -179.5q-85 43.5 -116 117.5t-31 182q0 60 10 122t23 95h138q-9 -31 -18.5 -87.5t-9.5 -116.5q0 -72 23 -111.5t77 -56t154 -16.5q148 0 201.5 16.5t53.5 45.5q0 23 -10 32.5t-36 13.5l-106 16q-74 11 -114 33.5t-57.5 66t-17.5 120.5q0 74 33 129t93 84t139 29
q45 0 95.5 -12.5t83.5 -34.5l-39 -149q-32 11 -64.5 18t-78.5 7q-62 0 -90.5 -15.5t-28.5 -49.5q0 -33 16 -45t63 -18l105 -13q62 -7 96 -30t47.5 -63t13.5 -105q0 -80 -37.5 -134.5t-127.5 -84t-243 -29.5q-155 0 -240 43.5zM226 482v-77h-201v69h28q-14 16 -14 46
q0 44 29.5 68t77.5 24q38 0 70 -13l-13 -68q-28 5 -57 5q-21 0 -33 -7t-12 -21t7.5 -20t27.5 -6h90z" />
    <glyph glyph-name="uni0627" unicode="&#x627;" horiz-adv-x="258" 
d="M59 713h141v-713h-141v713z" />
    <glyph glyph-name="uni0627" horiz-adv-x="258" 
d="M59 713h141v-713h-141v713z" />
    <glyph glyph-name="uni0628" unicode="&#x628;" horiz-adv-x="925" 
d="M87.5 72q-58.5 72 -58.5 193q0 41 9.5 86t22.5 79h136q-10 -28 -18.5 -69.5t-8.5 -69.5q0 -66 32.5 -92.5t109.5 -26.5h335q44 0 64.5 9.5t20.5 40.5v234h141v-227q0 -118 -53 -173.5t-175 -55.5h-345q-154 0 -212.5 72zM394 -99h116v-117h-116v117z" />
    <glyph glyph-name="uni0628" horiz-adv-x="925" 
d="M87.5 72q-58.5 72 -58.5 193q0 41 9.5 86t22.5 79h136q-10 -28 -18.5 -69.5t-8.5 -69.5q0 -66 32.5 -92.5t109.5 -26.5h335q44 0 64.5 9.5t20.5 40.5v234h141v-227q0 -118 -53 -173.5t-175 -55.5h-345q-154 0 -212.5 72zM394 -99h116v-117h-116v117z" />
    <glyph glyph-name="uni0629" unicode="&#x629;" horiz-adv-x="550" 
d="M498 543l-1 -312q0 -112 -59 -171.5t-181 -59.5q-78 0 -129 30.5t-75 81.5t-24 112q0 75 32.5 132.5t92.5 89.5t139 32q35 0 64 -6v71h141zM334 186q23 14 23 38v83q-37 5 -74 5q-54 0 -82.5 -20t-28.5 -54q0 -66 91 -66q48 0 71 14zM144 721h115v-117h-115v117zM301 721
h114v-117h-114v117z" />
    <glyph glyph-name="uni0629" horiz-adv-x="550" 
d="M498 543l-1 -312q0 -112 -59 -171.5t-181 -59.5q-78 0 -129 30.5t-75 81.5t-24 112q0 75 32.5 132.5t92.5 89.5t139 32q35 0 64 -6v71h141zM334 186q23 14 23 38v83q-37 5 -74 5q-54 0 -82.5 -20t-28.5 -54q0 -66 91 -66q48 0 71 14zM144 721h115v-117h-115v117zM301 721
h114v-117h-114v117z" />
    <glyph glyph-name="uni062A" unicode="&#x62a;" horiz-adv-x="925" 
d="M87.5 72q-58.5 72 -58.5 193q0 41 9.5 86t22.5 79h136q-10 -28 -18.5 -69.5t-8.5 -69.5q0 -66 32.5 -92.5t109.5 -26.5h335q44 0 64.5 9.5t20.5 40.5v234h141v-227q0 -118 -53 -173.5t-175 -55.5h-345q-154 0 -212.5 72zM322 578h115v-117h-115v117zM479 578h114v-117
h-114v117z" />
    <glyph glyph-name="uni062A" horiz-adv-x="925" 
d="M87.5 72q-58.5 72 -58.5 193q0 41 9.5 86t22.5 79h136q-10 -28 -18.5 -69.5t-8.5 -69.5q0 -66 32.5 -92.5t109.5 -26.5h335q44 0 64.5 9.5t20.5 40.5v234h141v-227q0 -118 -53 -173.5t-175 -55.5h-345q-154 0 -212.5 72zM322 578h115v-117h-115v117zM479 578h114v-117
h-114v117z" />
    <glyph glyph-name="uni062B" unicode="&#x62b;" horiz-adv-x="925" 
d="M87.5 72q-58.5 72 -58.5 193q0 41 9.5 86t22.5 79h136q-10 -28 -18.5 -69.5t-8.5 -69.5q0 -66 32.5 -92.5t109.5 -26.5h335q44 0 64.5 9.5t20.5 40.5v234h141v-227q0 -118 -53 -173.5t-175 -55.5h-345q-154 0 -212.5 72zM400 733h117v-116h-117v116zM321 578h114v-118
h-114v118zM480 578h114v-118h-114v118z" />
    <glyph glyph-name="uni062B" horiz-adv-x="925" 
d="M87.5 72q-58.5 72 -58.5 193q0 41 9.5 86t22.5 79h136q-10 -28 -18.5 -69.5t-8.5 -69.5q0 -66 32.5 -92.5t109.5 -26.5h335q44 0 64.5 9.5t20.5 40.5v234h141v-227q0 -118 -53 -173.5t-175 -55.5h-345q-154 0 -212.5 72zM400 733h117v-116h-117v116zM321 578h114v-118
h-114v118zM480 578h114v-118h-114v118z" />
    <glyph glyph-name="uni062C" unicode="&#x62c;" horiz-adv-x="687" 
d="M20 -71q0 243 233 243h230q24 0 24 20v34q0 81 -146 81q-103 0 -196 -26l-29 148q50 21 108.5 35.5t140.5 14.5q107 0 187.5 -46.5t80.5 -176.5v-75q0 -181 -173 -181h-229q-85 0 -85 -68q0 -35 26 -57t95 -22h175v-172h-173q-269 0 -269 248zM524 -180h112v-112h-112
v112z" />
    <glyph glyph-name="uni062C" horiz-adv-x="687" 
d="M20 -71q0 243 233 243h230q24 0 24 20v34q0 81 -146 81q-103 0 -196 -26l-29 148q50 21 108.5 35.5t140.5 14.5q107 0 187.5 -46.5t80.5 -176.5v-75q0 -181 -173 -181h-229q-85 0 -85 -68q0 -35 26 -57t95 -22h175v-172h-173q-269 0 -269 248zM524 -180h112v-112h-112
v112z" />
    <glyph glyph-name="uni062D" unicode="&#x62d;" horiz-adv-x="687" 
d="M26 -71q0 243 233 243h224q24 0 24 20v34q0 81 -146 81q-103 0 -196 -26l-29 152q52 20 109.5 33t139.5 13q107 0 187.5 -46.5t80.5 -176.5v-75q0 -181 -173 -181h-223q-48 0 -66.5 -18.5t-18.5 -49.5q0 -36 26 -57.5t95 -21.5h242v-172h-240q-269 0 -269 248z" />
    <glyph glyph-name="uni062D" horiz-adv-x="687" 
d="M26 -71q0 243 233 243h224q24 0 24 20v34q0 81 -146 81q-103 0 -196 -26l-29 152q52 20 109.5 33t139.5 13q107 0 187.5 -46.5t80.5 -176.5v-75q0 -181 -173 -181h-223q-48 0 -66.5 -18.5t-18.5 -49.5q0 -36 26 -57.5t95 -21.5h242v-172h-240q-269 0 -269 248z" />
    <glyph glyph-name="uni062E" unicode="&#x62e;" horiz-adv-x="687" 
d="M26 -71q0 243 233 243h224q24 0 24 20v34q0 81 -146 81q-103 0 -196 -26l-29 152q52 20 109.5 33t139.5 13q107 0 187.5 -46.5t80.5 -176.5v-75q0 -181 -173 -181h-223q-48 0 -66.5 -18.5t-18.5 -49.5q0 -36 26 -57.5t95 -21.5h242v-172h-240q-269 0 -269 248zM310 680
h116v-117h-116v117z" />
    <glyph glyph-name="uni062E" horiz-adv-x="687" 
d="M26 -71q0 243 233 243h224q24 0 24 20v34q0 81 -146 81q-103 0 -196 -26l-29 152q52 20 109.5 33t139.5 13q107 0 187.5 -46.5t80.5 -176.5v-75q0 -181 -173 -181h-223q-48 0 -66.5 -18.5t-18.5 -49.5q0 -36 26 -57.5t95 -21.5h242v-172h-240q-269 0 -269 248zM310 680
h116v-117h-116v117z" />
    <glyph glyph-name="uni062F" unicode="&#x62f;" horiz-adv-x="560" 
d="M372 431.5q89 -34.5 121 -82t31 -118.5l-1 -48q-2 -92 -44.5 -137.5t-129.5 -45.5h-320v172h351v38q0 27 -20 45.5t-82.5 35.5t-188.5 35l26 163q168 -23 257 -57.5z" />
    <glyph glyph-name="uni062F" horiz-adv-x="560" 
d="M372 431.5q89 -34.5 121 -82t31 -118.5l-1 -48q-2 -92 -44.5 -137.5t-129.5 -45.5h-320v172h351v38q0 27 -20 45.5t-82.5 35.5t-188.5 35l26 163q168 -23 257 -57.5z" />
    <glyph glyph-name="uni0630" unicode="&#x630;" horiz-adv-x="560" 
d="M372 431.5q89 -34.5 121 -82t31 -118.5l-1 -48q-2 -92 -44.5 -137.5t-129.5 -45.5h-320v172h351v38q0 27 -20 45.5t-82.5 35.5t-188.5 35l26 163q168 -23 257 -57.5zM181 692h116v-117h-116v117z" />
    <glyph glyph-name="uni0630" horiz-adv-x="560" 
d="M372 431.5q89 -34.5 121 -82t31 -118.5l-1 -48q-2 -92 -44.5 -137.5t-129.5 -45.5h-320v172h351v38q0 27 -20 45.5t-82.5 35.5t-188.5 35l26 163q168 -23 257 -57.5zM181 692h116v-117h-116v117z" />
    <glyph glyph-name="uni0631" unicode="&#x631;" horiz-adv-x="337" 
d="M87 -45q36 0 49.5 9.5t13.5 34.5v456h140v-455q0 -99 -44 -158t-155 -59h-101v172h97z" />
    <glyph glyph-name="uni0631" horiz-adv-x="337" 
d="M87 -45q36 0 49.5 9.5t13.5 34.5v456h140v-455q0 -99 -44 -158t-155 -59h-101v172h97z" />
    <glyph glyph-name="uni0632" unicode="&#x632;" horiz-adv-x="337" 
d="M87 -45q36 0 49.5 9.5t13.5 34.5v456h140v-455q0 -99 -44 -158t-155 -59h-101v172h97zM159 656h116v-117h-116v117z" />
    <glyph glyph-name="uni0632" horiz-adv-x="337" 
d="M87 -45q36 0 49.5 9.5t13.5 34.5v456h140v-455q0 -99 -44 -158t-155 -59h-101v172h97zM159 656h116v-117h-116v117z" />
    <glyph glyph-name="uni0633" unicode="&#x633;" horiz-adv-x="1274" 
d="M1222 453v-248q0 -102 -58.5 -153.5t-155.5 -51.5q-99 0 -134 55q-36 -55 -133 -55h-93q-20 -96 -95.5 -154t-216.5 -58q-167 0 -237 89t-70 228q0 59 11.5 121.5t25.5 97.5h138q-32 -108 -32 -199q0 -78 37.5 -121.5t135.5 -43.5q96 0 133 30.5t37 88.5v314h140v-221
h102q23 0 34 7.5t11 23.5v190h140v-212q25 -9 68 -9q37 0 54.5 7.5t17.5 25.5v248h140z" />
    <glyph glyph-name="uni0633" horiz-adv-x="1274" 
d="M1222 453v-248q0 -102 -58.5 -153.5t-155.5 -51.5q-99 0 -134 55q-36 -55 -133 -55h-93q-20 -96 -95.5 -154t-216.5 -58q-167 0 -237 89t-70 228q0 59 11.5 121.5t25.5 97.5h138q-32 -108 -32 -199q0 -78 37.5 -121.5t135.5 -43.5q96 0 133 30.5t37 88.5v314h140v-221
h102q23 0 34 7.5t11 23.5v190h140v-212q25 -9 68 -9q37 0 54.5 7.5t17.5 25.5v248h140z" />
    <glyph glyph-name="uni0634" unicode="&#x634;" horiz-adv-x="1274" 
d="M1222 453v-248q0 -102 -58.5 -153.5t-155.5 -51.5q-99 0 -134 55q-36 -55 -133 -55h-93q-20 -96 -95.5 -154t-216.5 -58q-167 0 -237 89t-70 228q0 59 11.5 121.5t25.5 97.5h138q-32 -108 -32 -199q0 -78 37.5 -121.5t135.5 -43.5q96 0 133 30.5t37 88.5v314h140v-221
h102q23 0 34 7.5t11 23.5v190h140v-212q25 -9 68 -9q37 0 54.5 7.5t17.5 25.5v248h140zM815 764h117v-116h-117v116zM736 609h114v-118h-114v118zM895 609h114v-118h-114v118z" />
    <glyph glyph-name="uni0634" horiz-adv-x="1274" 
d="M1222 453v-248q0 -102 -58.5 -153.5t-155.5 -51.5q-99 0 -134 55q-36 -55 -133 -55h-93q-20 -96 -95.5 -154t-216.5 -58q-167 0 -237 89t-70 228q0 59 11.5 121.5t25.5 97.5h138q-32 -108 -32 -199q0 -78 37.5 -121.5t135.5 -43.5q96 0 133 30.5t37 88.5v314h140v-221
h102q23 0 34 7.5t11 23.5v190h140v-212q25 -9 68 -9q37 0 54.5 7.5t17.5 25.5v248h140zM815 764h117v-116h-117v116zM736 609h114v-118h-114v118zM895 609h114v-118h-114v118z" />
    <glyph glyph-name="uni0635" unicode="&#x635;" horiz-adv-x="1225" 
d="M1117.5 419q56.5 -60 56.5 -176q0 -125 -66 -184t-194 -59h-266q-20 -96 -95.5 -154t-216.5 -58q-167 0 -237 89t-70 228q0 59 11.5 121.5t25.5 97.5h138q-32 -108 -32 -199q0 -78 37.5 -121.5t135.5 -43.5q96 0 133 30.5t37 88.5v365h140v-40l76 23q89 28 139 40t96 12
q95 0 151.5 -60zM1008.5 185q23.5 13 23.5 49q0 37 -24.5 55t-65.5 18q-42 0 -99.5 -13.5t-167.5 -43.5l-20 -6v-72h276q54 0 77.5 13z" />
    <glyph glyph-name="uni0635" horiz-adv-x="1225" 
d="M1117.5 419q56.5 -60 56.5 -176q0 -125 -66 -184t-194 -59h-266q-20 -96 -95.5 -154t-216.5 -58q-167 0 -237 89t-70 228q0 59 11.5 121.5t25.5 97.5h138q-32 -108 -32 -199q0 -78 37.5 -121.5t135.5 -43.5q96 0 133 30.5t37 88.5v365h140v-40l76 23q89 28 139 40t96 12
q95 0 151.5 -60zM1008.5 185q23.5 13 23.5 49q0 37 -24.5 55t-65.5 18q-42 0 -99.5 -13.5t-167.5 -43.5l-20 -6v-72h276q54 0 77.5 13z" />
    <glyph glyph-name="uni0636" unicode="&#x636;" horiz-adv-x="1225" 
d="M1117.5 419q56.5 -60 56.5 -176q0 -125 -66 -184t-194 -59h-266q-20 -96 -95.5 -154t-216.5 -58q-167 0 -237 89t-70 228q0 59 11.5 121.5t25.5 97.5h138q-32 -108 -32 -199q0 -78 37.5 -121.5t135.5 -43.5q96 0 133 30.5t37 88.5v365h140v-40l76 23q89 28 139 40t96 12
q95 0 151.5 -60zM1008.5 185q23.5 13 23.5 49q0 37 -24.5 55t-65.5 18q-42 0 -99.5 -13.5t-167.5 -43.5l-20 -6v-72h276q54 0 77.5 13zM643 644h116v-117h-116v117z" />
    <glyph glyph-name="uni0636" horiz-adv-x="1225" 
d="M1117.5 419q56.5 -60 56.5 -176q0 -125 -66 -184t-194 -59h-266q-20 -96 -95.5 -154t-216.5 -58q-167 0 -237 89t-70 228q0 59 11.5 121.5t25.5 97.5h138q-32 -108 -32 -199q0 -78 37.5 -121.5t135.5 -43.5q96 0 133 30.5t37 88.5v365h140v-40l76 23q89 28 139 40t96 12
q95 0 151.5 -60zM1008.5 185q23.5 13 23.5 49q0 37 -24.5 55t-65.5 18q-42 0 -99.5 -13.5t-167.5 -43.5l-20 -6v-72h276q54 0 77.5 13zM643 644h116v-117h-116v117z" />
    <glyph glyph-name="uni0637" unicode="&#x637;" horiz-adv-x="801" 
d="M692 418.5q57 -60.5 57 -177.5q0 -124 -65.5 -182.5t-193.5 -58.5h-466v172h85v552h141v-315q98 33 167.5 51.5t121.5 18.5q96 0 153 -60.5zM584 184.5q23 12.5 23 47.5q0 38 -24 56.5t-65 18.5q-39 0 -94.5 -11.5t-148.5 -36.5l-25 -6v-81h257q54 0 77 12.5z" />
    <glyph glyph-name="uni0637" horiz-adv-x="801" 
d="M692 418.5q57 -60.5 57 -177.5q0 -124 -65.5 -182.5t-193.5 -58.5h-466v172h85v552h141v-315q98 33 167.5 51.5t121.5 18.5q96 0 153 -60.5zM584 184.5q23 12.5 23 47.5q0 38 -24 56.5t-65 18.5q-39 0 -94.5 -11.5t-148.5 -36.5l-25 -6v-81h257q54 0 77 12.5z" />
    <glyph glyph-name="uni0638" unicode="&#x638;" horiz-adv-x="801" 
d="M692 418.5q57 -60.5 57 -177.5q0 -124 -65.5 -182.5t-193.5 -58.5h-466v172h85v552h141v-315q98 33 167.5 51.5t121.5 18.5q96 0 153 -60.5zM584 184.5q23 12.5 23 47.5q0 38 -24 56.5t-65 18.5q-39 0 -94.5 -11.5t-148.5 -36.5l-25 -6v-81h257q54 0 77 12.5zM424 684
h116v-117h-116v117z" />
    <glyph glyph-name="uni0638" horiz-adv-x="801" 
d="M692 418.5q57 -60.5 57 -177.5q0 -124 -65.5 -182.5t-193.5 -58.5h-466v172h85v552h141v-315q98 33 167.5 51.5t121.5 18.5q96 0 153 -60.5zM584 184.5q23 12.5 23 47.5q0 38 -24 56.5t-65 18.5q-39 0 -94.5 -11.5t-148.5 -36.5l-25 -6v-81h257q54 0 77 12.5zM424 684
h116v-117h-116v117z" />
    <glyph glyph-name="uni0639" unicode="&#x639;" horiz-adv-x="571" 
d="M547 -147v-172h-260q-145 0 -207 61.5t-62 175.5q0 126 124 180q-40 27 -55 66t-15 92q0 114 72 170t187 56q51 0 98 -9t72 -20l-27 -159q-67 16 -140 16q-116 0 -116 -68q0 -37 28 -53.5t98 -16.5h186v-172h-210q-94 0 -125 -20t-31 -53t29 -53.5t105 -20.5h249z" />
    <glyph glyph-name="uni0639" horiz-adv-x="571" 
d="M547 -147v-172h-260q-145 0 -207 61.5t-62 175.5q0 126 124 180q-40 27 -55 66t-15 92q0 114 72 170t187 56q51 0 98 -9t72 -20l-27 -159q-67 16 -140 16q-116 0 -116 -68q0 -37 28 -53.5t98 -16.5h186v-172h-210q-94 0 -125 -20t-31 -53t29 -53.5t105 -20.5h249z" />
    <glyph glyph-name="uni063A" unicode="&#x63a;" horiz-adv-x="571" 
d="M547 -147v-172h-260q-145 0 -207 61.5t-62 175.5q0 126 124 180q-40 27 -55 66t-15 92q0 114 72 170t187 56q51 0 98 -9t72 -20l-27 -159q-67 16 -140 16q-116 0 -116 -68q0 -37 28 -53.5t98 -16.5h186v-172h-210q-94 0 -125 -20t-31 -53t29 -53.5t105 -20.5h249z
M265 682h116v-117h-116v117z" />
    <glyph glyph-name="uni063A" horiz-adv-x="571" 
d="M547 -147v-172h-260q-145 0 -207 61.5t-62 175.5q0 126 124 180q-40 27 -55 66t-15 92q0 114 72 170t187 56q51 0 98 -9t72 -20l-27 -159q-67 16 -140 16q-116 0 -116 -68q0 -37 28 -53.5t98 -16.5h186v-172h-210q-94 0 -125 -20t-31 -53t29 -53.5t105 -20.5h249z
M265 682h116v-117h-116v117z" />
    <glyph glyph-name="uni0640" unicode="&#x640;" horiz-adv-x="216" 
d="M216 172l17 -10v-152l-17 -10h-216l-17 10v152l17 10h216z" />
    <glyph glyph-name="uni0640" horiz-adv-x="216" 
d="M216 172l17 -10v-152l-17 -10h-216l-17 10v152l17 10h216z" />
    <glyph glyph-name="uni0641" unicode="&#x641;" horiz-adv-x="999" 
d="M947 232q0 -107 -53 -169.5t-169 -62.5h-427q-152 0 -210.5 77t-58.5 204q0 46 10 97.5t24 91.5h138q-11 -34 -20 -82t-9 -80q0 -76 31.5 -106t105.5 -30h417q44 0 61.5 12t17.5 44v44q-37 -51 -128 -51q-93 0 -139.5 53t-46.5 131q0 70 31 124t88 84t132 30
q58 0 112 -15.5t92 -37.5zM805 389v72q-31 18 -75 18q-48 0 -72 -16.5t-24 -44.5q0 -24 20.5 -38.5t61.5 -14.5q62 0 89 24zM686 838h116v-117h-116v117z" />
    <glyph glyph-name="uni0641" horiz-adv-x="999" 
d="M947 232q0 -107 -53 -169.5t-169 -62.5h-427q-152 0 -210.5 77t-58.5 204q0 46 10 97.5t24 91.5h138q-11 -34 -20 -82t-9 -80q0 -76 31.5 -106t105.5 -30h417q44 0 61.5 12t17.5 44v44q-37 -51 -128 -51q-93 0 -139.5 53t-46.5 131q0 70 31 124t88 84t132 30
q58 0 112 -15.5t92 -37.5zM805 389v72q-31 18 -75 18q-48 0 -72 -16.5t-24 -44.5q0 -24 20.5 -38.5t61.5 -14.5q62 0 89 24zM686 838h116v-117h-116v117z" />
    <glyph glyph-name="uni0642" unicode="&#x642;" horiz-adv-x="857" 
d="M717.5 463.5q51.5 -15.5 88.5 -37.5v-434q0 -109 -56 -164t-185 -55h-220q-128 0 -196.5 33.5t-94 100.5t-25.5 181q0 55 11.5 109t25.5 86h138q-13 -38 -22.5 -89t-9.5 -99q0 -57 13.5 -90.5t51 -50.5t108.5 -17h234q48 0 67.5 12t19.5 46v66q-17 -26 -47 -40.5
t-81 -14.5q-101 0 -151 61.5t-50 152.5q0 76 34 135t96 91.5t144 32.5q55 0 106.5 -15.5zM666 199v90q-33 18 -80 18q-53 0 -79.5 -19t-26.5 -52q0 -30 22.5 -47t68.5 -17q66 0 95 27zM456 679h115v-117h-115v117zM613 679h114v-117h-114v117z" />
    <glyph glyph-name="uni0642" horiz-adv-x="857" 
d="M717.5 463.5q51.5 -15.5 88.5 -37.5v-434q0 -109 -56 -164t-185 -55h-220q-128 0 -196.5 33.5t-94 100.5t-25.5 181q0 55 11.5 109t25.5 86h138q-13 -38 -22.5 -89t-9.5 -99q0 -57 13.5 -90.5t51 -50.5t108.5 -17h234q48 0 67.5 12t19.5 46v66q-17 -26 -47 -40.5
t-81 -14.5q-101 0 -151 61.5t-50 152.5q0 76 34 135t96 91.5t144 32.5q55 0 106.5 -15.5zM666 199v90q-33 18 -80 18q-53 0 -79.5 -19t-26.5 -52q0 -30 22.5 -47t68.5 -17q66 0 95 27zM456 679h115v-117h-115v117zM613 679h114v-117h-114v117z" />
    <glyph glyph-name="uni0643" unicode="&#x643;" horiz-adv-x="886" 
d="M828 724v-506q0 -112 -53 -165t-176 -53h-299q-154 0 -212.5 72t-58.5 193q0 41 9.5 86t22.5 79h136q-10 -28 -18.5 -69.5t-8.5 -69.5q0 -66 32.5 -92.5t109.5 -26.5h290q44 0 64.5 9.5t20.5 40.5v502h141zM449 303h-130v93h129q16 0 26.5 3.5t10.5 10.5q0 14 -29 23
t-115 9l-6 113l203 83l18 -86l-108 -37q57 -8 87.5 -33t30.5 -72q0 -107 -117 -107z" />
    <glyph glyph-name="uni0643" horiz-adv-x="886" 
d="M828 724v-506q0 -112 -53 -165t-176 -53h-299q-154 0 -212.5 72t-58.5 193q0 41 9.5 86t22.5 79h136q-10 -28 -18.5 -69.5t-8.5 -69.5q0 -66 32.5 -92.5t109.5 -26.5h290q44 0 64.5 9.5t20.5 40.5v502h141zM449 303h-130v93h129q16 0 26.5 3.5t10.5 10.5q0 14 -29 23
t-115 9l-6 113l203 83l18 -86l-108 -37q57 -8 87.5 -33t30.5 -72q0 -107 -117 -107z" />
    <glyph glyph-name="uni0644" unicode="&#x644;" horiz-adv-x="687" 
d="M96.5 -63q-67.5 89 -67.5 228q0 59 12.5 121.5t27.5 97.5h135q-32 -108 -32 -199q0 -78 35.5 -121.5t127.5 -43.5q86 0 119 30.5t33 88.5v574h141v-579q0 -126 -72 -206t-230 -80q-162 0 -229.5 89z" />
    <glyph glyph-name="uni0644" horiz-adv-x="687" 
d="M96.5 -63q-67.5 89 -67.5 228q0 59 12.5 121.5t27.5 97.5h135q-32 -108 -32 -199q0 -78 35.5 -121.5t127.5 -43.5q86 0 119 30.5t33 88.5v574h141v-579q0 -126 -72 -206t-230 -80q-162 0 -229.5 89z" />
    <glyph glyph-name="uni0645" unicode="&#x645;" horiz-adv-x="785" 
d="M621.5 465.5q53.5 -13.5 92.5 -33.5v-247q0 -88 -55.5 -149t-181.5 -61q-124 0 -186 80h-57q-39 0 -51 -11t-12 -48v-295h-141v317q0 105 49.5 155.5t165.5 52.5q4 75 38 132.5t93 89t135 31.5q57 0 110.5 -13.5zM574 289q-33 18 -79 18q-53 0 -80 -23t-27 -62
q0 -34 24.5 -54.5t72.5 -20.5q35 0 57 10.5t31 28.5z" />
    <glyph glyph-name="uni0645" horiz-adv-x="785" 
d="M621.5 465.5q53.5 -13.5 92.5 -33.5v-247q0 -88 -55.5 -149t-181.5 -61q-124 0 -186 80h-57q-39 0 -51 -11t-12 -48v-295h-141v317q0 105 49.5 155.5t165.5 52.5q4 75 38 132.5t93 89t135 31.5q57 0 110.5 -13.5zM574 289q-33 18 -79 18q-53 0 -80 -23t-27 -62
q0 -34 24.5 -54.5t72.5 -20.5q35 0 57 10.5t31 28.5z" />
    <glyph glyph-name="uni0646" unicode="&#x646;" horiz-adv-x="707" 
d="M99 -127q-70 89 -70 227q0 60 11.5 122t25.5 98h138q-32 -108 -32 -199q0 -78 37.5 -121.5t135.5 -43.5q96 0 133 30.5t37 87.5v381h140v-385q0 -126 -76 -206t-243 -80t-237 89zM287 550h116v-117h-116v117z" />
    <glyph glyph-name="uni0646" horiz-adv-x="707" 
d="M99 -127q-70 89 -70 227q0 60 11.5 122t25.5 98h138q-32 -108 -32 -199q0 -78 37.5 -121.5t135.5 -43.5q96 0 133 30.5t37 87.5v381h140v-385q0 -126 -76 -206t-243 -80t-237 89zM287 550h116v-117h-116v117z" />
    <glyph glyph-name="uni0647" unicode="&#x647;" horiz-adv-x="550" 
d="M498 543l-1 -312q0 -112 -59 -171.5t-181 -59.5q-78 0 -129 30.5t-75 81.5t-24 112q0 75 32.5 132.5t92.5 89.5t139 32q35 0 64 -6v71h141zM334 186q23 14 23 38v83q-37 5 -74 5q-54 0 -82.5 -20t-28.5 -54q0 -66 91 -66q48 0 71 14z" />
    <glyph glyph-name="uni0647" horiz-adv-x="550" 
d="M498 543l-1 -312q0 -112 -59 -171.5t-181 -59.5q-78 0 -129 30.5t-75 81.5t-24 112q0 75 32.5 132.5t92.5 89.5t139 32q35 0 64 -6v71h141zM334 186q23 14 23 38v83q-37 5 -74 5q-54 0 -82.5 -20t-28.5 -54q0 -66 91 -66q48 0 71 14z" />
    <glyph glyph-name="uni0648" unicode="&#x648;" horiz-adv-x="540" 
d="M404.5 463.5q51.5 -15.5 88.5 -37.5v-437q0 -103 -50 -154.5t-164 -51.5h-228v164h242q34 0 47 9t13 35v75q-18 -26 -48 -40.5t-80 -14.5q-101 0 -151 59.5t-50 147.5q0 77 34 136t96 92t144 33q55 0 106.5 -15.5zM353 199v90q-33 18 -80 18q-53 0 -79.5 -19.5
t-26.5 -53.5q0 -28 23 -45t68 -17q68 0 95 27z" />
    <glyph glyph-name="uni0648" horiz-adv-x="540" 
d="M404.5 463.5q51.5 -15.5 88.5 -37.5v-437q0 -103 -50 -154.5t-164 -51.5h-228v164h242q34 0 47 9t13 35v75q-18 -26 -48 -40.5t-80 -14.5q-101 0 -151 59.5t-50 147.5q0 77 34 136t96 92t144 33q55 0 106.5 -15.5zM353 199v90q-33 18 -80 18q-53 0 -79.5 -19.5
t-26.5 -53.5q0 -28 23 -45t68 -17q68 0 95 27z" />
    <glyph glyph-name="uni0649" unicode="&#x649;" horiz-adv-x="876" 
d="M176 -179.5q-85 43.5 -116 117.5t-31 182q0 60 10 122t23 95h138q-9 -31 -18.5 -87.5t-9.5 -116.5q0 -72 23 -111.5t77 -56t154 -16.5q148 0 201.5 16.5t53.5 45.5q0 23 -10 32.5t-36 13.5l-106 16q-74 11 -114 33.5t-57.5 66t-17.5 120.5q0 74 33 129t93 84t139 29
q45 0 95.5 -12.5t83.5 -34.5l-39 -149q-32 11 -64.5 18t-78.5 7q-62 0 -90.5 -15.5t-28.5 -49.5q0 -33 16 -45t63 -18l105 -13q62 -7 96 -30t47.5 -63t13.5 -105q0 -80 -37.5 -134.5t-127.5 -84t-243 -29.5q-155 0 -240 43.5z" />
    <glyph glyph-name="uni0649" horiz-adv-x="876" 
d="M176 -179.5q-85 43.5 -116 117.5t-31 182q0 60 10 122t23 95h138q-9 -31 -18.5 -87.5t-9.5 -116.5q0 -72 23 -111.5t77 -56t154 -16.5q148 0 201.5 16.5t53.5 45.5q0 23 -10 32.5t-36 13.5l-106 16q-74 11 -114 33.5t-57.5 66t-17.5 120.5q0 74 33 129t93 84t139 29
q45 0 95.5 -12.5t83.5 -34.5l-39 -149q-32 11 -64.5 18t-78.5 7q-62 0 -90.5 -15.5t-28.5 -49.5q0 -33 16 -45t63 -18l105 -13q62 -7 96 -30t47.5 -63t13.5 -105q0 -80 -37.5 -134.5t-127.5 -84t-243 -29.5q-155 0 -240 43.5z" />
    <glyph glyph-name="uni064A" unicode="&#x64a;" horiz-adv-x="876" 
d="M176 -179.5q-85 43.5 -116 117.5t-31 182q0 60 10 122t23 95h138q-9 -31 -18.5 -87.5t-9.5 -116.5q0 -72 23 -111.5t77 -56t154 -16.5q148 0 201.5 16.5t53.5 45.5q0 23 -10 32.5t-36 13.5l-106 16q-74 11 -114 33.5t-57.5 66t-17.5 120.5q0 74 33 129t93 84t139 29
q45 0 95.5 -12.5t83.5 -34.5l-39 -149q-32 11 -64.5 18t-78.5 7q-62 0 -90.5 -15.5t-28.5 -49.5q0 -33 16 -45t63 -18l105 -13q62 -7 96 -30t47.5 -63t13.5 -105q0 -80 -37.5 -134.5t-127.5 -84t-243 -29.5q-155 0 -240 43.5zM290 -301h115v-117h-115v117zM447 -301h114
v-117h-114v117z" />
    <glyph glyph-name="uni064A" horiz-adv-x="876" 
d="M176 -179.5q-85 43.5 -116 117.5t-31 182q0 60 10 122t23 95h138q-9 -31 -18.5 -87.5t-9.5 -116.5q0 -72 23 -111.5t77 -56t154 -16.5q148 0 201.5 16.5t53.5 45.5q0 23 -10 32.5t-36 13.5l-106 16q-74 11 -114 33.5t-57.5 66t-17.5 120.5q0 74 33 129t93 84t139 29
q45 0 95.5 -12.5t83.5 -34.5l-39 -149q-32 11 -64.5 18t-78.5 7q-62 0 -90.5 -15.5t-28.5 -49.5q0 -33 16 -45t63 -18l105 -13q62 -7 96 -30t47.5 -63t13.5 -105q0 -80 -37.5 -134.5t-127.5 -84t-243 -29.5q-155 0 -240 43.5zM290 -301h115v-117h-115v117zM447 -301h114
v-117h-114v117z" />
    <glyph glyph-name="uni064B" unicode="&#x64b;" 
d="M8 593l260 51l13 -67l-262 -52zM8 707l260 51l13 -67l-262 -52z" />
    <glyph glyph-name="uni064B" 
d="M8 593l260 51l13 -67l-262 -52zM8 707l260 51l13 -67l-262 -52z" />
    <glyph glyph-name="uni064C" unicode="&#x64c;" 
d="M310 606.5q21 -26.5 21 -63.5t-22.5 -68t-58.5 -49.5t-74 -18.5q-52 0 -72.5 25.5t-20.5 71.5v15h-42v73h42q54 1 56 -55v-26q1 -20 9 -28.5t31 -8.5q17 0 34 5q-24 7 -36.5 24t-12.5 40q0 35 23 62.5t64 27.5q38 0 59 -26.5zM279 535q0 12 -9 19t-22 7t-22 -7t-9 -19
q0 -10 12.5 -16.5t35.5 -10.5q14 14 14 27z" />
    <glyph glyph-name="uni064C" 
d="M310 606.5q21 -26.5 21 -63.5t-22.5 -68t-58.5 -49.5t-74 -18.5q-52 0 -72.5 25.5t-20.5 71.5v15h-42v73h42q54 1 56 -55v-26q1 -20 9 -28.5t31 -8.5q17 0 34 5q-24 7 -36.5 24t-12.5 40q0 35 23 62.5t64 27.5q38 0 59 -26.5zM279 535q0 12 -9 19t-22 7t-22 -7t-9 -19
q0 -10 12.5 -16.5t35.5 -10.5q14 14 14 27z" />
    <glyph glyph-name="uni064D" unicode="&#x64d;" 
d="M26 44l260 51l13 -67l-262 -52zM26 158l260 51l13 -67l-262 -52z" />
    <glyph glyph-name="uni064D" 
d="M26 44l260 51l13 -67l-262 -52zM26 158l260 51l13 -67l-262 -52z" />
    <glyph glyph-name="uni064E" unicode="&#x64e;" 
d="M36 593l260 51l13 -67l-262 -52z" />
    <glyph glyph-name="uni064E" 
d="M36 593l260 51l13 -67l-262 -52z" />
    <glyph glyph-name="uni064F" unicode="&#x64f;" 
d="M226 603q21 -26 21 -63q0 -41 -20.5 -66.5t-58.5 -41.5t-107 -34l-19 67q29 6 70 17q-15 10 -23.5 25t-8.5 33q0 36 23 62.5t64 26.5q38 0 59 -26zM195 532q0 12 -9 18.5t-23 6.5q-13 0 -21.5 -6.5t-8.5 -18.5q0 -17 42 -26q20 11 20 26z" />
    <glyph glyph-name="uni064F" 
d="M226 603q21 -26 21 -63q0 -41 -20.5 -66.5t-58.5 -41.5t-107 -34l-19 67q29 6 70 17q-15 10 -23.5 25t-8.5 33q0 36 23 62.5t64 26.5q38 0 59 -26zM195 532q0 12 -9 18.5t-23 6.5q-13 0 -21.5 -6.5t-8.5 -18.5q0 -17 42 -26q20 11 20 26z" />
    <glyph glyph-name="uni0650" unicode="&#x650;" 
d="M40 109l260 51l13 -67l-262 -52z" />
    <glyph glyph-name="uni0650" 
d="M40 109l260 51l13 -67l-262 -52z" />
    <glyph glyph-name="uni0651" unicode="&#x651;" 
d="M319 592v-64q0 -47 -20.5 -73t-60.5 -26q-50 0 -63 34q-16 -34 -63 -34q-38 0 -58 24.5t-20 68.5v70h63v-60q0 -24 24 -24t24 23v61h63v-61q0 -23 25 -23q23 0 23 23v61h63z" />
    <glyph glyph-name="uni0651" 
d="M319 592v-64q0 -47 -20.5 -73t-60.5 -26q-50 0 -63 34q-16 -34 -63 -34q-38 0 -58 24.5t-20 68.5v70h63v-60q0 -24 24 -24t24 23v61h63v-61q0 -23 25 -23q23 0 23 23v61h63z" />
    <glyph glyph-name="uni0652" unicode="&#x652;" 
d="M66.5 452.5q-26.5 27.5 -26.5 68.5q0 43 26.5 72.5t71.5 29.5q43 0 69.5 -29.5t26.5 -72.5q0 -41 -26.5 -68.5t-69.5 -27.5q-45 0 -71.5 27.5zM169.5 498.5q11.5 8.5 11.5 22.5q0 16 -12 26t-31 10q-20 0 -31.5 -10t-11.5 -26q0 -14 11 -22.5t32 -8.5q20 0 31.5 8.5z" />
    <glyph glyph-name="uni0652" 
d="M66.5 452.5q-26.5 27.5 -26.5 68.5q0 43 26.5 72.5t71.5 29.5q43 0 69.5 -29.5t26.5 -72.5q0 -41 -26.5 -68.5t-69.5 -27.5q-45 0 -71.5 27.5zM169.5 498.5q11.5 8.5 11.5 22.5q0 16 -12 26t-31 10q-20 0 -31.5 -10t-11.5 -26q0 -14 11 -22.5t32 -8.5q20 0 31.5 8.5z" />
    <glyph glyph-name="uni0653" unicode="&#x653;" 
d="M244 431.5q-21 -8.5 -43 -8.5q-26 0 -66 12q-31 9 -47 9q-30 0 -62 -16l-17 72q15 11 37.5 19t45.5 8q14 0 27 -3t25 -7q29 -11 57 -11q29 0 61 16l14 -72q-11 -10 -32 -18.5z" />
    <glyph glyph-name="uni0653" 
d="M244 431.5q-21 -8.5 -43 -8.5q-26 0 -66 12q-31 9 -47 9q-30 0 -62 -16l-17 72q15 11 37.5 19t45.5 8q14 0 27 -3t25 -7q29 -11 57 -11q29 0 61 16l14 -72q-11 -10 -32 -18.5z" />
    <glyph glyph-name="uni0654" unicode="&#x654;" 
d="M241 475v-77h-201v69h28q-14 16 -14 46q0 44 29.5 68t77.5 24q38 0 70 -13l-13 -68q-28 5 -57 5q-21 0 -33 -7t-12 -21t7.5 -20t27.5 -6h90z" />
    <glyph glyph-name="uni0655" unicode="&#x655;" 
d="M223 475v-77h-201v69h28q-14 16 -14 46q0 44 29.5 68t77.5 24q38 0 70 -13l-13 -68q-28 5 -57 5q-21 0 -33 -7t-12 -21t7.5 -20t27.5 -6h90z" />
    <glyph glyph-name="uni0656" unicode="&#x656;" 
d="M40 523h63v-135h-63v135z" />
    <glyph glyph-name="uni0660" unicode="&#x660;" horiz-adv-x="310" 
d="M64 394h182v-173h-182v173z" />
    <glyph glyph-name="uni0660" horiz-adv-x="310" 
d="M64 394h182v-173h-182v173z" />
    <glyph glyph-name="uni0661" unicode="&#x661;" horiz-adv-x="281" 
d="M70 674h141v-674h-141v674z" />
    <glyph glyph-name="uni0661" horiz-adv-x="281" 
d="M70 674h141v-674h-141v674z" />
    <glyph glyph-name="uni0662" unicode="&#x662;" horiz-adv-x="505" 
d="M466 502h-207q-59 0 -59 -41q0 -17 10 -54l101 -379l-145 -33l-108 408q-15 60 -15 98q0 84 52 128.5t158 44.5h213v-172z" />
    <glyph glyph-name="uni0662" horiz-adv-x="505" 
d="M466 502h-207q-59 0 -59 -41q0 -17 10 -54l101 -379l-145 -33l-108 408q-15 60 -15 98q0 84 52 128.5t158 44.5h213v-172z" />
    <glyph glyph-name="uni0663" unicode="&#x663;" horiz-adv-x="681" 
d="M646 674v-158q0 -100 -45.5 -152.5t-123.5 -52.5q-47 0 -77 12t-47 37q-15 -27 -42 -37t-68 -10h-26l39 -313h-142l-81 674h140l23 -188h45q43 0 43 30v158h130v-152q0 -39 47 -39q44 0 44 38v153h141z" />
    <glyph glyph-name="uni0663" horiz-adv-x="681" 
d="M646 674v-158q0 -100 -45.5 -152.5t-123.5 -52.5q-47 0 -77 12t-47 37q-15 -27 -42 -37t-68 -10h-26l39 -313h-142l-81 674h140l23 -188h45q43 0 43 30v158h130v-152q0 -39 47 -39q44 0 44 38v153h141z" />
    <glyph glyph-name="uni0664" unicode="&#x664;" horiz-adv-x="515" 
d="M481 0h-236q-110 0 -161 45.5t-51 139.5q0 96 75 143q-34 24 -49 54.5t-15 84.5q0 207 231 207h174v-163h-177q-90 0 -90 -54q0 -19 18.5 -29t53.5 -10h195l1 -146l-205 -2q-68 0 -68 -49q0 -27 17.5 -38t57.5 -11h228z" />
    <glyph glyph-name="uni0664" horiz-adv-x="515" 
d="M481 0h-236q-110 0 -161 45.5t-51 139.5q0 96 75 143q-34 24 -49 54.5t-15 84.5q0 207 231 207h174v-163h-177q-90 0 -90 -54q0 -19 18.5 -29t53.5 -10h195l1 -146l-205 -2q-68 0 -68 -49q0 -27 17.5 -38t57.5 -11h228z" />
    <glyph glyph-name="uni0665" unicode="&#x665;" horiz-adv-x="604" 
d="M94.5 67q-61.5 77 -60.5 217q2 173 74 260.5t194 87.5q124 0 195.5 -86.5t71.5 -259.5q0 -142 -61.5 -219t-206.5 -77t-206.5 77zM400.5 193.5q27.5 31.5 27.5 98.5q0 89 -34 128.5t-92 39.5t-92.5 -39.5t-34.5 -128.5q0 -67 27.5 -98.5t99.5 -31.5q71 0 98.5 31.5z" />
    <glyph glyph-name="uni0665" horiz-adv-x="604" 
d="M94.5 67q-61.5 77 -60.5 217q2 173 74 260.5t194 87.5q124 0 195.5 -86.5t71.5 -259.5q0 -142 -61.5 -219t-206.5 -77t-206.5 77zM400.5 193.5q27.5 31.5 27.5 98.5q0 89 -34 128.5t-92 39.5t-92.5 -39.5t-34.5 -128.5q0 -67 27.5 -98.5t99.5 -31.5q71 0 98.5 31.5z" />
    <glyph glyph-name="uni0666" unicode="&#x666;" horiz-adv-x="490" 
d="M290 0v462q0 21 -12.5 30.5t-41.5 9.5h-213v172h226q96 0 139 -40.5t43 -130.5v-503h-141z" />
    <glyph glyph-name="uni0666" horiz-adv-x="490" 
d="M290 0v462q0 21 -12.5 30.5t-41.5 9.5h-213v172h226q96 0 139 -40.5t43 -130.5v-503h-141z" />
    <glyph glyph-name="uni0667" unicode="&#x667;" horiz-adv-x="602" 
d="M441 674h144l-179 -674h-195l-194 674h144l147 -512z" />
    <glyph glyph-name="uni0667" horiz-adv-x="602" 
d="M441 674h144l-179 -674h-195l-194 674h144l147 -512z" />
    <glyph glyph-name="uni0668" unicode="&#x668;" horiz-adv-x="602" 
d="M585 0h-144l-133 512l-147 -512h-144l194 674h195z" />
    <glyph glyph-name="uni0668" horiz-adv-x="602" 
d="M585 0h-144l-133 512l-147 -512h-144l194 674h195z" />
    <glyph glyph-name="uni0669" unicode="&#x669;" horiz-adv-x="538" 
d="M399 664q52 -10 89 -24v-640h-141v249q-38 -28 -111 -28q-104 0 -155 58.5t-51 145.5q0 73 32.5 129.5t92 88t137.5 31.5q55 0 107 -10zM347 395v100q-31 10 -73 10q-50 0 -75.5 -17.5t-25.5 -47.5q0 -23 21.5 -38t63.5 -15q55 0 89 8z" />
    <glyph glyph-name="uni0669" horiz-adv-x="538" 
d="M399 664q52 -10 89 -24v-640h-141v249q-38 -28 -111 -28q-104 0 -155 58.5t-51 145.5q0 73 32.5 129.5t92 88t137.5 31.5q55 0 107 -10zM347 395v100q-31 10 -73 10q-50 0 -75.5 -17.5t-25.5 -47.5q0 -23 21.5 -38t63.5 -15q55 0 89 8z" />
    <glyph glyph-name="uni066A" unicode="&#x66a;" horiz-adv-x="726" 
d="M63.5 518.5q-41.5 40.5 -41.5 102.5t41.5 102.5t107.5 40.5t108 -40.5t42 -102.5t-42 -102.5t-108 -40.5t-107.5 40.5zM557 750h118l-509 -750h-112zM213.5 579q16.5 17 16.5 42t-16.5 41.5t-42.5 16.5t-42.5 -16.5t-16.5 -41.5t16.5 -42t42.5 -17t42.5 17zM446.5 26
q-41.5 40 -41.5 103q0 61 42 101.5t107 40.5q67 0 109 -40.5t42 -101.5q0 -63 -42 -103t-109 -40q-66 0 -107.5 40zM597 86.5q17 16.5 17 42.5q0 24 -17 41t-43 17t-42.5 -17t-16.5 -41q0 -26 16.5 -42.5t42.5 -16.5t43 16.5z" />
    <glyph glyph-name="uni066A" horiz-adv-x="726" 
d="M63.5 518.5q-41.5 40.5 -41.5 102.5t41.5 102.5t107.5 40.5t108 -40.5t42 -102.5t-42 -102.5t-108 -40.5t-107.5 40.5zM557 750h118l-509 -750h-112zM213.5 579q16.5 17 16.5 42t-16.5 41.5t-42.5 16.5t-42.5 -16.5t-16.5 -41.5t16.5 -42t42.5 -17t42.5 17zM446.5 26
q-41.5 40 -41.5 103q0 61 42 101.5t107 40.5q67 0 109 -40.5t42 -101.5q0 -63 -42 -103t-109 -40q-66 0 -107.5 40zM597 86.5q17 16.5 17 42.5q0 24 -17 41t-43 17t-42.5 -17t-16.5 -41q0 -26 16.5 -42.5t42.5 -16.5t43 16.5z" />
    <glyph glyph-name="uni066B" unicode="&#x66b;" horiz-adv-x="300" 
d="M17 -143l70 303h172l-120 -303h-122z" />
    <glyph glyph-name="uni066B" horiz-adv-x="300" 
d="M17 -143l70 303h172l-120 -303h-122z" />
    <glyph glyph-name="uni066C" unicode="&#x66c;" horiz-adv-x="300" 
d="M17 -143l70 303h172l-120 -303h-122z" />
    <glyph glyph-name="uni066C" horiz-adv-x="300" 
d="M17 -143l70 303h172l-120 -303h-122z" />
    <glyph glyph-name="uni066D" unicode="&#x66d;" horiz-adv-x="600" 
d="M307 677l-95 -49l94 -49l-29 -49l-89 56l5 -105h-62l8 105l-90 -56l-29 51l99 46l-97 50l27 48l90 -57l-5 104h62l-8 -104l93 55z" />
    <glyph glyph-name="uni066D" horiz-adv-x="600" 
d="M307 677l-95 -49l94 -49l-29 -49l-89 56l5 -105h-62l8 105l-90 -56l-29 51l99 46l-97 50l27 48l90 -57l-5 104h62l-8 -104l93 55z" />
    <glyph glyph-name="uni066E" unicode="&#x66e;" horiz-adv-x="925" 
d="M87.5 72q-58.5 72 -58.5 193q0 41 9.5 86t22.5 79h136q-10 -28 -18.5 -69.5t-8.5 -69.5q0 -66 32.5 -92.5t109.5 -26.5h335q44 0 64.5 9.5t20.5 40.5v234h141v-227q0 -118 -53 -173.5t-175 -55.5h-345q-154 0 -212.5 72z" />
    <glyph glyph-name="uni066E" horiz-adv-x="925" 
d="M87.5 72q-58.5 72 -58.5 193q0 41 9.5 86t22.5 79h136q-10 -28 -18.5 -69.5t-8.5 -69.5q0 -66 32.5 -92.5t109.5 -26.5h335q44 0 64.5 9.5t20.5 40.5v234h141v-227q0 -118 -53 -173.5t-175 -55.5h-345q-154 0 -212.5 72z" />
    <glyph glyph-name="uni066F" unicode="&#x66f;" horiz-adv-x="857" 
d="M717.5 463.5q51.5 -15.5 88.5 -37.5v-434q0 -109 -56 -164t-185 -55h-220q-128 0 -196.5 33.5t-94 100.5t-25.5 181q0 55 11.5 109t25.5 86h138q-13 -38 -22.5 -89t-9.5 -99q0 -57 13.5 -90.5t51 -50.5t108.5 -17h234q48 0 67.5 12t19.5 46v66q-17 -26 -47 -40.5
t-81 -14.5q-101 0 -151 61.5t-50 152.5q0 76 34 135t96 91.5t144 32.5q55 0 106.5 -15.5zM666 199v90q-33 18 -80 18q-53 0 -79.5 -19t-26.5 -52q0 -30 22.5 -47t68.5 -17q66 0 95 27z" />
    <glyph glyph-name="uni066F" horiz-adv-x="857" 
d="M717.5 463.5q51.5 -15.5 88.5 -37.5v-434q0 -109 -56 -164t-185 -55h-220q-128 0 -196.5 33.5t-94 100.5t-25.5 181q0 55 11.5 109t25.5 86h138q-13 -38 -22.5 -89t-9.5 -99q0 -57 13.5 -90.5t51 -50.5t108.5 -17h234q48 0 67.5 12t19.5 46v66q-17 -26 -47 -40.5
t-81 -14.5q-101 0 -151 61.5t-50 152.5q0 76 34 135t96 91.5t144 32.5q55 0 106.5 -15.5zM666 199v90q-33 18 -80 18q-53 0 -79.5 -19t-26.5 -52q0 -30 22.5 -47t68.5 -17q66 0 95 27z" />
    <glyph glyph-name="uni0670" unicode="&#x670;" 
d="M40 523h63v-135h-63v135z" />
    <glyph glyph-name="uni0670" 
d="M40 523h63v-135h-63v135z" />
    <glyph glyph-name="uni0671" unicode="&#x671;" horiz-adv-x="258" 
d="M59 613h141v-613h-141v613z" />
    <glyph glyph-name="uni0671" horiz-adv-x="258" 
d="M59 613h141v-613h-141v613z" />
    <glyph glyph-name="uni06A1" unicode="&#x6a1;" horiz-adv-x="999" 
d="M947 232q0 -107 -53 -169.5t-169 -62.5h-427q-152 0 -210.5 77t-58.5 204q0 46 10 97.5t24 91.5h138q-11 -34 -20 -82t-9 -80q0 -76 31.5 -106t105.5 -30h417q44 0 61.5 12t17.5 44v44q-37 -51 -128 -51q-93 0 -139.5 53t-46.5 131q0 70 31 124t88 84t132 30
q58 0 112 -15.5t92 -37.5zM805 389v72q-31 18 -75 18q-48 0 -72 -16.5t-24 -44.5q0 -24 20.5 -38.5t61.5 -14.5q62 0 89 24z" />
    <glyph glyph-name="uni06A1" horiz-adv-x="999" 
d="M947 232q0 -107 -53 -169.5t-169 -62.5h-427q-152 0 -210.5 77t-58.5 204q0 46 10 97.5t24 91.5h138q-11 -34 -20 -82t-9 -80q0 -76 31.5 -106t105.5 -30h417q44 0 61.5 12t17.5 44v44q-37 -51 -128 -51q-93 0 -139.5 53t-46.5 131q0 70 31 124t88 84t132 30
q58 0 112 -15.5t92 -37.5zM805 389v72q-31 18 -75 18q-48 0 -72 -16.5t-24 -44.5q0 -24 20.5 -38.5t61.5 -14.5q62 0 89 24z" />
    <glyph glyph-name="uni06A4" unicode="&#x6a4;" horiz-adv-x="999" 
d="M947 232q0 -107 -53 -169.5t-169 -62.5h-427q-152 0 -210.5 77t-58.5 204q0 46 10 97.5t24 91.5h138q-11 -34 -20 -82t-9 -80q0 -76 31.5 -106t105.5 -30h417q44 0 61.5 12t17.5 44v44q-37 -51 -128 -51q-93 0 -139.5 53t-46.5 131q0 70 31 124t88 84t132 30
q58 0 112 -15.5t92 -37.5zM805 389v72q-31 18 -75 18q-48 0 -72 -16.5t-24 -44.5q0 -24 20.5 -38.5t61.5 -14.5q62 0 89 24zM689 993h117v-116h-117v116zM610 838h114v-118h-114v118zM769 838h114v-118h-114v118z" />
    <glyph glyph-name="uni06A4" horiz-adv-x="999" 
d="M947 232q0 -107 -53 -169.5t-169 -62.5h-427q-152 0 -210.5 77t-58.5 204q0 46 10 97.5t24 91.5h138q-11 -34 -20 -82t-9 -80q0 -76 31.5 -106t105.5 -30h417q44 0 61.5 12t17.5 44v44q-37 -51 -128 -51q-93 0 -139.5 53t-46.5 131q0 70 31 124t88 84t132 30
q58 0 112 -15.5t92 -37.5zM805 389v72q-31 18 -75 18q-48 0 -72 -16.5t-24 -44.5q0 -24 20.5 -38.5t61.5 -14.5q62 0 89 24zM689 993h117v-116h-117v116zM610 838h114v-118h-114v118zM769 838h114v-118h-114v118z" />
    <glyph glyph-name="uni06A9" unicode="&#x6a9;" horiz-adv-x="886" 
d="M828 724v-506q0 -112 -53 -165t-176 -53h-299q-154 0 -212.5 72t-58.5 193q0 41 9.5 86t22.5 79h136q-10 -28 -18.5 -69.5t-8.5 -69.5q0 -66 32.5 -92.5t109.5 -26.5h290q44 0 64.5 9.5t20.5 40.5v502h141zM449 303h-130v93h129q16 0 26.5 3.5t10.5 10.5q0 14 -29 23
t-115 9l-6 113l203 83l18 -86l-108 -37q57 -8 87.5 -33t30.5 -72q0 -107 -117 -107z" />
    <glyph glyph-name="uni06A9" horiz-adv-x="886" 
d="M828 724v-506q0 -112 -53 -165t-176 -53h-299q-154 0 -212.5 72t-58.5 193q0 41 9.5 86t22.5 79h136q-10 -28 -18.5 -69.5t-8.5 -69.5q0 -66 32.5 -92.5t109.5 -26.5h290q44 0 64.5 9.5t20.5 40.5v502h141zM449 303h-130v93h129q16 0 26.5 3.5t10.5 10.5q0 14 -29 23
t-115 9l-6 113l203 83l18 -86l-108 -37q57 -8 87.5 -33t30.5 -72q0 -107 -117 -107z" />
    <glyph glyph-name="uni06BA" unicode="&#x6ba;" horiz-adv-x="707" 
d="M99 -127q-70 89 -70 227q0 60 11.5 122t25.5 98h138q-32 -108 -32 -199q0 -78 37.5 -121.5t135.5 -43.5q96 0 133 30.5t37 87.5v381h140v-385q0 -126 -76 -206t-243 -80t-237 89z" />
    <glyph glyph-name="uni06BA" horiz-adv-x="707" 
d="M99 -127q-70 89 -70 227q0 60 11.5 122t25.5 98h138q-32 -108 -32 -199q0 -78 37.5 -121.5t135.5 -43.5q96 0 133 30.5t37 87.5v381h140v-385q0 -126 -76 -206t-243 -80t-237 89z" />
    <glyph glyph-name="uni06CC" unicode="&#x6cc;" horiz-adv-x="876" 
d="M176 -179.5q-85 43.5 -116 117.5t-31 182q0 60 10 122t23 95h138q-9 -31 -18.5 -87.5t-9.5 -116.5q0 -72 23 -111.5t77 -56t154 -16.5q148 0 201.5 16.5t53.5 45.5q0 23 -10 32.5t-36 13.5l-106 16q-74 11 -114 33.5t-57.5 66t-17.5 120.5q0 74 33 129t93 84t139 29
q45 0 95.5 -12.5t83.5 -34.5l-39 -149q-32 11 -64.5 18t-78.5 7q-62 0 -90.5 -15.5t-28.5 -49.5q0 -33 16 -45t63 -18l105 -13q62 -7 96 -30t47.5 -63t13.5 -105q0 -80 -37.5 -134.5t-127.5 -84t-243 -29.5q-155 0 -240 43.5zM290 -301h115v-117h-115v117zM447 -301h114
v-117h-114v117z" />
    <glyph glyph-name="uni06CC" horiz-adv-x="876" 
d="M176 -179.5q-85 43.5 -116 117.5t-31 182q0 60 10 122t23 95h138q-9 -31 -18.5 -87.5t-9.5 -116.5q0 -72 23 -111.5t77 -56t154 -16.5q148 0 201.5 16.5t53.5 45.5q0 23 -10 32.5t-36 13.5l-106 16q-74 11 -114 33.5t-57.5 66t-17.5 120.5q0 74 33 129t93 84t139 29
q45 0 95.5 -12.5t83.5 -34.5l-39 -149q-32 11 -64.5 18t-78.5 7q-62 0 -90.5 -15.5t-28.5 -49.5q0 -33 16 -45t63 -18l105 -13q62 -7 96 -30t47.5 -63t13.5 -105q0 -80 -37.5 -134.5t-127.5 -84t-243 -29.5q-155 0 -240 43.5zM290 -301h115v-117h-115v117zM447 -301h114
v-117h-114v117z" />
    <glyph glyph-name="Wgrave" unicode="&#x1e80;" horiz-adv-x="1050" 
d="M858 750h173l-192 -750h-195l-119 471l-119 -471h-195l-192 750h172l120 -522h3l129 486h164l128 -486h3zM361 864v75l309 -42v-75z" />
    <glyph glyph-name="wgrave" unicode="&#x1e81;" horiz-adv-x="828" 
d="M650 516h164l-122 -516h-208l-70 294l-70 -294h-208l-122 516h164l71 -349h3l87 327h150l86 -327h3zM230 758h154l107 -154h-127z" />
    <glyph glyph-name="Wacute" unicode="&#x1e82;" horiz-adv-x="1050" 
d="M858 750h173l-192 -750h-195l-119 471l-119 -471h-195l-192 750h172l120 -522h3l129 486h164l128 -486h3zM401 897l309 42v-75l-309 -42v75z" />
    <glyph glyph-name="wacute" unicode="&#x1e83;" horiz-adv-x="828" 
d="M650 516h164l-122 -516h-208l-70 294l-70 -294h-208l-122 516h164l71 -349h3l87 327h150l86 -327h3zM440 758h155l-135 -154h-126z" />
    <glyph glyph-name="Wdieresis" unicode="&#x1e84;" horiz-adv-x="1050" 
d="M858 750h173l-192 -750h-195l-119 471l-119 -471h-195l-192 750h172l120 -522h3l129 486h164l128 -486h3zM331 914h151v-73h-151v73zM569 914h151v-73h-151v73z" />
    <glyph glyph-name="wdieresis" unicode="&#x1e85;" horiz-adv-x="828" 
d="M650 516h164l-122 -516h-208l-70 294l-70 -294h-208l-122 516h164l71 -349h3l87 327h150l86 -327h3zM229 750h136v-153h-136v153zM464 750h136v-153h-136v153z" />
    <glyph glyph-name="uni1E9E" unicode="&#x1e9e;" horiz-adv-x="777" 
d="M705.5 376q51.5 -65 51.5 -155q0 -111 -68 -173t-187 -62q-106 0 -168 55t-66 151h159q9 -68 77 -68q41 0 62 25t21 73q0 47 -25.5 77.5t-82.5 30.5h-152l137 279h-147q-48 0 -75 -28t-27 -83v-498h-175v509q0 117 60.5 179t174.5 62h438l-150 -290q91 -19 142.5 -84z
" />
    <glyph glyph-name="Ygrave" unicode="&#x1ef2;" horiz-adv-x="668" 
d="M652 750l-231 -514v-236h-174v239l-231 511h178l138 -346h3l139 346h178zM155 864v75l309 -42v-75z" />
    <glyph glyph-name="ygrave" unicode="&#x1ef3;" horiz-adv-x="554" 
d="M540 516l-206 -576q-26 -74 -65 -107t-112 -33h-112v141h92q25 0 38 9.5t21 32.5l11 32l-193 501h173l92 -302h3l89 302h169zM92 758h154l107 -154h-127z" />
    <glyph glyph-name="endash" unicode="&#x2013;" horiz-adv-x="765" 
d="M104 322h558v-110h-558v110z" />
    <glyph glyph-name="emdash" unicode="&#x2014;" horiz-adv-x="1397" 
d="M267 322h863v-110h-863v110z" />
    <glyph glyph-name="quoteleft" unicode="&#x2018;" horiz-adv-x="300" 
d="M137 750h122l-70 -303h-172z" />
    <glyph glyph-name="quoteright" unicode="&#x2019;" horiz-adv-x="300" 
d="M17 447l70 303h172l-120 -303h-122z" />
    <glyph glyph-name="quotesinglbase" unicode="&#x201a;" horiz-adv-x="300" 
d="M17 -143l70 303h172l-120 -303h-122z" />
    <glyph glyph-name="quotedblleft" unicode="&#x201c;" horiz-adv-x="521" 
d="M137 750h122l-70 -303h-172zM357 750h123l-71 -303h-172z" />
    <glyph glyph-name="quotedblright" unicode="&#x201d;" horiz-adv-x="521" 
d="M17 447l70 303h172l-120 -303h-122zM237 447l70 303h173l-120 -303h-123z" />
    <glyph glyph-name="quotedblbase" unicode="&#x201e;" horiz-adv-x="521" 
d="M238 -143l70 303h172l-120 -303h-122zM17 -143l70 303h172l-120 -303h-122z" />
    <glyph glyph-name="dagger" unicode="&#x2020;" horiz-adv-x="850" 
d="M53 750h743v-750h-743v750zM683 108v534h-516v-534h516zM421 302l-104 -104l-67 69l102 103l-102 104l67 69l104 -104l103 103l68 -68l-102 -104l102 -103l-68 -68z" />
    <glyph glyph-name="daggerdbl" unicode="&#x2021;" horiz-adv-x="522" 
d="M198 35l-7 116h-155v109h154v147h-154v109h155l7 116l9 35h100l11 -35l7 -116h161v-109h-160v-147h160v-109h-161l-7 -116l-11 -35h-99z" />
    <glyph glyph-name="bullet" unicode="&#x2022;" horiz-adv-x="394" 
d="M109.5 211.5q-35.5 35.5 -35.5 86.5t35.5 87t87.5 36q51 0 87 -36t36 -87t-36 -86.5t-87 -35.5q-52 0 -87.5 35.5z" />
    <glyph glyph-name="ellipsis" unicode="&#x2026;" horiz-adv-x="710" 
d="M49 0v160h155v-160h-155zM277 0v160h155v-160h-155zM506 0v160h155v-160h-155z" />
    <glyph glyph-name="perthousand" unicode="&#x2030;" horiz-adv-x="831" 
d="M225 476.5q-34 -32.5 -86 -32.5q-50 0 -83.5 33t-33.5 82v82q0 49 33.5 82t83.5 33q52 0 86 -33t34 -82v-82q0 -50 -34 -82.5zM120 0l259 750h59l-259 -750h-59zM117.5 531q8.5 -9 21.5 -9q15 0 23.5 9t8.5 24v89q0 15 -8.5 24.5t-23.5 9.5q-13 0 -21.5 -9.5t-8.5 -24.5
v-89q0 -15 8.5 -24zM503.5 25.5q-33.5 -32.5 -85.5 -32.5t-85.5 32.5t-33.5 82.5v83q0 49 33.5 81.5t85.5 32.5t85.5 -32.5t33.5 -81.5v-83q0 -50 -33.5 -82.5zM775.5 25.5q-33.5 -32.5 -85.5 -32.5q-51 0 -84.5 32.5t-33.5 82.5v83q0 49 33.5 81.5t84.5 32.5
q52 0 85.5 -32.5t33.5 -81.5v-83q0 -50 -33.5 -82.5zM395.5 80q8.5 -9 22.5 -9t22.5 9t8.5 25v89q0 14 -9 24t-22 10t-22 -10t-9 -24v-89q0 -16 8.5 -25zM667.5 80q8.5 -9 22.5 -9t23 9t9 25v89q0 14 -9 24t-23 10q-13 0 -22 -10t-9 -24v-89q0 -16 8.5 -25z" />
    <glyph glyph-name="guilsinglleft" unicode="&#x2039;" horiz-adv-x="380" 
d="M22 246v7l168 200h168l-170 -203l170 -204h-168z" />
    <glyph glyph-name="guilsinglright" unicode="&#x203a;" horiz-adv-x="380" 
d="M22 46l170 204l-170 203h168l168 -200v-7l-168 -200h-168z" />
    <glyph glyph-name="fraction" unicode="&#x2044;" horiz-adv-x="585" 
d="M500 750h76l-491 -750h-76z" />
    <glyph glyph-name="zero.sups" unicode="&#x2070;" horiz-adv-x="274" 
d="M56.5 474.5q-29.5 31.5 -29.5 81.5v87q0 50 29.5 81.5t80.5 31.5t81 -31.5t30 -81.5v-87q0 -50 -29.5 -81.5t-81.5 -31.5q-51 0 -80.5 31.5zM160 554v91q0 30 -23 30t-23 -30v-91q0 -30 23 -30t23 30z" />
    <glyph glyph-name="four.sups" unicode="&#x2074;" horiz-adv-x="300" 
d="M275 587v-66h-32v-72h-92v72h-131v59l131 170h92v-163h32zM98 587h53v70z" />
    <glyph glyph-name="five.sups" unicode="&#x2075;" horiz-adv-x="273" 
d="M55.5 468.5q-31.5 25.5 -31.5 61.5q0 10 2 18h86v-2q0 -11 7.5 -18t19.5 -7q28 0 28 31q0 32 -28 32q-16 0 -23 -12h-86l19 178h187v-81h-116l-7 -50q19 22 53 22q40 0 64 -25.5t24 -64.5q0 -49 -31.5 -78.5t-83.5 -29.5t-83.5 25.5z" />
    <glyph glyph-name="six.sups" unicode="&#x2076;" horiz-adv-x="277" 
d="M237.5 615.5q24.5 -28.5 24.5 -65.5q0 -47 -34 -77t-86 -30t-85.5 29t-33.5 74q0 35 17 62l88 142h108l-64 -101q41 -5 65.5 -33.5zM166.5 527.5q9.5 8.5 9.5 21.5q0 14 -9.5 23.5t-24.5 9.5q-14 0 -23.5 -9.5t-9.5 -23.5q0 -13 9.5 -21.5t23.5 -8.5q15 0 24.5 8.5z" />
    <glyph glyph-name="seven.sups" unicode="&#x2077;" horiz-adv-x="251" 
d="M19 750h216v-78l-101 -223h-99l106 220h-122v81z" />
    <glyph glyph-name="eight.sups" unicode="&#x2078;" horiz-adv-x="271" 
d="M239.5 577.5q10.5 -18.5 10.5 -39.5q0 -41 -31.5 -68t-83.5 -27q-51 0 -82.5 26.5t-31.5 68.5q0 20 10 38.5t28 30.5q-28 24 -28 58q0 40 28.5 65.5t75.5 25.5q46 0 75 -25.5t29 -65.5q0 -35 -28 -58q18 -11 28.5 -29.5zM114.5 683q-8.5 -8 -8.5 -19q0 -13 8.5 -20.5
t20.5 -7.5q13 0 20.5 7.5t7.5 20.5q0 12 -7.5 19.5t-20.5 7.5q-12 0 -20.5 -8zM159 523q10 8 10 21q0 14 -9.5 22.5t-24.5 8.5q-14 0 -24 -9t-10 -22q0 -12 10 -20.5t24 -8.5t24 8z" />
    <glyph glyph-name="nine.sups" unicode="&#x2079;" horiz-adv-x="277" 
d="M225 726q34 -30 34 -76q0 -31 -17 -59l-88 -142h-108l63 98q-41 6 -65 34.5t-24 65.5q0 47 33.5 78t85.5 31t86 -30zM114.5 669.5q-9.5 -8.5 -9.5 -21.5t9.5 -22t23.5 -9q15 0 24.5 9t9.5 22t-9.5 21.5t-24.5 8.5q-14 0 -23.5 -8.5z" />
    <glyph glyph-name="Euro" unicode="&#x20ac;" horiz-adv-x="574" 
d="M539 747v-178q-38 19 -91 19q-73 0 -119.5 -36t-58.5 -101h207v-49h-477v49h78q9 91 57.5 162.5t127 111t176.5 39.5q59 0 100 -17zM328 197.5q47 -36.5 120 -36.5q52 0 91 21v-180q-21 -9 -44.5 -12.5t-55.5 -3.5q-98 0 -177 40t-127.5 111t-56.5 163h-78v50h477v-50
h-207q11 -66 58 -102.5z" />
    <glyph glyph-name="uni2116" unicode="&#x2116;" horiz-adv-x="1094" 
d="M801.5 518.5q-42.5 40.5 -42.5 102.5t42.5 102.5t108.5 40.5t107.5 -40.5t41.5 -102.5t-41.5 -102.5t-107.5 -40.5t-108.5 40.5zM55 750h169l281 -473h3v473h163v-750h-169l-282 473h-3v-473h-162v750zM952 579q17 17 17 42t-17 41.5t-42 16.5q-26 0 -43 -16.5t-17 -41.5
t17 -42t43 -17q25 0 42 17zM784 410h250v-84h-250v84z" />
    <glyph glyph-name="uni2117" unicode="&#x2117;" horiz-adv-x="892" 
d="M643 711.5q90 -52.5 142 -142t52 -196.5t-52 -195.5t-142 -140t-197 -51.5t-197 51.5t-142.5 140t-52.5 195.5t52.5 196.5t142.5 142t197 52.5t197 -52.5zM584 130q62 37 97.5 101t35.5 142t-35.5 143.5t-97.5 103t-138 37.5t-138.5 -37.5t-98 -102.5t-35.5 -144
q0 -78 35.5 -142t98 -101t138.5 -37t138 37zM592.5 533q38.5 -38 38.5 -98q0 -59 -39 -97t-107 -38h-65v-125h-108v396h173q69 0 107.5 -38zM525 435q0 51 -57 51h-48v-101h48q57 0 57 50z" />
    <glyph glyph-name="uni2120" unicode="&#x2120;" horiz-adv-x="852" 
d="M82.5 412q-42.5 34 -44.5 93h103q1 -23 16 -35t37 -12t35 9.5t13 25.5q0 17 -13.5 26t-51.5 14q-128 17 -128 110q0 52 38 83.5t100 31.5q65 0 103 -30t42 -85h-101q-6 36 -45 36q-17 0 -27.5 -8.5t-10.5 -21.5q0 -16 14 -24.5t54 -12.5q124 -12 124 -112
q0 -57 -40 -89.5t-107 -32.5q-68 0 -110.5 34zM377 750h150l60 -227h2l61 227h149v-366h-103v230h-2l-66 -229h-80l-67 229h-1v-230h-103v366z" />
    <glyph glyph-name="trademark" unicode="&#x2122;" horiz-adv-x="824" 
d="M113 667h-95v83h292v-83h-94v-283h-103v283zM349 750h150l60 -227h2l60 227h149v-366h-103v230h-1l-66 -229h-80l-67 229h-1v-230h-103v366z" />
    <glyph glyph-name="uni2150" unicode="&#x2150;" horiz-adv-x="576" 
d="M134 750h78v-301h-89v209l-70 -36v84zM500 750h76l-491 -750h-76zM344 301h216v-78l-101 -223h-99l106 220h-122v81z" />
    <glyph glyph-name="uni2151" unicode="&#x2151;" horiz-adv-x="602" 
d="M134 750h78v-301h-89v209l-70 -36v84zM500 750h76l-491 -750h-76zM550 277q34 -30 34 -76q0 -31 -17 -59l-88 -142h-108l63 98q-41 6 -65 34.5t-24 65.5q0 47 33.5 78t85.5 31t86 -30zM439.5 220.5q-9.5 -8.5 -9.5 -21.5t9.5 -22t23.5 -9q15 0 24.5 9t9.5 22t-9.5 21.5
t-24.5 8.5q-14 0 -23.5 -8.5z" />
    <glyph glyph-name="uni2153" unicode="&#x2153;" horiz-adv-x="597" 
d="M134 750h78v-301h-89v209l-70 -36v84zM500 750h76l-491 -750h-76zM568 129q10 -19 10 -39q0 -41 -32.5 -68.5t-84.5 -27.5q-51 0 -82 26t-31 65q0 9 1 14h87v-5q0 -10 7.5 -16t18.5 -6q12 0 19.5 6.5t7.5 18.5q0 13 -7.5 20t-20.5 7h-10v67h10q25 0 25 24q0 11 -7 17.5
t-18 6.5t-17 -6.5t-6 -17.5v-6h-79v14q0 37 27.5 60.5t74.5 23.5t75.5 -25t28.5 -64q0 -34 -25 -57q18 -13 28 -32z" />
    <glyph glyph-name="uni2154" unicode="&#x2154;" horiz-adv-x="623" 
d="M245 529v-80h-217v57l116 125q11 11 11 26q0 10 -6 15.5t-16 5.5q-25 0 -25 -23v-4h-80v4q0 45 27.5 73t77.5 28q51 0 79.5 -26.5t28.5 -68.5q0 -20 -9.5 -37.5t-28.5 -37.5l-53 -57h95zM526 750h76l-491 -750h-76zM594 129q10 -19 10 -39q0 -41 -32.5 -68.5t-84.5 -27.5
q-51 0 -82 26t-31 65q0 9 1 14h87v-5q0 -10 7.5 -16t18.5 -6q12 0 19.5 6.5t7.5 18.5q0 13 -7.5 20t-20.5 7h-10v67h10q25 0 25 24q0 11 -7 17.5t-18 6.5t-17 -6.5t-6 -17.5v-6h-79v14q0 37 27.5 60.5t74.5 23.5t75.5 -25t28.5 -64q0 -34 -25 -57q18 -13 28 -32z" />
    <glyph glyph-name="uni2155" unicode="&#x2155;" horiz-adv-x="598" 
d="M134 750h78v-301h-89v209l-70 -36v84zM500 750h76l-491 -750h-76zM380.5 19.5q-31.5 25.5 -31.5 61.5q0 10 2 18h86v-2q0 -11 7.5 -18t19.5 -7q28 0 28 31q0 32 -28 32q-16 0 -23 -12h-86l19 178h187v-81h-116l-7 -50q19 22 53 22q40 0 64 -25.5t24 -64.5
q0 -49 -31.5 -78.5t-83.5 -29.5t-83.5 25.5z" />
    <glyph glyph-name="uni2156" unicode="&#x2156;" horiz-adv-x="624" 
d="M245 529v-80h-217v57l116 125q11 11 11 26q0 10 -6 15.5t-16 5.5q-25 0 -25 -23v-4h-80v4q0 45 27.5 73t77.5 28q51 0 79.5 -26.5t28.5 -68.5q0 -20 -9.5 -37.5t-28.5 -37.5l-53 -57h95zM526 750h76l-491 -750h-76zM406.5 19.5q-31.5 25.5 -31.5 61.5q0 10 2 18h86v-2
q0 -11 7.5 -18t19.5 -7q28 0 28 31q0 32 -28 32q-16 0 -23 -12h-86l19 178h187v-81h-116l-7 -50q19 22 53 22q40 0 64 -25.5t24 -64.5q0 -49 -31.5 -78.5t-83.5 -29.5t-83.5 25.5z" />
    <glyph glyph-name="uni2157" unicode="&#x2157;" horiz-adv-x="630" 
d="M243 578q10 -19 10 -39q0 -41 -32.5 -68.5t-84.5 -27.5q-51 0 -82 26t-31 65q0 9 1 14h87v-5q0 -10 7.5 -16t18.5 -6q12 0 19.5 6.5t7.5 18.5q0 13 -7.5 20t-20.5 7h-10v67h10q25 0 25 24q0 11 -7 17.5t-18 6.5t-17 -6.5t-6 -17.5v-6h-79v14q0 37 27.5 60.5t74.5 23.5
t75.5 -25t28.5 -64q0 -34 -25 -57q18 -13 28 -32zM532 750h76l-491 -750h-76zM412.5 19.5q-31.5 25.5 -31.5 61.5q0 10 2 18h86v-2q0 -11 7.5 -18t19.5 -7q28 0 28 31q0 32 -28 32q-16 0 -23 -12h-86l19 178h187v-81h-116l-7 -50q19 22 53 22q40 0 64 -25.5t24 -64.5
q0 -49 -31.5 -78.5t-83.5 -29.5t-83.5 25.5z" />
    <glyph glyph-name="uni2158" unicode="&#x2158;" horiz-adv-x="658" 
d="M275 587v-66h-32v-72h-92v72h-131v59l131 170h92v-163h32zM98 587h53v70zM560 750h76l-491 -750h-76zM440.5 19.5q-31.5 25.5 -31.5 61.5q0 10 2 18h86v-2q0 -11 7.5 -18t19.5 -7q28 0 28 31q0 32 -28 32q-16 0 -23 -12h-86l19 178h187v-81h-116l-7 -50q19 22 53 22
q40 0 64 -25.5t24 -64.5q0 -49 -31.5 -78.5t-83.5 -29.5t-83.5 25.5z" />
    <glyph glyph-name="uni2159" unicode="&#x2159;" horiz-adv-x="593" 
d="M134 750h78v-301h-89v209l-70 -36v84zM500 750h76l-491 -750h-76zM553.5 166.5q24.5 -28.5 24.5 -65.5q0 -47 -34 -77t-86 -30t-85.5 29t-33.5 74q0 35 17 62l88 142h108l-64 -101q41 -5 65.5 -33.5zM482.5 78.5q9.5 8.5 9.5 21.5q0 14 -9.5 23.5t-24.5 9.5
q-14 0 -23.5 -9.5t-9.5 -23.5q0 -13 9.5 -21.5t23.5 -8.5q15 0 24.5 8.5z" />
    <glyph glyph-name="oneeighth" unicode="&#x215b;" horiz-adv-x="596" 
d="M134 750h78v-301h-89v209l-70 -36v84zM500 750h76l-491 -750h-76zM564.5 128.5q10.5 -18.5 10.5 -39.5q0 -41 -31.5 -68t-83.5 -27q-51 0 -82.5 26.5t-31.5 68.5q0 20 10 38.5t28 30.5q-28 24 -28 58q0 40 28.5 65.5t75.5 25.5q46 0 75 -25.5t29 -65.5q0 -35 -28 -58
q18 -11 28.5 -29.5zM439.5 234q-8.5 -8 -8.5 -19q0 -13 8.5 -20.5t20.5 -7.5q13 0 20.5 7.5t7.5 20.5q0 12 -7.5 19.5t-20.5 7.5q-12 0 -20.5 -8zM484 74q10 8 10 21q0 14 -9.5 22.5t-24.5 8.5q-14 0 -24 -9t-10 -22q0 -12 10 -20.5t24 -8.5t24 8z" />
    <glyph glyph-name="arrowleft" unicode="&#x2190;" horiz-adv-x="740" 
d="M684 316v-116h-429l146 -192h-154l-190 248v5l190 246h154l-146 -191h429z" />
    <glyph glyph-name="arrowup" unicode="&#x2191;" horiz-adv-x="564" 
d="M531 340v-155l-191 146v-331h-116v331l-192 -146v155l246 190h6z" />
    <glyph glyph-name="arrowright" unicode="&#x2192;" horiz-adv-x="740" 
d="M494 507l190 -246v-5l-190 -248h-155l147 192h-429v116h429l-147 191h155z" />
    <glyph glyph-name="arrowdown" unicode="&#x2193;" horiz-adv-x="564" 
d="M340 184l191 147v-155l-247 -190h-6l-246 190v155l192 -148v333h116v-332z" />
    <glyph glyph-name="arrowboth" unicode="&#x2194;" horiz-adv-x="969" 
d="M723 507l190 -246v-5l-190 -248h-155l147 192h-460l146 -192h-154l-190 248v5l190 246h154l-146 -191h460l-147 191h155z" />
    <glyph glyph-name="arrowupdn" unicode="&#x2195;" horiz-adv-x="550" 
d="M513 301l-177 72v-231l177 72v-134l-236 -94h-5l-235 95v133l177 -73v232l-177 -72v134l235 95h5l236 -95v-134z" />
    <glyph glyph-name="uni2196" unicode="&#x2196;" horiz-adv-x="642" 
d="M632 0h-164l-315 314v-155h-123v352l5 5h364v-113h-169z" />
    <glyph glyph-name="uni2197" unicode="&#x2197;" horiz-adv-x="642" 
d="M608 516l4 -5v-352h-122v156l-316 -315h-164l403 403h-170v113h365z" />
    <glyph glyph-name="uni2198" unicode="&#x2198;" horiz-adv-x="642" 
d="M490 357h122v-352l-4 -5h-365v113h170l-403 403h164l316 -315v156z" />
    <glyph glyph-name="uni2199" unicode="&#x2199;" horiz-adv-x="642" 
d="M632 516l-402 -403h169v-113h-364l-5 5v352h123v-155l315 314h164z" />
    <glyph glyph-name="minus" unicode="&#x2212;" horiz-adv-x="610" 
d="M91 412h428v-111h-428v111z" />
    <glyph glyph-name="infinity" unicode="&#x221e;" horiz-adv-x="784" 
d="M682.5 498.5q40.5 -21.5 63.5 -58.5t23 -84t-22.5 -85t-63 -59t-91.5 -21q-43 0 -84 20.5t-72 50.5l-37 35l-37 -35q-32 -30 -72 -50.5t-82 -20.5q-52 0 -92.5 21.5t-62.5 59t-22 84.5t23 84.5t63.5 58.5t91.5 21q89 0 153 -68l37 -38l37 38q66 68 154 68
q52 0 92.5 -21.5zM323 356l-22 25q-15 17 -37.5 30.5t-47.5 13.5q-33 0 -54 -20t-21 -49t20.5 -47.5t54.5 -18.5q23 0 46 13t39 30zM638 308.5q21 18.5 21 47.5t-21.5 49t-55.5 20q-24 0 -46.5 -13.5t-37.5 -30.5l-23 -25l23 -23q16 -18 38.5 -30.5t46.5 -12.5q34 0 55 18.5
z" />
    <glyph glyph-name="approxequal" unicode="&#x2248;" horiz-adv-x="520" 
d="M439 405q-31 -38 -92 -38q-28 0 -49 9.5t-49 27.5q-19 13 -30.5 19t-24.5 6q-35 0 -35 -48h-109q0 84 29.5 123t93.5 39q26 0 46.5 -9t45.5 -26q20 -13 33 -19.5t28 -6.5q35 0 35 47h109q0 -86 -31 -124zM439 204q-31 -38 -92 -38q-28 0 -49 9.5t-49 27.5
q-19 13 -30.5 19t-24.5 6q-35 0 -35 -48h-109q0 84 29.5 123.5t93.5 39.5q26 0 46 -9.5t46 -26.5q3 -2 16 -10t24 -12t21 -4q35 0 35 48h109q0 -87 -31 -125z" />
    <glyph glyph-name="notequal" unicode="&#x2260;" horiz-adv-x="610" 
d="M519 392h-153l-17 -84h170v-96h-189l-27 -131h-105l27 131h-134v96h153l17 84h-170v97h190l27 133h105l-27 -133h133v-97z" />
    <glyph glyph-name="lessequal" unicode="&#x2264;" horiz-adv-x="609" 
d="M523 631v-106l-295 -97l295 -98v-109l-437 155v101zM86 218v100l437 -151v-103z" />
    <glyph glyph-name="greaterequal" unicode="&#x2265;" horiz-adv-x="609" 
d="M86 631l437 -154v-101l-437 -155v109l295 98l-295 97v106zM86 64v103l437 151v-100z" />
    <glyph glyph-name="uni22A0" unicode="&#x22a0;" horiz-adv-x="850" 
d="M53 0v750h743v-750h-743zM167 108h516v534h-516v-534zM524 199l-103 103l-104 -104l-67 69l102 103l-102 104l67 69l104 -104l103 103l68 -68l-102 -104l102 -103z" />
    <glyph glyph-name="house" unicode="&#x2302;" horiz-adv-x="831" 
d="M100 273l315 257l316 -257v-273h-631v273z" />
    <glyph glyph-name="uni24FF" unicode="&#x24ff;" horiz-adv-x="892" 
d="M249 37.5q-90 51.5 -142.5 140t-52.5 195.5t52.5 196.5t142.5 142t197 52.5t197 -52.5t142 -142t52 -196.5t-52 -195.5t-142 -140t-197 -51.5t-197 51.5zM526.5 249.5q29.5 31.5 29.5 81.5v87q0 50 -29.5 81.5t-80.5 31.5t-81 -31.5t-30 -81.5v-87q0 -50 29.5 -81.5
t81.5 -31.5q51 0 80.5 31.5zM423 329v91q0 30 23 30q22 0 22 -30v-91q0 -15 -5 -22.5t-17 -7.5q-23 0 -23 30z" />
    <glyph glyph-name="filledbox" unicode="&#x25a0;" horiz-adv-x="850" 
d="M53 750h743v-750h-743v750z" />
    <glyph glyph-name="uni25A1" unicode="&#x25a1;" horiz-adv-x="850" 
d="M53 0v750h743v-750h-743zM167 108h516v534h-516v-534z" />
    <glyph glyph-name="uni25AA" unicode="&#x25aa;" horiz-adv-x="618" 
d="M53 516h511v-516h-511v516z" />
    <glyph glyph-name="uni25AB" unicode="&#x25ab;" horiz-adv-x="618" 
d="M53 516h511v-516h-511v516zM460 99v318h-302v-318h302z" />
    <glyph glyph-name="triagup" unicode="&#x25b2;" horiz-adv-x="602" 
d="M296 522h10l240 -522h-490z" />
    <glyph glyph-name="triagrt" unicode="&#x25ba;" horiz-adv-x="569" 
d="M92 522h8l413 -254v-10l-413 -265h-8v529z" />
    <glyph glyph-name="triagdn" unicode="&#x25bc;" horiz-adv-x="602" 
d="M546 516l-240 -523h-10l-240 523h490z" />
    <glyph glyph-name="triaglf" unicode="&#x25c4;" horiz-adv-x="569" 
d="M470 -7l-413 265v10l413 254h8v-529h-8z" />
    <glyph glyph-name="circle" unicode="&#x25cb;" horiz-adv-x="892" 
d="M249 37.5q-90 51.5 -142.5 140t-52.5 195.5t52.5 196.5t142.5 142t197 52.5t197 -52.5t142 -142t52 -196.5t-52 -195.5t-142 -140t-197 -51.5t-197 51.5zM577.5 141q59.5 35 93.5 96.5t34 135.5q0 75 -34.5 137t-93.5 98t-131 36t-131.5 -36t-94 -98t-34.5 -137
q0 -74 34.5 -135.5t94 -96.5t131.5 -35t131.5 35z" />
    <glyph glyph-name="uni25CF" unicode="&#x25cf;" horiz-adv-x="892" 
d="M249 37.5q-90 51.5 -142.5 140t-52.5 195.5t52.5 196.5t142.5 142t197 52.5t197 -52.5t142 -142t52 -196.5t-52 -195.5t-142 -140t-197 -51.5t-197 51.5z" />
    <glyph glyph-name="uni2612" unicode="&#x2612;" horiz-adv-x="618" 
d="M53 516h511v-516h-511v516zM460 99v318h-302v-318h302zM237 147l-42 43l70 70l-70 70l42 42l70 -70l70 70l43 -42l-70 -70l70 -70l-43 -43l-70 70z" />
    <glyph glyph-name="uni26AB" unicode="&#x26ab;" horiz-adv-x="648" 
d="M186 22.5q-63 36.5 -99.5 99t-36.5 136.5t36.5 136.5t99.5 99t138 36.5q76 0 138.5 -36.5t99 -99t36.5 -136.5t-36.5 -136.5t-99 -99t-138.5 -36.5q-75 0 -138 36.5z" />
    <glyph glyph-name="uni26AC" unicode="&#x26ac;" horiz-adv-x="648" 
d="M186 22.5q-63 36.5 -99.5 99t-36.5 136.5t36.5 136.5t99.5 99t138 36.5q76 0 138.5 -36.5t99 -99t36.5 -136.5t-36.5 -136.5t-99 -99t-138.5 -36.5q-75 0 -138 36.5zM410.5 108q38.5 23 61 63t22.5 87q0 48 -22.5 87.5t-61 62.5t-86.5 23q-47 0 -86 -23t-61 -62.5
t-22 -87.5q0 -47 22 -87t61 -63t86 -23q48 0 86.5 23z" />
    <glyph glyph-name="uni2776" unicode="&#x2776;" horiz-adv-x="892" 
d="M249 37.5q-90 51.5 -142.5 140t-52.5 195.5t52.5 196.5t142.5 142t197 52.5t197 -52.5t142 -142t52 -196.5t-52 -195.5t-142 -140t-197 -51.5t-197 51.5zM506 224v301h-78l-81 -44v-84l70 36v-209h89z" />
    <glyph glyph-name="uni2777" unicode="&#x2777;" horiz-adv-x="892" 
d="M249 37.5q-90 51.5 -142.5 140t-52.5 195.5t52.5 196.5t142.5 142t197 52.5t197 -52.5t142 -142t52 -196.5t-52 -195.5t-142 -140t-197 -51.5t-197 51.5zM555 304h-94l52 57q19 20 28.5 37.5t9.5 37.5q0 42 -28.5 68.5t-79.5 26.5q-50 0 -77.5 -28t-27.5 -73v-4h80v4
q0 23 25 23q10 0 16 -5.5t6 -15.5q0 -15 -11 -26l-116 -125v-57h217v80z" />
    <glyph glyph-name="uni2778" unicode="&#x2778;" horiz-adv-x="892" 
d="M249 37.5q-90 51.5 -142.5 140t-52.5 195.5t52.5 196.5t142.5 142t197 52.5t197 -52.5t142 -142t52 -196.5t-52 -195.5t-142 -140t-197 -51.5t-197 51.5zM529.5 245.5q32.5 27.5 32.5 68.5q0 21 -10 40t-28 31q25 23 25 57q0 39 -28.5 64t-75.5 25q-46 0 -74 -23.5
t-28 -60.5v-14h79v6q0 11 6.5 17.5t17.5 6.5t17.5 -6.5t6.5 -17.5q0 -24 -25 -24h-10v-67h10q13 0 20.5 -7t7.5 -20q0 -12 -7.5 -18.5t-19.5 -6.5q-11 0 -18.5 6t-7.5 16v5h-87q-1 -5 -1 -14q0 -39 31 -65t82 -26q52 0 84.5 27.5z" />
    <glyph glyph-name="uni2779" unicode="&#x2779;" horiz-adv-x="892" 
d="M249 37.5q-90 51.5 -142.5 140t-52.5 195.5t52.5 196.5t142.5 142t197 52.5t197 -52.5t142 -142t52 -196.5t-52 -195.5t-142 -140t-197 -51.5t-197 51.5zM521 224v72h32v66h-32v163h-92l-131 -170v-59h131v-72h92zM429 432v-70h-54z" />
    <glyph glyph-name="uni277A" unicode="&#x277a;" horiz-adv-x="892" 
d="M249 37.5q-90 51.5 -142.5 140t-52.5 195.5t52.5 196.5t142.5 142t197 52.5t197 -52.5t142 -142t52 -196.5t-52 -195.5t-142 -140t-197 -51.5t-197 51.5zM532 247.5q32 29.5 32 78.5q0 39 -24 64.5t-64 25.5q-34 0 -53 -22l7 50h116v81h-187l-19 -178h86q7 12 23 12
q28 0 28 -32q0 -31 -29 -31q-12 0 -19 7t-7 18v2h-86q-2 -8 -2 -18q0 -36 31.5 -61.5t82.5 -25.5q52 0 84 29.5z" />
    </font>
</defs>
</svg>
